<mxfile host="Electron" modified="2024-07-05T20:59:04.612Z" agent="Mozilla/5.0 (X11; Linux x86_64) AppleWebKit/537.36 (KHTML, like Gecko) draw.io/24.5.3 Chrome/124.0.6367.207 Electron/30.0.6 Safari/537.36" etag="DU05YGeN4YtUrCrURAar" version="24.5.3" type="device" pages="5">
  <diagram name="pl_stage" id="sQZPAQ0m2a0brsjAJA3f">
    <mxGraphModel dx="1378" dy="843" grid="1" gridSize="10" guides="1" tooltips="1" connect="1" arrows="1" fold="1" page="1" pageScale="1" pageWidth="10000" pageHeight="10000" math="0" shadow="0">
      <root>
        <mxCell id="0" />
        <mxCell id="1" parent="0" />
        <mxCell id="BS4bdiccRaYcMO0Jhtpn-2" value="In_Valid" style="text;html=1;align=right;verticalAlign=middle;whiteSpace=wrap;rounded=0;" parent="1" vertex="1">
          <mxGeometry x="340" y="40" width="60" height="20" as="geometry" />
        </mxCell>
        <mxCell id="BS4bdiccRaYcMO0Jhtpn-42" value="Out_Data" style="text;html=1;align=left;verticalAlign=middle;whiteSpace=wrap;rounded=0;" parent="1" vertex="1">
          <mxGeometry x="690" y="40" width="60" height="20" as="geometry" />
        </mxCell>
        <mxCell id="BS4bdiccRaYcMO0Jhtpn-43" value="Out_Valid" style="text;html=1;align=left;verticalAlign=middle;whiteSpace=wrap;rounded=0;" parent="1" vertex="1">
          <mxGeometry x="690" y="100" width="60" height="20" as="geometry" />
        </mxCell>
        <mxCell id="R5z1-6jqIsE6iVicjENk-1" style="vsdxID=5;fillColor=none;gradientColor=none;strokeColor=none;labelBackgroundColor=none;rounded=0;html=1;whiteSpace=wrap;" parent="1" vertex="1">
          <mxGeometry x="420" y="40" width="50" height="40" as="geometry" />
        </mxCell>
        <mxCell id="R5z1-6jqIsE6iVicjENk-2" style="vsdxID=6;fillColor=#FFFFFF;gradientColor=none;shape=stencil(nZBLDoAgDERP0z3SIyjew0SURgSD+Lu9kMZoXLhwN9O+tukAlrNpJg1SzDH4QW/URgNYgZTkjA4UkwJUgGXng+6DX1zLfmoymdXo17xh5zmRJ6Q42BWCfc2oJfdAr+Yv+AP9Cb7OJ3H/2JG1HNGz/84klThPVCc=);strokeColor=#000000;labelBackgroundColor=none;rounded=0;html=1;whiteSpace=wrap;" parent="R5z1-6jqIsE6iVicjENk-1" vertex="1">
          <mxGeometry x="20" width="30" height="40" as="geometry" />
        </mxCell>
        <mxCell id="R5z1-6jqIsE6iVicjENk-3" value="&lt;font style=&quot;font-size:14px;font-family:Calibri;color:#000000;direction:ltr;letter-spacing:0px;line-height:120%;opacity:1&quot;&gt;D&lt;br/&gt;&lt;/font&gt;" style="verticalAlign=middle;align=center;vsdxID=10;fillColor=none;gradientColor=none;shape=stencil(nZBLDoAgDERP0z3SIyjew0SURgSD+Lu9kMZoXLhwN9O+tukAlrNpJg1SzDH4QW/URgNYgZTkjA4UkwJUgGXng+6DX1zLfmoymdXo17xh5zmRJ6Q42BWCfc2oJfdAr+Yv+AP9Cb7OJ3H/2JG1HNGz/84klThPVCc=);strokeColor=none;spacingTop=-3;spacingBottom=-3;spacingLeft=-3;spacingRight=-3;labelBackgroundColor=none;rounded=0;html=1;whiteSpace=wrap;" parent="R5z1-6jqIsE6iVicjENk-1" vertex="1">
          <mxGeometry x="22" y="5" width="10" height="10" as="geometry" />
        </mxCell>
        <mxCell id="R5z1-6jqIsE6iVicjENk-4" value="&lt;font style=&quot;font-size:14px;font-family:Calibri;color:#000000;direction:ltr;letter-spacing:0px;line-height:120%;opacity:1&quot;&gt;Q&lt;br/&gt;&lt;/font&gt;" style="verticalAlign=middle;align=center;vsdxID=11;fillColor=none;gradientColor=none;shape=stencil(nZBLDoAgDERP0z3SIyjew0SURgSD+Lu9kMZoXLhwN9O+tukAlrNpJg1SzDH4QW/URgNYgZTkjA4UkwJUgGXng+6DX1zLfmoymdXo17xh5zmRJ6Q42BWCfc2oJfdAr+Yv+AP9Cb7OJ3H/2JG1HNGz/84klThPVCc=);strokeColor=none;spacingTop=-3;spacingBottom=-3;spacingLeft=-3;spacingRight=-3;labelBackgroundColor=none;rounded=0;html=1;whiteSpace=wrap;" parent="R5z1-6jqIsE6iVicjENk-1" vertex="1">
          <mxGeometry x="38" y="5" width="10" height="10" as="geometry" />
        </mxCell>
        <mxCell id="R5z1-6jqIsE6iVicjENk-5" style="vsdxID=7;edgeStyle=none;startArrow=none;endArrow=none;startSize=5;endSize=5;strokeColor=#000000;spacingTop=0;spacingBottom=0;spacingLeft=0;spacingRight=0;verticalAlign=middle;html=1;labelBackgroundColor=#ffffff;rounded=0;" parent="R5z1-6jqIsE6iVicjENk-1" edge="1">
          <mxGeometry relative="1" as="geometry">
            <Array as="points" />
            <mxPoint x="32" y="40" as="sourcePoint" />
            <mxPoint x="36" y="32" as="targetPoint" />
          </mxGeometry>
        </mxCell>
        <mxCell id="R5z1-6jqIsE6iVicjENk-6" style="vsdxID=8;edgeStyle=none;startArrow=none;endArrow=none;startSize=5;endSize=5;strokeColor=#000000;spacingTop=0;spacingBottom=0;spacingLeft=0;spacingRight=0;verticalAlign=middle;html=1;labelBackgroundColor=#ffffff;rounded=0;" parent="R5z1-6jqIsE6iVicjENk-1" edge="1">
          <mxGeometry relative="1" as="geometry">
            <Array as="points" />
            <mxPoint x="36" y="32" as="sourcePoint" />
            <mxPoint x="40" y="40" as="targetPoint" />
          </mxGeometry>
        </mxCell>
        <mxCell id="R5z1-6jqIsE6iVicjENk-7" style="vsdxID=9;edgeStyle=none;startArrow=none;endArrow=classic;startSize=5;endSize=5;strokeColor=#000000;spacingTop=0;spacingBottom=0;spacingLeft=0;spacingRight=0;verticalAlign=middle;html=1;labelBackgroundColor=#ffffff;rounded=0;exitX=1;exitY=0.5;exitDx=0;exitDy=0;" parent="R5z1-6jqIsE6iVicjENk-1" source="BS4bdiccRaYcMO0Jhtpn-2" edge="1">
          <mxGeometry relative="1" as="geometry">
            <mxPoint as="offset" />
            <Array as="points" />
            <mxPoint y="10" as="sourcePoint" />
            <mxPoint x="20" y="10" as="targetPoint" />
          </mxGeometry>
        </mxCell>
        <mxCell id="R5z1-6jqIsE6iVicjENk-8" style="vsdxID=5;fillColor=none;gradientColor=none;strokeColor=none;labelBackgroundColor=none;rounded=0;html=1;whiteSpace=wrap;" parent="1" vertex="1">
          <mxGeometry x="420" y="100" width="50" height="40" as="geometry" />
        </mxCell>
        <mxCell id="R5z1-6jqIsE6iVicjENk-9" style="vsdxID=6;fillColor=#FFFFFF;gradientColor=none;shape=stencil(nZBLDoAgDERP0z3SIyjew0SURgSD+Lu9kMZoXLhwN9O+tukAlrNpJg1SzDH4QW/URgNYgZTkjA4UkwJUgGXng+6DX1zLfmoymdXo17xh5zmRJ6Q42BWCfc2oJfdAr+Yv+AP9Cb7OJ3H/2JG1HNGz/84klThPVCc=);strokeColor=#000000;labelBackgroundColor=none;rounded=0;html=1;whiteSpace=wrap;" parent="R5z1-6jqIsE6iVicjENk-8" vertex="1">
          <mxGeometry x="20" width="30" height="40" as="geometry" />
        </mxCell>
        <mxCell id="R5z1-6jqIsE6iVicjENk-10" value="&lt;font style=&quot;font-size:14px;font-family:Calibri;color:#000000;direction:ltr;letter-spacing:0px;line-height:120%;opacity:1&quot;&gt;D&lt;br/&gt;&lt;/font&gt;" style="verticalAlign=middle;align=center;vsdxID=10;fillColor=none;gradientColor=none;shape=stencil(nZBLDoAgDERP0z3SIyjew0SURgSD+Lu9kMZoXLhwN9O+tukAlrNpJg1SzDH4QW/URgNYgZTkjA4UkwJUgGXng+6DX1zLfmoymdXo17xh5zmRJ6Q42BWCfc2oJfdAr+Yv+AP9Cb7OJ3H/2JG1HNGz/84klThPVCc=);strokeColor=none;spacingTop=-3;spacingBottom=-3;spacingLeft=-3;spacingRight=-3;labelBackgroundColor=none;rounded=0;html=1;whiteSpace=wrap;" parent="R5z1-6jqIsE6iVicjENk-8" vertex="1">
          <mxGeometry x="22" y="5" width="10" height="10" as="geometry" />
        </mxCell>
        <mxCell id="R5z1-6jqIsE6iVicjENk-11" value="&lt;font style=&quot;font-size:14px;font-family:Calibri;color:#000000;direction:ltr;letter-spacing:0px;line-height:120%;opacity:1&quot;&gt;Q&lt;br/&gt;&lt;/font&gt;" style="verticalAlign=middle;align=center;vsdxID=11;fillColor=none;gradientColor=none;shape=stencil(nZBLDoAgDERP0z3SIyjew0SURgSD+Lu9kMZoXLhwN9O+tukAlrNpJg1SzDH4QW/URgNYgZTkjA4UkwJUgGXng+6DX1zLfmoymdXo17xh5zmRJ6Q42BWCfc2oJfdAr+Yv+AP9Cb7OJ3H/2JG1HNGz/84klThPVCc=);strokeColor=none;spacingTop=-3;spacingBottom=-3;spacingLeft=-3;spacingRight=-3;labelBackgroundColor=none;rounded=0;html=1;whiteSpace=wrap;" parent="R5z1-6jqIsE6iVicjENk-8" vertex="1">
          <mxGeometry x="38" y="5" width="10" height="10" as="geometry" />
        </mxCell>
        <mxCell id="R5z1-6jqIsE6iVicjENk-12" style="vsdxID=7;edgeStyle=none;startArrow=none;endArrow=none;startSize=5;endSize=5;strokeColor=#000000;spacingTop=0;spacingBottom=0;spacingLeft=0;spacingRight=0;verticalAlign=middle;html=1;labelBackgroundColor=#ffffff;rounded=0;" parent="R5z1-6jqIsE6iVicjENk-8" edge="1">
          <mxGeometry relative="1" as="geometry">
            <Array as="points" />
            <mxPoint x="32" y="40" as="sourcePoint" />
            <mxPoint x="36" y="32" as="targetPoint" />
          </mxGeometry>
        </mxCell>
        <mxCell id="R5z1-6jqIsE6iVicjENk-13" style="vsdxID=8;edgeStyle=none;startArrow=none;endArrow=none;startSize=5;endSize=5;strokeColor=#000000;spacingTop=0;spacingBottom=0;spacingLeft=0;spacingRight=0;verticalAlign=middle;html=1;labelBackgroundColor=#ffffff;rounded=0;" parent="R5z1-6jqIsE6iVicjENk-8" edge="1">
          <mxGeometry relative="1" as="geometry">
            <Array as="points" />
            <mxPoint x="36" y="32" as="sourcePoint" />
            <mxPoint x="40" y="40" as="targetPoint" />
          </mxGeometry>
        </mxCell>
        <mxCell id="R5z1-6jqIsE6iVicjENk-14" style="vsdxID=9;edgeStyle=none;startArrow=none;endArrow=classic;startSize=5;endSize=5;strokeColor=#000000;spacingTop=0;spacingBottom=0;spacingLeft=0;spacingRight=0;verticalAlign=middle;html=1;labelBackgroundColor=#ffffff;rounded=0;" parent="R5z1-6jqIsE6iVicjENk-8" edge="1">
          <mxGeometry relative="1" as="geometry">
            <mxPoint as="offset" />
            <Array as="points" />
            <mxPoint x="-20" y="10" as="sourcePoint" />
            <mxPoint x="20" y="10" as="targetPoint" />
          </mxGeometry>
        </mxCell>
        <mxCell id="R5z1-6jqIsE6iVicjENk-15" style="vsdxID=5;fillColor=none;gradientColor=none;strokeColor=none;labelBackgroundColor=none;rounded=0;html=1;whiteSpace=wrap;" parent="1" vertex="1">
          <mxGeometry x="510" y="40" width="50" height="40" as="geometry" />
        </mxCell>
        <mxCell id="R5z1-6jqIsE6iVicjENk-16" style="vsdxID=6;fillColor=#FFFFFF;gradientColor=none;shape=stencil(nZBLDoAgDERP0z3SIyjew0SURgSD+Lu9kMZoXLhwN9O+tukAlrNpJg1SzDH4QW/URgNYgZTkjA4UkwJUgGXng+6DX1zLfmoymdXo17xh5zmRJ6Q42BWCfc2oJfdAr+Yv+AP9Cb7OJ3H/2JG1HNGz/84klThPVCc=);strokeColor=#000000;labelBackgroundColor=none;rounded=0;html=1;whiteSpace=wrap;" parent="R5z1-6jqIsE6iVicjENk-15" vertex="1">
          <mxGeometry x="20" width="30" height="40" as="geometry" />
        </mxCell>
        <mxCell id="R5z1-6jqIsE6iVicjENk-17" value="&lt;font style=&quot;font-size:14px;font-family:Calibri;color:#000000;direction:ltr;letter-spacing:0px;line-height:120%;opacity:1&quot;&gt;D&lt;br/&gt;&lt;/font&gt;" style="verticalAlign=middle;align=center;vsdxID=10;fillColor=none;gradientColor=none;shape=stencil(nZBLDoAgDERP0z3SIyjew0SURgSD+Lu9kMZoXLhwN9O+tukAlrNpJg1SzDH4QW/URgNYgZTkjA4UkwJUgGXng+6DX1zLfmoymdXo17xh5zmRJ6Q42BWCfc2oJfdAr+Yv+AP9Cb7OJ3H/2JG1HNGz/84klThPVCc=);strokeColor=none;spacingTop=-3;spacingBottom=-3;spacingLeft=-3;spacingRight=-3;labelBackgroundColor=none;rounded=0;html=1;whiteSpace=wrap;" parent="R5z1-6jqIsE6iVicjENk-15" vertex="1">
          <mxGeometry x="22" y="5" width="10" height="10" as="geometry" />
        </mxCell>
        <mxCell id="R5z1-6jqIsE6iVicjENk-18" value="&lt;font style=&quot;font-size:14px;font-family:Calibri;color:#000000;direction:ltr;letter-spacing:0px;line-height:120%;opacity:1&quot;&gt;Q&lt;br/&gt;&lt;/font&gt;" style="verticalAlign=middle;align=center;vsdxID=11;fillColor=none;gradientColor=none;shape=stencil(nZBLDoAgDERP0z3SIyjew0SURgSD+Lu9kMZoXLhwN9O+tukAlrNpJg1SzDH4QW/URgNYgZTkjA4UkwJUgGXng+6DX1zLfmoymdXo17xh5zmRJ6Q42BWCfc2oJfdAr+Yv+AP9Cb7OJ3H/2JG1HNGz/84klThPVCc=);strokeColor=none;spacingTop=-3;spacingBottom=-3;spacingLeft=-3;spacingRight=-3;labelBackgroundColor=none;rounded=0;html=1;whiteSpace=wrap;" parent="R5z1-6jqIsE6iVicjENk-15" vertex="1">
          <mxGeometry x="38" y="5" width="10" height="10" as="geometry" />
        </mxCell>
        <mxCell id="R5z1-6jqIsE6iVicjENk-19" style="vsdxID=7;edgeStyle=none;startArrow=none;endArrow=none;startSize=5;endSize=5;strokeColor=#000000;spacingTop=0;spacingBottom=0;spacingLeft=0;spacingRight=0;verticalAlign=middle;html=1;labelBackgroundColor=#ffffff;rounded=0;" parent="R5z1-6jqIsE6iVicjENk-15" edge="1">
          <mxGeometry relative="1" as="geometry">
            <Array as="points" />
            <mxPoint x="32" y="40" as="sourcePoint" />
            <mxPoint x="36" y="32" as="targetPoint" />
          </mxGeometry>
        </mxCell>
        <mxCell id="R5z1-6jqIsE6iVicjENk-20" style="vsdxID=8;edgeStyle=none;startArrow=none;endArrow=none;startSize=5;endSize=5;strokeColor=#000000;spacingTop=0;spacingBottom=0;spacingLeft=0;spacingRight=0;verticalAlign=middle;html=1;labelBackgroundColor=#ffffff;rounded=0;" parent="R5z1-6jqIsE6iVicjENk-15" edge="1">
          <mxGeometry relative="1" as="geometry">
            <Array as="points" />
            <mxPoint x="36" y="32" as="sourcePoint" />
            <mxPoint x="40" y="40" as="targetPoint" />
          </mxGeometry>
        </mxCell>
        <mxCell id="R5z1-6jqIsE6iVicjENk-22" style="vsdxID=5;fillColor=none;gradientColor=none;strokeColor=none;labelBackgroundColor=none;rounded=0;html=1;whiteSpace=wrap;" parent="1" vertex="1">
          <mxGeometry x="510" y="100" width="50" height="40" as="geometry" />
        </mxCell>
        <mxCell id="R5z1-6jqIsE6iVicjENk-23" style="vsdxID=6;fillColor=#FFFFFF;gradientColor=none;shape=stencil(nZBLDoAgDERP0z3SIyjew0SURgSD+Lu9kMZoXLhwN9O+tukAlrNpJg1SzDH4QW/URgNYgZTkjA4UkwJUgGXng+6DX1zLfmoymdXo17xh5zmRJ6Q42BWCfc2oJfdAr+Yv+AP9Cb7OJ3H/2JG1HNGz/84klThPVCc=);strokeColor=#000000;labelBackgroundColor=none;rounded=0;html=1;whiteSpace=wrap;" parent="R5z1-6jqIsE6iVicjENk-22" vertex="1">
          <mxGeometry x="20" width="30" height="40" as="geometry" />
        </mxCell>
        <mxCell id="R5z1-6jqIsE6iVicjENk-24" value="&lt;font style=&quot;font-size:14px;font-family:Calibri;color:#000000;direction:ltr;letter-spacing:0px;line-height:120%;opacity:1&quot;&gt;D&lt;br/&gt;&lt;/font&gt;" style="verticalAlign=middle;align=center;vsdxID=10;fillColor=none;gradientColor=none;shape=stencil(nZBLDoAgDERP0z3SIyjew0SURgSD+Lu9kMZoXLhwN9O+tukAlrNpJg1SzDH4QW/URgNYgZTkjA4UkwJUgGXng+6DX1zLfmoymdXo17xh5zmRJ6Q42BWCfc2oJfdAr+Yv+AP9Cb7OJ3H/2JG1HNGz/84klThPVCc=);strokeColor=none;spacingTop=-3;spacingBottom=-3;spacingLeft=-3;spacingRight=-3;labelBackgroundColor=none;rounded=0;html=1;whiteSpace=wrap;" parent="R5z1-6jqIsE6iVicjENk-22" vertex="1">
          <mxGeometry x="22" y="5" width="10" height="10" as="geometry" />
        </mxCell>
        <mxCell id="R5z1-6jqIsE6iVicjENk-25" value="&lt;font style=&quot;font-size:14px;font-family:Calibri;color:#000000;direction:ltr;letter-spacing:0px;line-height:120%;opacity:1&quot;&gt;Q&lt;br/&gt;&lt;/font&gt;" style="verticalAlign=middle;align=center;vsdxID=11;fillColor=none;gradientColor=none;shape=stencil(nZBLDoAgDERP0z3SIyjew0SURgSD+Lu9kMZoXLhwN9O+tukAlrNpJg1SzDH4QW/URgNYgZTkjA4UkwJUgGXng+6DX1zLfmoymdXo17xh5zmRJ6Q42BWCfc2oJfdAr+Yv+AP9Cb7OJ3H/2JG1HNGz/84klThPVCc=);strokeColor=none;spacingTop=-3;spacingBottom=-3;spacingLeft=-3;spacingRight=-3;labelBackgroundColor=none;rounded=0;html=1;whiteSpace=wrap;" parent="R5z1-6jqIsE6iVicjENk-22" vertex="1">
          <mxGeometry x="38" y="5" width="10" height="10" as="geometry" />
        </mxCell>
        <mxCell id="R5z1-6jqIsE6iVicjENk-26" style="vsdxID=7;edgeStyle=none;startArrow=none;endArrow=none;startSize=5;endSize=5;strokeColor=#000000;spacingTop=0;spacingBottom=0;spacingLeft=0;spacingRight=0;verticalAlign=middle;html=1;labelBackgroundColor=#ffffff;rounded=0;" parent="R5z1-6jqIsE6iVicjENk-22" edge="1">
          <mxGeometry relative="1" as="geometry">
            <Array as="points" />
            <mxPoint x="32" y="40" as="sourcePoint" />
            <mxPoint x="36" y="32" as="targetPoint" />
          </mxGeometry>
        </mxCell>
        <mxCell id="R5z1-6jqIsE6iVicjENk-27" style="vsdxID=8;edgeStyle=none;startArrow=none;endArrow=none;startSize=5;endSize=5;strokeColor=#000000;spacingTop=0;spacingBottom=0;spacingLeft=0;spacingRight=0;verticalAlign=middle;html=1;labelBackgroundColor=#ffffff;rounded=0;" parent="R5z1-6jqIsE6iVicjENk-22" edge="1">
          <mxGeometry relative="1" as="geometry">
            <Array as="points" />
            <mxPoint x="36" y="32" as="sourcePoint" />
            <mxPoint x="40" y="40" as="targetPoint" />
          </mxGeometry>
        </mxCell>
        <mxCell id="R5z1-6jqIsE6iVicjENk-28" style="vsdxID=9;edgeStyle=none;startArrow=none;endArrow=classic;startSize=5;endSize=5;strokeColor=#000000;spacingTop=0;spacingBottom=0;spacingLeft=0;spacingRight=0;verticalAlign=middle;html=1;labelBackgroundColor=#ffffff;rounded=0;exitX=1.001;exitY=0.242;exitDx=0;exitDy=0;exitPerimeter=0;" parent="R5z1-6jqIsE6iVicjENk-22" source="R5z1-6jqIsE6iVicjENk-9" edge="1">
          <mxGeometry relative="1" as="geometry">
            <mxPoint as="offset" />
            <Array as="points" />
            <mxPoint y="10" as="sourcePoint" />
            <mxPoint x="20" y="10" as="targetPoint" />
          </mxGeometry>
        </mxCell>
        <mxCell id="R5z1-6jqIsE6iVicjENk-29" style="vsdxID=5;fillColor=none;gradientColor=none;strokeColor=none;labelBackgroundColor=none;rounded=0;html=1;whiteSpace=wrap;" parent="1" vertex="1">
          <mxGeometry x="600" y="40" width="50" height="40" as="geometry" />
        </mxCell>
        <mxCell id="R5z1-6jqIsE6iVicjENk-30" style="vsdxID=6;fillColor=#FFFFFF;gradientColor=none;shape=stencil(nZBLDoAgDERP0z3SIyjew0SURgSD+Lu9kMZoXLhwN9O+tukAlrNpJg1SzDH4QW/URgNYgZTkjA4UkwJUgGXng+6DX1zLfmoymdXo17xh5zmRJ6Q42BWCfc2oJfdAr+Yv+AP9Cb7OJ3H/2JG1HNGz/84klThPVCc=);strokeColor=#000000;labelBackgroundColor=none;rounded=0;html=1;whiteSpace=wrap;" parent="R5z1-6jqIsE6iVicjENk-29" vertex="1">
          <mxGeometry x="20" width="30" height="40" as="geometry" />
        </mxCell>
        <mxCell id="R5z1-6jqIsE6iVicjENk-31" value="&lt;font style=&quot;font-size:14px;font-family:Calibri;color:#000000;direction:ltr;letter-spacing:0px;line-height:120%;opacity:1&quot;&gt;D&lt;br/&gt;&lt;/font&gt;" style="verticalAlign=middle;align=center;vsdxID=10;fillColor=none;gradientColor=none;shape=stencil(nZBLDoAgDERP0z3SIyjew0SURgSD+Lu9kMZoXLhwN9O+tukAlrNpJg1SzDH4QW/URgNYgZTkjA4UkwJUgGXng+6DX1zLfmoymdXo17xh5zmRJ6Q42BWCfc2oJfdAr+Yv+AP9Cb7OJ3H/2JG1HNGz/84klThPVCc=);strokeColor=none;spacingTop=-3;spacingBottom=-3;spacingLeft=-3;spacingRight=-3;labelBackgroundColor=none;rounded=0;html=1;whiteSpace=wrap;" parent="R5z1-6jqIsE6iVicjENk-29" vertex="1">
          <mxGeometry x="22" y="5" width="10" height="10" as="geometry" />
        </mxCell>
        <mxCell id="R5z1-6jqIsE6iVicjENk-32" value="&lt;font style=&quot;font-size:14px;font-family:Calibri;color:#000000;direction:ltr;letter-spacing:0px;line-height:120%;opacity:1&quot;&gt;Q&lt;br/&gt;&lt;/font&gt;" style="verticalAlign=middle;align=center;vsdxID=11;fillColor=none;gradientColor=none;shape=stencil(nZBLDoAgDERP0z3SIyjew0SURgSD+Lu9kMZoXLhwN9O+tukAlrNpJg1SzDH4QW/URgNYgZTkjA4UkwJUgGXng+6DX1zLfmoymdXo17xh5zmRJ6Q42BWCfc2oJfdAr+Yv+AP9Cb7OJ3H/2JG1HNGz/84klThPVCc=);strokeColor=none;spacingTop=-3;spacingBottom=-3;spacingLeft=-3;spacingRight=-3;labelBackgroundColor=none;rounded=0;html=1;whiteSpace=wrap;" parent="R5z1-6jqIsE6iVicjENk-29" vertex="1">
          <mxGeometry x="38" y="5" width="10" height="10" as="geometry" />
        </mxCell>
        <mxCell id="R5z1-6jqIsE6iVicjENk-33" style="vsdxID=7;edgeStyle=none;startArrow=none;endArrow=none;startSize=5;endSize=5;strokeColor=#000000;spacingTop=0;spacingBottom=0;spacingLeft=0;spacingRight=0;verticalAlign=middle;html=1;labelBackgroundColor=#ffffff;rounded=0;" parent="R5z1-6jqIsE6iVicjENk-29" edge="1">
          <mxGeometry relative="1" as="geometry">
            <Array as="points" />
            <mxPoint x="32" y="40" as="sourcePoint" />
            <mxPoint x="36" y="32" as="targetPoint" />
          </mxGeometry>
        </mxCell>
        <mxCell id="R5z1-6jqIsE6iVicjENk-34" style="vsdxID=8;edgeStyle=none;startArrow=none;endArrow=none;startSize=5;endSize=5;strokeColor=#000000;spacingTop=0;spacingBottom=0;spacingLeft=0;spacingRight=0;verticalAlign=middle;html=1;labelBackgroundColor=#ffffff;rounded=0;" parent="R5z1-6jqIsE6iVicjENk-29" edge="1">
          <mxGeometry relative="1" as="geometry">
            <Array as="points" />
            <mxPoint x="36" y="32" as="sourcePoint" />
            <mxPoint x="40" y="40" as="targetPoint" />
          </mxGeometry>
        </mxCell>
        <mxCell id="R5z1-6jqIsE6iVicjENk-35" style="vsdxID=9;edgeStyle=none;startArrow=none;endArrow=classic;startSize=5;endSize=5;strokeColor=#000000;spacingTop=0;spacingBottom=0;spacingLeft=0;spacingRight=0;verticalAlign=middle;html=1;labelBackgroundColor=#ffffff;rounded=0;exitX=1.008;exitY=0.249;exitDx=0;exitDy=0;exitPerimeter=0;" parent="R5z1-6jqIsE6iVicjENk-29" source="R5z1-6jqIsE6iVicjENk-16" edge="1">
          <mxGeometry relative="1" as="geometry">
            <mxPoint as="offset" />
            <Array as="points" />
            <mxPoint y="10" as="sourcePoint" />
            <mxPoint x="20" y="10" as="targetPoint" />
          </mxGeometry>
        </mxCell>
        <mxCell id="R5z1-6jqIsE6iVicjENk-36" style="vsdxID=5;fillColor=none;gradientColor=none;strokeColor=none;labelBackgroundColor=none;rounded=0;html=1;whiteSpace=wrap;" parent="1" vertex="1">
          <mxGeometry x="600" y="100" width="50" height="40" as="geometry" />
        </mxCell>
        <mxCell id="R5z1-6jqIsE6iVicjENk-37" style="vsdxID=6;fillColor=#FFFFFF;gradientColor=none;shape=stencil(nZBLDoAgDERP0z3SIyjew0SURgSD+Lu9kMZoXLhwN9O+tukAlrNpJg1SzDH4QW/URgNYgZTkjA4UkwJUgGXng+6DX1zLfmoymdXo17xh5zmRJ6Q42BWCfc2oJfdAr+Yv+AP9Cb7OJ3H/2JG1HNGz/84klThPVCc=);strokeColor=#000000;labelBackgroundColor=none;rounded=0;html=1;whiteSpace=wrap;" parent="R5z1-6jqIsE6iVicjENk-36" vertex="1">
          <mxGeometry x="20" width="30" height="40" as="geometry" />
        </mxCell>
        <mxCell id="R5z1-6jqIsE6iVicjENk-38" value="&lt;font style=&quot;font-size:14px;font-family:Calibri;color:#000000;direction:ltr;letter-spacing:0px;line-height:120%;opacity:1&quot;&gt;D&lt;br/&gt;&lt;/font&gt;" style="verticalAlign=middle;align=center;vsdxID=10;fillColor=none;gradientColor=none;shape=stencil(nZBLDoAgDERP0z3SIyjew0SURgSD+Lu9kMZoXLhwN9O+tukAlrNpJg1SzDH4QW/URgNYgZTkjA4UkwJUgGXng+6DX1zLfmoymdXo17xh5zmRJ6Q42BWCfc2oJfdAr+Yv+AP9Cb7OJ3H/2JG1HNGz/84klThPVCc=);strokeColor=none;spacingTop=-3;spacingBottom=-3;spacingLeft=-3;spacingRight=-3;labelBackgroundColor=none;rounded=0;html=1;whiteSpace=wrap;" parent="R5z1-6jqIsE6iVicjENk-36" vertex="1">
          <mxGeometry x="22" y="5" width="10" height="10" as="geometry" />
        </mxCell>
        <mxCell id="R5z1-6jqIsE6iVicjENk-39" value="&lt;font style=&quot;font-size:14px;font-family:Calibri;color:#000000;direction:ltr;letter-spacing:0px;line-height:120%;opacity:1&quot;&gt;Q&lt;br/&gt;&lt;/font&gt;" style="verticalAlign=middle;align=center;vsdxID=11;fillColor=none;gradientColor=none;shape=stencil(nZBLDoAgDERP0z3SIyjew0SURgSD+Lu9kMZoXLhwN9O+tukAlrNpJg1SzDH4QW/URgNYgZTkjA4UkwJUgGXng+6DX1zLfmoymdXo17xh5zmRJ6Q42BWCfc2oJfdAr+Yv+AP9Cb7OJ3H/2JG1HNGz/84klThPVCc=);strokeColor=none;spacingTop=-3;spacingBottom=-3;spacingLeft=-3;spacingRight=-3;labelBackgroundColor=none;rounded=0;html=1;whiteSpace=wrap;" parent="R5z1-6jqIsE6iVicjENk-36" vertex="1">
          <mxGeometry x="38" y="5" width="10" height="10" as="geometry" />
        </mxCell>
        <mxCell id="R5z1-6jqIsE6iVicjENk-40" style="vsdxID=7;edgeStyle=none;startArrow=none;endArrow=none;startSize=5;endSize=5;strokeColor=#000000;spacingTop=0;spacingBottom=0;spacingLeft=0;spacingRight=0;verticalAlign=middle;html=1;labelBackgroundColor=#ffffff;rounded=0;" parent="R5z1-6jqIsE6iVicjENk-36" edge="1">
          <mxGeometry relative="1" as="geometry">
            <Array as="points" />
            <mxPoint x="32" y="40" as="sourcePoint" />
            <mxPoint x="36" y="32" as="targetPoint" />
          </mxGeometry>
        </mxCell>
        <mxCell id="R5z1-6jqIsE6iVicjENk-41" style="vsdxID=8;edgeStyle=none;startArrow=none;endArrow=none;startSize=5;endSize=5;strokeColor=#000000;spacingTop=0;spacingBottom=0;spacingLeft=0;spacingRight=0;verticalAlign=middle;html=1;labelBackgroundColor=#ffffff;rounded=0;" parent="R5z1-6jqIsE6iVicjENk-36" edge="1">
          <mxGeometry relative="1" as="geometry">
            <Array as="points" />
            <mxPoint x="36" y="32" as="sourcePoint" />
            <mxPoint x="40" y="40" as="targetPoint" />
          </mxGeometry>
        </mxCell>
        <mxCell id="R5z1-6jqIsE6iVicjENk-42" style="vsdxID=9;edgeStyle=none;startArrow=none;endArrow=classic;startSize=5;endSize=5;strokeColor=#000000;spacingTop=0;spacingBottom=0;spacingLeft=0;spacingRight=0;verticalAlign=middle;html=1;labelBackgroundColor=#ffffff;rounded=0;exitX=0.981;exitY=0.249;exitDx=0;exitDy=0;exitPerimeter=0;" parent="R5z1-6jqIsE6iVicjENk-36" source="R5z1-6jqIsE6iVicjENk-23" edge="1">
          <mxGeometry relative="1" as="geometry">
            <mxPoint as="offset" />
            <Array as="points" />
            <mxPoint y="10" as="sourcePoint" />
            <mxPoint x="20" y="10" as="targetPoint" />
          </mxGeometry>
        </mxCell>
        <mxCell id="R5z1-6jqIsE6iVicjENk-21" style="vsdxID=9;edgeStyle=none;startArrow=none;endArrow=classic;startSize=5;endSize=5;strokeColor=#000000;spacingTop=0;spacingBottom=0;spacingLeft=0;spacingRight=0;verticalAlign=middle;html=1;labelBackgroundColor=#ffffff;rounded=0;exitX=1;exitY=0.25;exitDx=0;exitDy=0;exitPerimeter=0;" parent="1" source="R5z1-6jqIsE6iVicjENk-2" edge="1">
          <mxGeometry relative="1" as="geometry">
            <mxPoint as="offset" />
            <Array as="points" />
            <mxPoint x="480" y="50" as="sourcePoint" />
            <mxPoint x="530" y="50" as="targetPoint" />
          </mxGeometry>
        </mxCell>
        <mxCell id="R5z1-6jqIsE6iVicjENk-44" value="" style="endArrow=classic;html=1;rounded=0;" parent="1" edge="1">
          <mxGeometry width="50" height="50" relative="1" as="geometry">
            <mxPoint x="650" y="50" as="sourcePoint" />
            <mxPoint x="690" y="50" as="targetPoint" />
          </mxGeometry>
        </mxCell>
        <mxCell id="R5z1-6jqIsE6iVicjENk-45" value="" style="endArrow=classic;html=1;rounded=0;" parent="1" edge="1">
          <mxGeometry width="50" height="50" relative="1" as="geometry">
            <mxPoint x="650" y="110" as="sourcePoint" />
            <mxPoint x="690" y="110" as="targetPoint" />
          </mxGeometry>
        </mxCell>
        <mxCell id="R5z1-6jqIsE6iVicjENk-46" value="In_Data" style="text;html=1;align=right;verticalAlign=middle;whiteSpace=wrap;rounded=0;" parent="1" vertex="1">
          <mxGeometry x="340" y="100" width="60" height="20" as="geometry" />
        </mxCell>
        <mxCell id="R5z1-6jqIsE6iVicjENk-93" value="" style="endArrow=classic;html=1;rounded=0;entryX=1;entryY=0.5;entryDx=0;entryDy=0;" parent="1" edge="1">
          <mxGeometry width="50" height="50" relative="1" as="geometry">
            <mxPoint x="600" y="890" as="sourcePoint" />
            <mxPoint x="580" y="890" as="targetPoint" />
          </mxGeometry>
        </mxCell>
        <mxCell id="R5z1-6jqIsE6iVicjENk-101" style="vsdxID=5;fillColor=none;gradientColor=none;strokeColor=none;labelBackgroundColor=none;rounded=0;html=1;whiteSpace=wrap;flipH=1;" parent="1" vertex="1">
          <mxGeometry x="230" y="870" width="50" height="40" as="geometry" />
        </mxCell>
        <mxCell id="R5z1-6jqIsE6iVicjENk-102" style="vsdxID=6;fillColor=#FFFFFF;gradientColor=none;shape=stencil(nZBLDoAgDERP0z3SIyjew0SURgSD+Lu9kMZoXLhwN9O+tukAlrNpJg1SzDH4QW/URgNYgZTkjA4UkwJUgGXng+6DX1zLfmoymdXo17xh5zmRJ6Q42BWCfc2oJfdAr+Yv+AP9Cb7OJ3H/2JG1HNGz/84klThPVCc=);strokeColor=#000000;labelBackgroundColor=none;rounded=0;html=1;whiteSpace=wrap;" parent="R5z1-6jqIsE6iVicjENk-101" vertex="1">
          <mxGeometry width="30" height="40" as="geometry" />
        </mxCell>
        <mxCell id="R5z1-6jqIsE6iVicjENk-103" value="&lt;font style=&quot;font-size:14px;font-family:Calibri;color:#000000;direction:ltr;letter-spacing:0px;line-height:120%;opacity:1&quot;&gt;D&lt;br/&gt;&lt;/font&gt;" style="verticalAlign=middle;align=center;vsdxID=10;fillColor=none;gradientColor=none;shape=stencil(nZBLDoAgDERP0z3SIyjew0SURgSD+Lu9kMZoXLhwN9O+tukAlrNpJg1SzDH4QW/URgNYgZTkjA4UkwJUgGXng+6DX1zLfmoymdXo17xh5zmRJ6Q42BWCfc2oJfdAr+Yv+AP9Cb7OJ3H/2JG1HNGz/84klThPVCc=);strokeColor=none;spacingTop=-3;spacingBottom=-3;spacingLeft=-3;spacingRight=-3;labelBackgroundColor=none;rounded=0;html=1;whiteSpace=wrap;" parent="R5z1-6jqIsE6iVicjENk-101" vertex="1">
          <mxGeometry x="18" y="5" width="10" height="10" as="geometry" />
        </mxCell>
        <mxCell id="R5z1-6jqIsE6iVicjENk-104" value="&lt;font style=&quot;font-size:14px;font-family:Calibri;color:#000000;direction:ltr;letter-spacing:0px;line-height:120%;opacity:1&quot;&gt;Q&lt;br/&gt;&lt;/font&gt;" style="verticalAlign=middle;align=center;vsdxID=11;fillColor=none;gradientColor=none;shape=stencil(nZBLDoAgDERP0z3SIyjew0SURgSD+Lu9kMZoXLhwN9O+tukAlrNpJg1SzDH4QW/URgNYgZTkjA4UkwJUgGXng+6DX1zLfmoymdXo17xh5zmRJ6Q42BWCfc2oJfdAr+Yv+AP9Cb7OJ3H/2JG1HNGz/84klThPVCc=);strokeColor=none;spacingTop=-3;spacingBottom=-3;spacingLeft=-3;spacingRight=-3;labelBackgroundColor=none;rounded=0;html=1;whiteSpace=wrap;" parent="R5z1-6jqIsE6iVicjENk-101" vertex="1">
          <mxGeometry x="2" y="5" width="10" height="10" as="geometry" />
        </mxCell>
        <mxCell id="R5z1-6jqIsE6iVicjENk-105" style="vsdxID=7;edgeStyle=none;startArrow=none;endArrow=none;startSize=5;endSize=5;strokeColor=#000000;spacingTop=0;spacingBottom=0;spacingLeft=0;spacingRight=0;verticalAlign=middle;html=1;labelBackgroundColor=#ffffff;rounded=0;" parent="R5z1-6jqIsE6iVicjENk-101" edge="1">
          <mxGeometry relative="1" as="geometry">
            <Array as="points" />
            <mxPoint x="18" y="40" as="sourcePoint" />
            <mxPoint x="14" y="32" as="targetPoint" />
          </mxGeometry>
        </mxCell>
        <mxCell id="R5z1-6jqIsE6iVicjENk-106" style="vsdxID=8;edgeStyle=none;startArrow=none;endArrow=none;startSize=5;endSize=5;strokeColor=#000000;spacingTop=0;spacingBottom=0;spacingLeft=0;spacingRight=0;verticalAlign=middle;html=1;labelBackgroundColor=#ffffff;rounded=0;" parent="R5z1-6jqIsE6iVicjENk-101" edge="1">
          <mxGeometry relative="1" as="geometry">
            <Array as="points" />
            <mxPoint x="14" y="32" as="sourcePoint" />
            <mxPoint x="10" y="40" as="targetPoint" />
          </mxGeometry>
        </mxCell>
        <mxCell id="R5z1-6jqIsE6iVicjENk-107" style="vsdxID=9;edgeStyle=none;startArrow=none;endArrow=classic;startSize=5;endSize=5;strokeColor=#000000;spacingTop=0;spacingBottom=0;spacingLeft=0;spacingRight=0;verticalAlign=middle;html=1;labelBackgroundColor=#ffffff;rounded=0;" parent="R5z1-6jqIsE6iVicjENk-101" edge="1">
          <mxGeometry relative="1" as="geometry">
            <mxPoint as="offset" />
            <Array as="points" />
            <mxPoint x="50" y="10" as="sourcePoint" />
            <mxPoint x="30" y="10" as="targetPoint" />
          </mxGeometry>
        </mxCell>
        <mxCell id="R5z1-6jqIsE6iVicjENk-108" value="" style="endArrow=classic;html=1;rounded=0;" parent="1" edge="1">
          <mxGeometry width="50" height="50" relative="1" as="geometry">
            <mxPoint x="230" y="879.76" as="sourcePoint" />
            <mxPoint x="200" y="879.76" as="targetPoint" />
          </mxGeometry>
        </mxCell>
        <mxCell id="R5z1-6jqIsE6iVicjENk-128" value="Out_Valid" style="text;html=1;align=left;verticalAlign=middle;whiteSpace=wrap;rounded=0;" parent="1" vertex="1">
          <mxGeometry x="600" y="770" width="60" height="20" as="geometry" />
        </mxCell>
        <mxCell id="R5z1-6jqIsE6iVicjENk-129" value="Out_Data" style="text;html=1;align=left;verticalAlign=middle;whiteSpace=wrap;rounded=0;" parent="1" vertex="1">
          <mxGeometry x="600" y="670" width="60" height="20" as="geometry" />
        </mxCell>
        <mxCell id="R5z1-6jqIsE6iVicjENk-130" value="Out_Ready" style="text;html=1;align=left;verticalAlign=middle;whiteSpace=wrap;rounded=0;" parent="1" vertex="1">
          <mxGeometry x="600" y="880" width="60" height="20" as="geometry" />
        </mxCell>
        <mxCell id="R5z1-6jqIsE6iVicjENk-132" value="In_Data" style="text;html=1;align=right;verticalAlign=middle;whiteSpace=wrap;rounded=0;" parent="1" vertex="1">
          <mxGeometry x="140" y="660" width="60" height="20" as="geometry" />
        </mxCell>
        <mxCell id="R5z1-6jqIsE6iVicjENk-134" value="In_Ready" style="text;html=1;align=right;verticalAlign=middle;whiteSpace=wrap;rounded=0;" parent="1" vertex="1">
          <mxGeometry x="140" y="870" width="60" height="20" as="geometry" />
        </mxCell>
        <mxCell id="R5z1-6jqIsE6iVicjENk-144" value="Ready Logic" style="rounded=1;whiteSpace=wrap;html=1;fillColor=#f5f5f5;fontColor=#333333;strokeColor=#666666;" parent="1" vertex="1">
          <mxGeometry x="280" y="860" width="300" height="60" as="geometry" />
        </mxCell>
        <mxCell id="R5z1-6jqIsE6iVicjENk-145" style="vsdxID=5;fillColor=none;gradientColor=none;strokeColor=none;labelBackgroundColor=none;rounded=0;html=1;whiteSpace=wrap;" parent="1" vertex="1">
          <mxGeometry x="350.65" y="780" width="50" height="50" as="geometry" />
        </mxCell>
        <mxCell id="R5z1-6jqIsE6iVicjENk-146" style="vsdxID=6;fillColor=#f8cecc;shape=stencil(nZBLDoAgDERP0z3SIyjew0SURgSD+Lu9kMZoXLhwN9O+tukAlrNpJg1SzDH4QW/URgNYgZTkjA4UkwJUgGXng+6DX1zLfmoymdXo17xh5zmRJ6Q42BWCfc2oJfdAr+Yv+AP9Cb7OJ3H/2JG1HNGz/84klThPVCc=);strokeColor=#b85450;labelBackgroundColor=none;rounded=0;html=1;whiteSpace=wrap;" parent="R5z1-6jqIsE6iVicjENk-145" vertex="1">
          <mxGeometry x="20" width="30" height="50" as="geometry" />
        </mxCell>
        <mxCell id="R5z1-6jqIsE6iVicjENk-147" value="&lt;font style=&quot;font-size:14px;font-family:Calibri;color:#000000;direction:ltr;letter-spacing:0px;line-height:120%;opacity:1&quot;&gt;D&lt;br/&gt;&lt;/font&gt;" style="verticalAlign=middle;align=center;vsdxID=10;fillColor=none;gradientColor=none;shape=stencil(nZBLDoAgDERP0z3SIyjew0SURgSD+Lu9kMZoXLhwN9O+tukAlrNpJg1SzDH4QW/URgNYgZTkjA4UkwJUgGXng+6DX1zLfmoymdXo17xh5zmRJ6Q42BWCfc2oJfdAr+Yv+AP9Cb7OJ3H/2JG1HNGz/84klThPVCc=);strokeColor=none;spacingTop=-3;spacingBottom=-3;spacingLeft=-3;spacingRight=-3;labelBackgroundColor=none;rounded=0;html=1;whiteSpace=wrap;" parent="R5z1-6jqIsE6iVicjENk-145" vertex="1">
          <mxGeometry x="22" y="5" width="10" height="10" as="geometry" />
        </mxCell>
        <mxCell id="R5z1-6jqIsE6iVicjENk-148" value="&lt;font style=&quot;font-size:14px;font-family:Calibri;color:#000000;direction:ltr;letter-spacing:0px;line-height:120%;opacity:1&quot;&gt;Q&lt;br/&gt;&lt;/font&gt;" style="verticalAlign=middle;align=center;vsdxID=11;fillColor=none;gradientColor=none;shape=stencil(nZBLDoAgDERP0z3SIyjew0SURgSD+Lu9kMZoXLhwN9O+tukAlrNpJg1SzDH4QW/URgNYgZTkjA4UkwJUgGXng+6DX1zLfmoymdXo17xh5zmRJ6Q42BWCfc2oJfdAr+Yv+AP9Cb7OJ3H/2JG1HNGz/84klThPVCc=);strokeColor=none;spacingTop=-3;spacingBottom=-3;spacingLeft=-3;spacingRight=-3;labelBackgroundColor=none;rounded=0;html=1;whiteSpace=wrap;" parent="R5z1-6jqIsE6iVicjENk-145" vertex="1">
          <mxGeometry x="38" y="5" width="10" height="10" as="geometry" />
        </mxCell>
        <mxCell id="R5z1-6jqIsE6iVicjENk-149" value="&lt;font style=&quot;font-size:14px;font-family:Calibri;color:#000000;direction:ltr;letter-spacing:0px;line-height:120%;opacity:1&quot;&gt;E&lt;br/&gt;&lt;/font&gt;" style="verticalAlign=middle;align=center;vsdxID=12;fillColor=none;gradientColor=none;shape=stencil(nZBLDoAgDERP0z3SIyjew0SURgSD+Lu9kMZoXLhwN9O+tukAlrNpJg1SzDH4QW/URgNYgZTkjA4UkwJUgGXng+6DX1zLfmoymdXo17xh5zmRJ6Q42BWCfc2oJfdAr+Yv+AP9Cb7OJ3H/2JG1HNGz/84klThPVCc=);strokeColor=none;spacingTop=-3;spacingBottom=-3;spacingLeft=-3;spacingRight=-3;labelBackgroundColor=none;rounded=0;html=1;whiteSpace=wrap;" parent="R5z1-6jqIsE6iVicjENk-145" vertex="1">
          <mxGeometry x="22" y="25" width="10" height="10" as="geometry" />
        </mxCell>
        <mxCell id="R5z1-6jqIsE6iVicjENk-150" style="vsdxID=7;edgeStyle=none;startArrow=none;endArrow=none;startSize=5;endSize=5;strokeColor=#000000;spacingTop=0;spacingBottom=0;spacingLeft=0;spacingRight=0;verticalAlign=middle;html=1;labelBackgroundColor=#ffffff;rounded=0;" parent="R5z1-6jqIsE6iVicjENk-145" edge="1">
          <mxGeometry relative="1" as="geometry">
            <Array as="points" />
            <mxPoint x="32" y="50" as="sourcePoint" />
            <mxPoint x="36" y="42" as="targetPoint" />
          </mxGeometry>
        </mxCell>
        <mxCell id="R5z1-6jqIsE6iVicjENk-151" style="vsdxID=8;edgeStyle=none;startArrow=none;endArrow=none;startSize=5;endSize=5;strokeColor=#000000;spacingTop=0;spacingBottom=0;spacingLeft=0;spacingRight=0;verticalAlign=middle;html=1;labelBackgroundColor=#ffffff;rounded=0;" parent="R5z1-6jqIsE6iVicjENk-145" edge="1">
          <mxGeometry relative="1" as="geometry">
            <Array as="points" />
            <mxPoint x="36" y="42" as="sourcePoint" />
            <mxPoint x="40" y="50" as="targetPoint" />
          </mxGeometry>
        </mxCell>
        <mxCell id="R5z1-6jqIsE6iVicjENk-152" style="vsdxID=9;edgeStyle=none;startArrow=none;endArrow=classic;startSize=5;endSize=5;strokeColor=#000000;spacingTop=0;spacingBottom=0;spacingLeft=0;spacingRight=0;verticalAlign=middle;html=1;labelBackgroundColor=#ffffff;rounded=0;" parent="R5z1-6jqIsE6iVicjENk-145" edge="1">
          <mxGeometry relative="1" as="geometry">
            <mxPoint as="offset" />
            <Array as="points" />
            <mxPoint y="10" as="sourcePoint" />
            <mxPoint x="20" y="10" as="targetPoint" />
          </mxGeometry>
        </mxCell>
        <mxCell id="R5z1-6jqIsE6iVicjENk-153" style="vsdxID=13;edgeStyle=none;startArrow=none;endArrow=classic;startSize=5;endSize=5;strokeColor=#000000;spacingTop=0;spacingBottom=0;spacingLeft=0;spacingRight=0;verticalAlign=middle;html=1;labelBackgroundColor=#ffffff;rounded=0;" parent="R5z1-6jqIsE6iVicjENk-145" edge="1">
          <mxGeometry relative="1" as="geometry">
            <mxPoint as="offset" />
            <Array as="points" />
            <mxPoint y="30" as="sourcePoint" />
            <mxPoint x="20" y="30" as="targetPoint" />
          </mxGeometry>
        </mxCell>
        <mxCell id="R5z1-6jqIsE6iVicjENk-154" style="vsdxID=5;fillColor=none;gradientColor=none;strokeColor=none;labelBackgroundColor=none;rounded=0;html=1;whiteSpace=wrap;" parent="1" vertex="1">
          <mxGeometry x="490" y="770" width="50" height="50" as="geometry" />
        </mxCell>
        <mxCell id="R5z1-6jqIsE6iVicjENk-155" style="vsdxID=6;fillColor=#dae8fc;shape=stencil(nZBLDoAgDERP0z3SIyjew0SURgSD+Lu9kMZoXLhwN9O+tukAlrNpJg1SzDH4QW/URgNYgZTkjA4UkwJUgGXng+6DX1zLfmoymdXo17xh5zmRJ6Q42BWCfc2oJfdAr+Yv+AP9Cb7OJ3H/2JG1HNGz/84klThPVCc=);strokeColor=#6c8ebf;labelBackgroundColor=none;rounded=0;html=1;whiteSpace=wrap;" parent="R5z1-6jqIsE6iVicjENk-154" vertex="1">
          <mxGeometry x="20" width="30" height="50" as="geometry" />
        </mxCell>
        <mxCell id="R5z1-6jqIsE6iVicjENk-156" value="&lt;font style=&quot;font-size:14px;font-family:Calibri;color:#000000;direction:ltr;letter-spacing:0px;line-height:120%;opacity:1&quot;&gt;D&lt;br/&gt;&lt;/font&gt;" style="verticalAlign=middle;align=center;vsdxID=10;fillColor=none;gradientColor=none;shape=stencil(nZBLDoAgDERP0z3SIyjew0SURgSD+Lu9kMZoXLhwN9O+tukAlrNpJg1SzDH4QW/URgNYgZTkjA4UkwJUgGXng+6DX1zLfmoymdXo17xh5zmRJ6Q42BWCfc2oJfdAr+Yv+AP9Cb7OJ3H/2JG1HNGz/84klThPVCc=);strokeColor=none;spacingTop=-3;spacingBottom=-3;spacingLeft=-3;spacingRight=-3;labelBackgroundColor=none;rounded=0;html=1;whiteSpace=wrap;" parent="R5z1-6jqIsE6iVicjENk-154" vertex="1">
          <mxGeometry x="22" y="5" width="10" height="10" as="geometry" />
        </mxCell>
        <mxCell id="R5z1-6jqIsE6iVicjENk-157" value="&lt;font style=&quot;font-size:14px;font-family:Calibri;color:#000000;direction:ltr;letter-spacing:0px;line-height:120%;opacity:1&quot;&gt;Q&lt;br/&gt;&lt;/font&gt;" style="verticalAlign=middle;align=center;vsdxID=11;fillColor=none;gradientColor=none;shape=stencil(nZBLDoAgDERP0z3SIyjew0SURgSD+Lu9kMZoXLhwN9O+tukAlrNpJg1SzDH4QW/URgNYgZTkjA4UkwJUgGXng+6DX1zLfmoymdXo17xh5zmRJ6Q42BWCfc2oJfdAr+Yv+AP9Cb7OJ3H/2JG1HNGz/84klThPVCc=);strokeColor=none;spacingTop=-3;spacingBottom=-3;spacingLeft=-3;spacingRight=-3;labelBackgroundColor=none;rounded=0;html=1;whiteSpace=wrap;" parent="R5z1-6jqIsE6iVicjENk-154" vertex="1">
          <mxGeometry x="38" y="5" width="10" height="10" as="geometry" />
        </mxCell>
        <mxCell id="R5z1-6jqIsE6iVicjENk-158" value="&lt;font style=&quot;font-size:14px;font-family:Calibri;color:#000000;direction:ltr;letter-spacing:0px;line-height:120%;opacity:1&quot;&gt;E&lt;br/&gt;&lt;/font&gt;" style="verticalAlign=middle;align=center;vsdxID=12;fillColor=none;gradientColor=none;shape=stencil(nZBLDoAgDERP0z3SIyjew0SURgSD+Lu9kMZoXLhwN9O+tukAlrNpJg1SzDH4QW/URgNYgZTkjA4UkwJUgGXng+6DX1zLfmoymdXo17xh5zmRJ6Q42BWCfc2oJfdAr+Yv+AP9Cb7OJ3H/2JG1HNGz/84klThPVCc=);strokeColor=none;spacingTop=-3;spacingBottom=-3;spacingLeft=-3;spacingRight=-3;labelBackgroundColor=none;rounded=0;html=1;whiteSpace=wrap;" parent="R5z1-6jqIsE6iVicjENk-154" vertex="1">
          <mxGeometry x="22" y="25" width="10" height="10" as="geometry" />
        </mxCell>
        <mxCell id="R5z1-6jqIsE6iVicjENk-159" style="vsdxID=7;edgeStyle=none;startArrow=none;endArrow=none;startSize=5;endSize=5;strokeColor=#000000;spacingTop=0;spacingBottom=0;spacingLeft=0;spacingRight=0;verticalAlign=middle;html=1;labelBackgroundColor=#ffffff;rounded=0;" parent="R5z1-6jqIsE6iVicjENk-154" edge="1">
          <mxGeometry relative="1" as="geometry">
            <Array as="points" />
            <mxPoint x="32" y="50" as="sourcePoint" />
            <mxPoint x="36" y="42" as="targetPoint" />
          </mxGeometry>
        </mxCell>
        <mxCell id="R5z1-6jqIsE6iVicjENk-160" style="vsdxID=8;edgeStyle=none;startArrow=none;endArrow=none;startSize=5;endSize=5;strokeColor=#000000;spacingTop=0;spacingBottom=0;spacingLeft=0;spacingRight=0;verticalAlign=middle;html=1;labelBackgroundColor=#ffffff;rounded=0;" parent="R5z1-6jqIsE6iVicjENk-154" edge="1">
          <mxGeometry relative="1" as="geometry">
            <Array as="points" />
            <mxPoint x="36" y="42" as="sourcePoint" />
            <mxPoint x="40" y="50" as="targetPoint" />
          </mxGeometry>
        </mxCell>
        <mxCell id="R5z1-6jqIsE6iVicjENk-161" style="vsdxID=9;edgeStyle=none;startArrow=none;endArrow=classic;startSize=5;endSize=5;strokeColor=#000000;spacingTop=0;spacingBottom=0;spacingLeft=0;spacingRight=0;verticalAlign=middle;html=1;labelBackgroundColor=#ffffff;rounded=0;" parent="R5z1-6jqIsE6iVicjENk-154" edge="1">
          <mxGeometry relative="1" as="geometry">
            <mxPoint as="offset" />
            <Array as="points" />
            <mxPoint y="10" as="sourcePoint" />
            <mxPoint x="20" y="10" as="targetPoint" />
          </mxGeometry>
        </mxCell>
        <mxCell id="R5z1-6jqIsE6iVicjENk-162" style="vsdxID=13;edgeStyle=none;startArrow=none;endArrow=classic;startSize=5;endSize=5;strokeColor=#000000;spacingTop=0;spacingBottom=0;spacingLeft=0;spacingRight=0;verticalAlign=middle;html=1;labelBackgroundColor=#ffffff;rounded=0;" parent="R5z1-6jqIsE6iVicjENk-154" edge="1">
          <mxGeometry relative="1" as="geometry">
            <mxPoint as="offset" />
            <Array as="points" />
            <mxPoint y="30" as="sourcePoint" />
            <mxPoint x="20" y="30" as="targetPoint" />
          </mxGeometry>
        </mxCell>
        <mxCell id="R5z1-6jqIsE6iVicjENk-163" style="vsdxID=5;fillColor=none;gradientColor=none;strokeColor=none;labelBackgroundColor=none;rounded=0;html=1;whiteSpace=wrap;" parent="1" vertex="1">
          <mxGeometry x="420" y="760" width="40" height="40" as="geometry" />
        </mxCell>
        <mxCell id="R5z1-6jqIsE6iVicjENk-164" style="vsdxID=8;fillColor=#ffffff;gradientColor=none;shape=stencil(UzV2Ls5ILEhVNTIoLinKz04tz0wpyVA1dlE1MsrMy0gtyiwBslSNXVWNndPyi1LTi/JL81Ig/IJEkEoQKze/DGRCBUSfoYEBSI+RQSWEb24K5rpB1OZk5uFRa4RHLapKA2IVwqwgyn5UtwIZCE+mZebkQMIIWR49UIBCkAA1dgUA);strokeColor=#000000;labelBackgroundColor=#ffffff;rounded=0;html=1;whiteSpace=wrap;" parent="R5z1-6jqIsE6iVicjENk-163" vertex="1">
          <mxGeometry x="20" width="20" height="40" as="geometry" />
        </mxCell>
        <mxCell id="R5z1-6jqIsE6iVicjENk-165" value="&lt;font style=&quot;font-size:11px;font-family:Calibri;color:#000000;direction:ltr;letter-spacing:0px;line-height:120%;opacity:1&quot;&gt;0&lt;br/&gt;&lt;/font&gt;" style="verticalAlign=middle;align=center;vsdxID=9;fillColor=none;gradientColor=none;shape=stencil(nZBLDoAgDERP0z3SIyjew0SURgSD+Lu9kMZoXLhwN9O+tukAlrNpJg1SzDH4QW/URgNYgZTkjA4UkwJUgGXng+6DX1zLfmoymdXo17xh5zmRJ6Q42BWCfc2oJfdAr+Yv+AP9Cb7OJ3H/2JG1HNGz/84klThPVCc=);strokeColor=none;spacingTop=-3;spacingBottom=-3;spacingLeft=-3;spacingRight=-3;labelBackgroundColor=none;rounded=0;html=1;whiteSpace=wrap;" parent="R5z1-6jqIsE6iVicjENk-163" vertex="1">
          <mxGeometry x="20" y="5" width="10" height="10" as="geometry" />
        </mxCell>
        <mxCell id="R5z1-6jqIsE6iVicjENk-166" value="&lt;font style=&quot;font-size:11px;font-family:Calibri;color:#000000;direction:ltr;letter-spacing:0px;line-height:120%;opacity:1&quot;&gt;1&lt;br/&gt;&lt;/font&gt;" style="verticalAlign=middle;align=center;vsdxID=10;fillColor=none;gradientColor=none;shape=stencil(nZBLDoAgDERP0z3SIyjew0SURgSD+Lu9kMZoXLhwN9O+tukAlrNpJg1SzDH4QW/URgNYgZTkjA4UkwJUgGXng+6DX1zLfmoymdXo17xh5zmRJ6Q42BWCfc2oJfdAr+Yv+AP9Cb7OJ3H/2JG1HNGz/84klThPVCc=);strokeColor=none;spacingTop=-3;spacingBottom=-3;spacingLeft=-3;spacingRight=-3;labelBackgroundColor=none;rounded=0;html=1;whiteSpace=wrap;" parent="R5z1-6jqIsE6iVicjENk-163" vertex="1">
          <mxGeometry x="20" y="25" width="10" height="10" as="geometry" />
        </mxCell>
        <mxCell id="R5z1-6jqIsE6iVicjENk-167" style="vsdxID=6;edgeStyle=none;startArrow=none;endArrow=classic;startSize=5;endSize=5;strokeColor=#000000;spacingTop=0;spacingBottom=0;spacingLeft=0;spacingRight=0;verticalAlign=middle;html=1;labelBackgroundColor=#ffffff;rounded=0;" parent="R5z1-6jqIsE6iVicjENk-163" edge="1">
          <mxGeometry relative="1" as="geometry">
            <mxPoint as="offset" />
            <Array as="points" />
            <mxPoint y="10" as="sourcePoint" />
            <mxPoint x="20" y="10" as="targetPoint" />
          </mxGeometry>
        </mxCell>
        <mxCell id="R5z1-6jqIsE6iVicjENk-168" style="vsdxID=7;edgeStyle=none;startArrow=none;endArrow=classic;startSize=5;endSize=5;strokeColor=#000000;spacingTop=0;spacingBottom=0;spacingLeft=0;spacingRight=0;verticalAlign=middle;html=1;labelBackgroundColor=#ffffff;rounded=0;" parent="R5z1-6jqIsE6iVicjENk-163" edge="1">
          <mxGeometry relative="1" as="geometry">
            <mxPoint as="offset" />
            <Array as="points" />
            <mxPoint y="30" as="sourcePoint" />
            <mxPoint x="20" y="30" as="targetPoint" />
          </mxGeometry>
        </mxCell>
        <mxCell id="R5z1-6jqIsE6iVicjENk-169" value="" style="endArrow=none;html=1;rounded=0;" parent="1" edge="1">
          <mxGeometry width="50" height="50" relative="1" as="geometry">
            <mxPoint x="460" y="779.92" as="sourcePoint" />
            <mxPoint x="480" y="780" as="targetPoint" />
            <Array as="points">
              <mxPoint x="490" y="780" />
            </Array>
          </mxGeometry>
        </mxCell>
        <mxCell id="R5z1-6jqIsE6iVicjENk-170" value="" style="endArrow=none;html=1;rounded=0;" parent="1" source="R5z1-6jqIsE6iVicjENk-133" edge="1">
          <mxGeometry width="50" height="50" relative="1" as="geometry">
            <mxPoint x="200" y="770" as="sourcePoint" />
            <mxPoint x="420" y="770" as="targetPoint" />
          </mxGeometry>
        </mxCell>
        <mxCell id="R5z1-6jqIsE6iVicjENk-171" value="" style="endArrow=none;html=1;rounded=0;startArrow=oval;startFill=1;entryX=0.007;entryY=0.207;entryDx=0;entryDy=0;entryPerimeter=0;" parent="1" target="R5z1-6jqIsE6iVicjENk-145" edge="1">
          <mxGeometry width="50" height="50" relative="1" as="geometry">
            <mxPoint x="350.65" y="770" as="sourcePoint" />
            <mxPoint x="400.65" y="720" as="targetPoint" />
          </mxGeometry>
        </mxCell>
        <mxCell id="R5z1-6jqIsE6iVicjENk-172" style="vsdxID=5;fillColor=none;gradientColor=none;strokeColor=none;labelBackgroundColor=none;rounded=0;html=1;whiteSpace=wrap;" parent="1" vertex="1">
          <mxGeometry x="350.65" y="680" width="50" height="50" as="geometry" />
        </mxCell>
        <mxCell id="R5z1-6jqIsE6iVicjENk-173" style="vsdxID=6;fillColor=#f8cecc;shape=stencil(nZBLDoAgDERP0z3SIyjew0SURgSD+Lu9kMZoXLhwN9O+tukAlrNpJg1SzDH4QW/URgNYgZTkjA4UkwJUgGXng+6DX1zLfmoymdXo17xh5zmRJ6Q42BWCfc2oJfdAr+Yv+AP9Cb7OJ3H/2JG1HNGz/84klThPVCc=);strokeColor=#b85450;labelBackgroundColor=none;rounded=0;html=1;whiteSpace=wrap;" parent="R5z1-6jqIsE6iVicjENk-172" vertex="1">
          <mxGeometry x="20" width="30" height="50" as="geometry" />
        </mxCell>
        <mxCell id="R5z1-6jqIsE6iVicjENk-174" value="&lt;font style=&quot;font-size:14px;font-family:Calibri;color:#000000;direction:ltr;letter-spacing:0px;line-height:120%;opacity:1&quot;&gt;D&lt;br/&gt;&lt;/font&gt;" style="verticalAlign=middle;align=center;vsdxID=10;fillColor=none;gradientColor=none;shape=stencil(nZBLDoAgDERP0z3SIyjew0SURgSD+Lu9kMZoXLhwN9O+tukAlrNpJg1SzDH4QW/URgNYgZTkjA4UkwJUgGXng+6DX1zLfmoymdXo17xh5zmRJ6Q42BWCfc2oJfdAr+Yv+AP9Cb7OJ3H/2JG1HNGz/84klThPVCc=);strokeColor=none;spacingTop=-3;spacingBottom=-3;spacingLeft=-3;spacingRight=-3;labelBackgroundColor=none;rounded=0;html=1;whiteSpace=wrap;" parent="R5z1-6jqIsE6iVicjENk-172" vertex="1">
          <mxGeometry x="22" y="5" width="10" height="10" as="geometry" />
        </mxCell>
        <mxCell id="R5z1-6jqIsE6iVicjENk-175" value="&lt;font style=&quot;font-size:14px;font-family:Calibri;color:#000000;direction:ltr;letter-spacing:0px;line-height:120%;opacity:1&quot;&gt;Q&lt;br/&gt;&lt;/font&gt;" style="verticalAlign=middle;align=center;vsdxID=11;fillColor=none;gradientColor=none;shape=stencil(nZBLDoAgDERP0z3SIyjew0SURgSD+Lu9kMZoXLhwN9O+tukAlrNpJg1SzDH4QW/URgNYgZTkjA4UkwJUgGXng+6DX1zLfmoymdXo17xh5zmRJ6Q42BWCfc2oJfdAr+Yv+AP9Cb7OJ3H/2JG1HNGz/84klThPVCc=);strokeColor=none;spacingTop=-3;spacingBottom=-3;spacingLeft=-3;spacingRight=-3;labelBackgroundColor=none;rounded=0;html=1;whiteSpace=wrap;" parent="R5z1-6jqIsE6iVicjENk-172" vertex="1">
          <mxGeometry x="38" y="5" width="10" height="10" as="geometry" />
        </mxCell>
        <mxCell id="R5z1-6jqIsE6iVicjENk-176" value="&lt;font style=&quot;font-size:14px;font-family:Calibri;color:#000000;direction:ltr;letter-spacing:0px;line-height:120%;opacity:1&quot;&gt;E&lt;br/&gt;&lt;/font&gt;" style="verticalAlign=middle;align=center;vsdxID=12;fillColor=none;gradientColor=none;shape=stencil(nZBLDoAgDERP0z3SIyjew0SURgSD+Lu9kMZoXLhwN9O+tukAlrNpJg1SzDH4QW/URgNYgZTkjA4UkwJUgGXng+6DX1zLfmoymdXo17xh5zmRJ6Q42BWCfc2oJfdAr+Yv+AP9Cb7OJ3H/2JG1HNGz/84klThPVCc=);strokeColor=none;spacingTop=-3;spacingBottom=-3;spacingLeft=-3;spacingRight=-3;labelBackgroundColor=none;rounded=0;html=1;whiteSpace=wrap;" parent="R5z1-6jqIsE6iVicjENk-172" vertex="1">
          <mxGeometry x="22" y="25" width="10" height="10" as="geometry" />
        </mxCell>
        <mxCell id="R5z1-6jqIsE6iVicjENk-177" style="vsdxID=7;edgeStyle=none;startArrow=none;endArrow=none;startSize=5;endSize=5;strokeColor=#000000;spacingTop=0;spacingBottom=0;spacingLeft=0;spacingRight=0;verticalAlign=middle;html=1;labelBackgroundColor=#ffffff;rounded=0;" parent="R5z1-6jqIsE6iVicjENk-172" edge="1">
          <mxGeometry relative="1" as="geometry">
            <Array as="points" />
            <mxPoint x="32" y="50" as="sourcePoint" />
            <mxPoint x="36" y="42" as="targetPoint" />
          </mxGeometry>
        </mxCell>
        <mxCell id="R5z1-6jqIsE6iVicjENk-178" style="vsdxID=8;edgeStyle=none;startArrow=none;endArrow=none;startSize=5;endSize=5;strokeColor=#000000;spacingTop=0;spacingBottom=0;spacingLeft=0;spacingRight=0;verticalAlign=middle;html=1;labelBackgroundColor=#ffffff;rounded=0;" parent="R5z1-6jqIsE6iVicjENk-172" edge="1">
          <mxGeometry relative="1" as="geometry">
            <Array as="points" />
            <mxPoint x="36" y="42" as="sourcePoint" />
            <mxPoint x="40" y="50" as="targetPoint" />
          </mxGeometry>
        </mxCell>
        <mxCell id="R5z1-6jqIsE6iVicjENk-179" style="vsdxID=9;edgeStyle=none;startArrow=none;endArrow=classic;startSize=5;endSize=5;strokeColor=#000000;spacingTop=0;spacingBottom=0;spacingLeft=0;spacingRight=0;verticalAlign=middle;html=1;labelBackgroundColor=#ffffff;rounded=0;" parent="R5z1-6jqIsE6iVicjENk-172" edge="1">
          <mxGeometry relative="1" as="geometry">
            <mxPoint as="offset" />
            <Array as="points" />
            <mxPoint y="10" as="sourcePoint" />
            <mxPoint x="20" y="10" as="targetPoint" />
          </mxGeometry>
        </mxCell>
        <mxCell id="R5z1-6jqIsE6iVicjENk-180" style="vsdxID=13;edgeStyle=none;startArrow=none;endArrow=classic;startSize=5;endSize=5;strokeColor=#000000;spacingTop=0;spacingBottom=0;spacingLeft=0;spacingRight=0;verticalAlign=middle;html=1;labelBackgroundColor=#ffffff;rounded=0;" parent="R5z1-6jqIsE6iVicjENk-172" edge="1">
          <mxGeometry relative="1" as="geometry">
            <mxPoint as="offset" />
            <Array as="points" />
            <mxPoint y="30" as="sourcePoint" />
            <mxPoint x="20" y="30" as="targetPoint" />
          </mxGeometry>
        </mxCell>
        <mxCell id="R5z1-6jqIsE6iVicjENk-181" style="vsdxID=5;fillColor=none;gradientColor=none;strokeColor=none;labelBackgroundColor=none;rounded=0;html=1;whiteSpace=wrap;" parent="1" vertex="1">
          <mxGeometry x="490" y="670" width="50" height="50" as="geometry" />
        </mxCell>
        <mxCell id="R5z1-6jqIsE6iVicjENk-182" style="vsdxID=6;fillColor=#dae8fc;shape=stencil(nZBLDoAgDERP0z3SIyjew0SURgSD+Lu9kMZoXLhwN9O+tukAlrNpJg1SzDH4QW/URgNYgZTkjA4UkwJUgGXng+6DX1zLfmoymdXo17xh5zmRJ6Q42BWCfc2oJfdAr+Yv+AP9Cb7OJ3H/2JG1HNGz/84klThPVCc=);strokeColor=#6c8ebf;labelBackgroundColor=none;rounded=0;html=1;whiteSpace=wrap;" parent="R5z1-6jqIsE6iVicjENk-181" vertex="1">
          <mxGeometry x="20" width="30" height="50" as="geometry" />
        </mxCell>
        <mxCell id="R5z1-6jqIsE6iVicjENk-183" value="&lt;font style=&quot;font-size:14px;font-family:Calibri;color:#000000;direction:ltr;letter-spacing:0px;line-height:120%;opacity:1&quot;&gt;D&lt;br/&gt;&lt;/font&gt;" style="verticalAlign=middle;align=center;vsdxID=10;fillColor=none;gradientColor=none;shape=stencil(nZBLDoAgDERP0z3SIyjew0SURgSD+Lu9kMZoXLhwN9O+tukAlrNpJg1SzDH4QW/URgNYgZTkjA4UkwJUgGXng+6DX1zLfmoymdXo17xh5zmRJ6Q42BWCfc2oJfdAr+Yv+AP9Cb7OJ3H/2JG1HNGz/84klThPVCc=);strokeColor=none;spacingTop=-3;spacingBottom=-3;spacingLeft=-3;spacingRight=-3;labelBackgroundColor=none;rounded=0;html=1;whiteSpace=wrap;" parent="R5z1-6jqIsE6iVicjENk-181" vertex="1">
          <mxGeometry x="22" y="5" width="10" height="10" as="geometry" />
        </mxCell>
        <mxCell id="R5z1-6jqIsE6iVicjENk-184" value="&lt;font style=&quot;font-size:14px;font-family:Calibri;color:#000000;direction:ltr;letter-spacing:0px;line-height:120%;opacity:1&quot;&gt;Q&lt;br/&gt;&lt;/font&gt;" style="verticalAlign=middle;align=center;vsdxID=11;fillColor=none;gradientColor=none;shape=stencil(nZBLDoAgDERP0z3SIyjew0SURgSD+Lu9kMZoXLhwN9O+tukAlrNpJg1SzDH4QW/URgNYgZTkjA4UkwJUgGXng+6DX1zLfmoymdXo17xh5zmRJ6Q42BWCfc2oJfdAr+Yv+AP9Cb7OJ3H/2JG1HNGz/84klThPVCc=);strokeColor=none;spacingTop=-3;spacingBottom=-3;spacingLeft=-3;spacingRight=-3;labelBackgroundColor=none;rounded=0;html=1;whiteSpace=wrap;" parent="R5z1-6jqIsE6iVicjENk-181" vertex="1">
          <mxGeometry x="38" y="5" width="10" height="10" as="geometry" />
        </mxCell>
        <mxCell id="R5z1-6jqIsE6iVicjENk-185" value="&lt;font style=&quot;font-size:14px;font-family:Calibri;color:#000000;direction:ltr;letter-spacing:0px;line-height:120%;opacity:1&quot;&gt;E&lt;br/&gt;&lt;/font&gt;" style="verticalAlign=middle;align=center;vsdxID=12;fillColor=none;gradientColor=none;shape=stencil(nZBLDoAgDERP0z3SIyjew0SURgSD+Lu9kMZoXLhwN9O+tukAlrNpJg1SzDH4QW/URgNYgZTkjA4UkwJUgGXng+6DX1zLfmoymdXo17xh5zmRJ6Q42BWCfc2oJfdAr+Yv+AP9Cb7OJ3H/2JG1HNGz/84klThPVCc=);strokeColor=none;spacingTop=-3;spacingBottom=-3;spacingLeft=-3;spacingRight=-3;labelBackgroundColor=none;rounded=0;html=1;whiteSpace=wrap;" parent="R5z1-6jqIsE6iVicjENk-181" vertex="1">
          <mxGeometry x="22" y="25" width="10" height="10" as="geometry" />
        </mxCell>
        <mxCell id="R5z1-6jqIsE6iVicjENk-186" style="vsdxID=7;edgeStyle=none;startArrow=none;endArrow=none;startSize=5;endSize=5;strokeColor=#000000;spacingTop=0;spacingBottom=0;spacingLeft=0;spacingRight=0;verticalAlign=middle;html=1;labelBackgroundColor=#ffffff;rounded=0;" parent="R5z1-6jqIsE6iVicjENk-181" edge="1">
          <mxGeometry relative="1" as="geometry">
            <Array as="points" />
            <mxPoint x="32" y="50" as="sourcePoint" />
            <mxPoint x="36" y="42" as="targetPoint" />
          </mxGeometry>
        </mxCell>
        <mxCell id="R5z1-6jqIsE6iVicjENk-187" style="vsdxID=8;edgeStyle=none;startArrow=none;endArrow=none;startSize=5;endSize=5;strokeColor=#000000;spacingTop=0;spacingBottom=0;spacingLeft=0;spacingRight=0;verticalAlign=middle;html=1;labelBackgroundColor=#ffffff;rounded=0;" parent="R5z1-6jqIsE6iVicjENk-181" edge="1">
          <mxGeometry relative="1" as="geometry">
            <Array as="points" />
            <mxPoint x="36" y="42" as="sourcePoint" />
            <mxPoint x="40" y="50" as="targetPoint" />
          </mxGeometry>
        </mxCell>
        <mxCell id="R5z1-6jqIsE6iVicjENk-188" style="vsdxID=9;edgeStyle=none;startArrow=none;endArrow=classic;startSize=5;endSize=5;strokeColor=#000000;spacingTop=0;spacingBottom=0;spacingLeft=0;spacingRight=0;verticalAlign=middle;html=1;labelBackgroundColor=#ffffff;rounded=0;" parent="R5z1-6jqIsE6iVicjENk-181" edge="1">
          <mxGeometry relative="1" as="geometry">
            <mxPoint as="offset" />
            <Array as="points" />
            <mxPoint y="10" as="sourcePoint" />
            <mxPoint x="20" y="10" as="targetPoint" />
          </mxGeometry>
        </mxCell>
        <mxCell id="R5z1-6jqIsE6iVicjENk-189" style="vsdxID=13;edgeStyle=none;startArrow=none;endArrow=classic;startSize=5;endSize=5;strokeColor=#000000;spacingTop=0;spacingBottom=0;spacingLeft=0;spacingRight=0;verticalAlign=middle;html=1;labelBackgroundColor=#ffffff;rounded=0;" parent="R5z1-6jqIsE6iVicjENk-181" edge="1">
          <mxGeometry relative="1" as="geometry">
            <mxPoint as="offset" />
            <Array as="points" />
            <mxPoint y="30" as="sourcePoint" />
            <mxPoint x="20" y="30" as="targetPoint" />
          </mxGeometry>
        </mxCell>
        <mxCell id="R5z1-6jqIsE6iVicjENk-190" style="vsdxID=5;fillColor=none;gradientColor=none;strokeColor=none;labelBackgroundColor=none;rounded=0;html=1;whiteSpace=wrap;" parent="1" vertex="1">
          <mxGeometry x="420" y="660" width="40" height="40" as="geometry" />
        </mxCell>
        <mxCell id="R5z1-6jqIsE6iVicjENk-191" style="vsdxID=8;fillColor=#ffffff;gradientColor=none;shape=stencil(UzV2Ls5ILEhVNTIoLinKz04tz0wpyVA1dlE1MsrMy0gtyiwBslSNXVWNndPyi1LTi/JL81Ig/IJEkEoQKze/DGRCBUSfoYEBSI+RQSWEb24K5rpB1OZk5uFRa4RHLapKA2IVwqwgyn5UtwIZCE+mZebkQMIIWR49UIBCkAA1dgUA);strokeColor=#000000;labelBackgroundColor=#ffffff;rounded=0;html=1;whiteSpace=wrap;" parent="R5z1-6jqIsE6iVicjENk-190" vertex="1">
          <mxGeometry x="20" width="20" height="40" as="geometry" />
        </mxCell>
        <mxCell id="R5z1-6jqIsE6iVicjENk-192" value="&lt;font style=&quot;font-size:11px;font-family:Calibri;color:#000000;direction:ltr;letter-spacing:0px;line-height:120%;opacity:1&quot;&gt;0&lt;br/&gt;&lt;/font&gt;" style="verticalAlign=middle;align=center;vsdxID=9;fillColor=none;gradientColor=none;shape=stencil(nZBLDoAgDERP0z3SIyjew0SURgSD+Lu9kMZoXLhwN9O+tukAlrNpJg1SzDH4QW/URgNYgZTkjA4UkwJUgGXng+6DX1zLfmoymdXo17xh5zmRJ6Q42BWCfc2oJfdAr+Yv+AP9Cb7OJ3H/2JG1HNGz/84klThPVCc=);strokeColor=none;spacingTop=-3;spacingBottom=-3;spacingLeft=-3;spacingRight=-3;labelBackgroundColor=none;rounded=0;html=1;whiteSpace=wrap;" parent="R5z1-6jqIsE6iVicjENk-190" vertex="1">
          <mxGeometry x="20" y="5" width="10" height="10" as="geometry" />
        </mxCell>
        <mxCell id="R5z1-6jqIsE6iVicjENk-193" value="&lt;font style=&quot;font-size:11px;font-family:Calibri;color:#000000;direction:ltr;letter-spacing:0px;line-height:120%;opacity:1&quot;&gt;1&lt;br/&gt;&lt;/font&gt;" style="verticalAlign=middle;align=center;vsdxID=10;fillColor=none;gradientColor=none;shape=stencil(nZBLDoAgDERP0z3SIyjew0SURgSD+Lu9kMZoXLhwN9O+tukAlrNpJg1SzDH4QW/URgNYgZTkjA4UkwJUgGXng+6DX1zLfmoymdXo17xh5zmRJ6Q42BWCfc2oJfdAr+Yv+AP9Cb7OJ3H/2JG1HNGz/84klThPVCc=);strokeColor=none;spacingTop=-3;spacingBottom=-3;spacingLeft=-3;spacingRight=-3;labelBackgroundColor=none;rounded=0;html=1;whiteSpace=wrap;" parent="R5z1-6jqIsE6iVicjENk-190" vertex="1">
          <mxGeometry x="20" y="25" width="10" height="10" as="geometry" />
        </mxCell>
        <mxCell id="R5z1-6jqIsE6iVicjENk-194" style="vsdxID=6;edgeStyle=none;startArrow=none;endArrow=classic;startSize=5;endSize=5;strokeColor=#000000;spacingTop=0;spacingBottom=0;spacingLeft=0;spacingRight=0;verticalAlign=middle;html=1;labelBackgroundColor=#ffffff;rounded=0;" parent="R5z1-6jqIsE6iVicjENk-190" edge="1">
          <mxGeometry relative="1" as="geometry">
            <mxPoint as="offset" />
            <Array as="points" />
            <mxPoint y="10" as="sourcePoint" />
            <mxPoint x="20" y="10" as="targetPoint" />
          </mxGeometry>
        </mxCell>
        <mxCell id="R5z1-6jqIsE6iVicjENk-195" style="vsdxID=7;edgeStyle=none;startArrow=none;endArrow=classic;startSize=5;endSize=5;strokeColor=#000000;spacingTop=0;spacingBottom=0;spacingLeft=0;spacingRight=0;verticalAlign=middle;html=1;labelBackgroundColor=#ffffff;rounded=0;" parent="R5z1-6jqIsE6iVicjENk-190" edge="1">
          <mxGeometry relative="1" as="geometry">
            <mxPoint as="offset" />
            <Array as="points" />
            <mxPoint y="30" as="sourcePoint" />
            <mxPoint x="20" y="30" as="targetPoint" />
          </mxGeometry>
        </mxCell>
        <mxCell id="R5z1-6jqIsE6iVicjENk-196" value="" style="endArrow=none;html=1;rounded=0;entryX=0.04;entryY=0.199;entryDx=0;entryDy=0;entryPerimeter=0;" parent="1" target="R5z1-6jqIsE6iVicjENk-181" edge="1">
          <mxGeometry width="50" height="50" relative="1" as="geometry">
            <mxPoint x="460" y="679.92" as="sourcePoint" />
            <mxPoint x="480" y="680" as="targetPoint" />
          </mxGeometry>
        </mxCell>
        <mxCell id="R5z1-6jqIsE6iVicjENk-197" value="" style="endArrow=none;html=1;rounded=0;" parent="1" edge="1">
          <mxGeometry width="50" height="50" relative="1" as="geometry">
            <mxPoint x="200" y="670" as="sourcePoint" />
            <mxPoint x="420" y="670" as="targetPoint" />
          </mxGeometry>
        </mxCell>
        <mxCell id="R5z1-6jqIsE6iVicjENk-198" value="" style="endArrow=none;html=1;rounded=0;startArrow=oval;startFill=1;entryX=0.004;entryY=0.195;entryDx=0;entryDy=0;entryPerimeter=0;" parent="1" target="R5z1-6jqIsE6iVicjENk-172" edge="1">
          <mxGeometry width="50" height="50" relative="1" as="geometry">
            <mxPoint x="350.65" y="670" as="sourcePoint" />
            <mxPoint x="350" y="690" as="targetPoint" />
          </mxGeometry>
        </mxCell>
        <mxCell id="R5z1-6jqIsE6iVicjENk-200" value="" style="endArrow=classic;html=1;rounded=0;" parent="1" edge="1">
          <mxGeometry width="50" height="50" relative="1" as="geometry">
            <mxPoint x="540" y="680" as="sourcePoint" />
            <mxPoint x="600" y="680" as="targetPoint" />
          </mxGeometry>
        </mxCell>
        <mxCell id="R5z1-6jqIsE6iVicjENk-202" value="" style="endArrow=classic;html=1;rounded=0;" parent="1" edge="1">
          <mxGeometry width="50" height="50" relative="1" as="geometry">
            <mxPoint x="540" y="780" as="sourcePoint" />
            <mxPoint x="600" y="780" as="targetPoint" />
          </mxGeometry>
        </mxCell>
        <mxCell id="R5z1-6jqIsE6iVicjENk-203" value="" style="endArrow=none;html=1;rounded=0;" parent="1" edge="1">
          <mxGeometry width="50" height="50" relative="1" as="geometry">
            <mxPoint x="490" y="860" as="sourcePoint" />
            <mxPoint x="490" y="800" as="targetPoint" />
          </mxGeometry>
        </mxCell>
        <mxCell id="R5z1-6jqIsE6iVicjENk-205" value="" style="endArrow=classic;html=1;rounded=0;startArrow=oval;startFill=1;" parent="1" edge="1">
          <mxGeometry width="50" height="50" relative="1" as="geometry">
            <mxPoint x="560" y="780" as="sourcePoint" />
            <mxPoint x="560" y="860" as="targetPoint" />
          </mxGeometry>
        </mxCell>
        <mxCell id="R5z1-6jqIsE6iVicjENk-206" value="" style="endArrow=classic;html=1;rounded=0;startArrow=oval;startFill=1;" parent="1" edge="1">
          <mxGeometry width="50" height="50" relative="1" as="geometry">
            <mxPoint x="419.72" y="790" as="sourcePoint" />
            <mxPoint x="420" y="860" as="targetPoint" />
          </mxGeometry>
        </mxCell>
        <mxCell id="R5z1-6jqIsE6iVicjENk-207" value="" style="endArrow=none;html=1;rounded=0;" parent="1" edge="1">
          <mxGeometry width="50" height="50" relative="1" as="geometry">
            <mxPoint x="400" y="690" as="sourcePoint" />
            <mxPoint x="420" y="690" as="targetPoint" />
          </mxGeometry>
        </mxCell>
        <mxCell id="R5z1-6jqIsE6iVicjENk-208" value="" style="endArrow=none;html=1;rounded=0;" parent="1" edge="1">
          <mxGeometry width="50" height="50" relative="1" as="geometry">
            <mxPoint x="400" y="790" as="sourcePoint" />
            <mxPoint x="420" y="790" as="targetPoint" />
          </mxGeometry>
        </mxCell>
        <mxCell id="R5z1-6jqIsE6iVicjENk-209" value="" style="endArrow=none;html=1;rounded=0;" parent="1" edge="1">
          <mxGeometry width="50" height="50" relative="1" as="geometry">
            <mxPoint x="330" y="860" as="sourcePoint" />
            <mxPoint x="330" y="810" as="targetPoint" />
          </mxGeometry>
        </mxCell>
        <mxCell id="R5z1-6jqIsE6iVicjENk-211" value="" style="endArrow=none;html=1;rounded=0;startArrow=oval;startFill=1;" parent="1" edge="1">
          <mxGeometry width="50" height="50" relative="1" as="geometry">
            <mxPoint x="490" y="800" as="sourcePoint" />
            <mxPoint x="490" y="700" as="targetPoint" />
          </mxGeometry>
        </mxCell>
        <mxCell id="R5z1-6jqIsE6iVicjENk-212" value="" style="endArrow=none;html=1;rounded=0;startArrow=oval;startFill=1;" parent="1" edge="1">
          <mxGeometry width="50" height="50" relative="1" as="geometry">
            <mxPoint x="330" y="810" as="sourcePoint" />
            <mxPoint x="330" y="710" as="targetPoint" />
          </mxGeometry>
        </mxCell>
        <mxCell id="R5z1-6jqIsE6iVicjENk-213" value="" style="endArrow=none;html=1;rounded=0;" parent="1" edge="1">
          <mxGeometry width="50" height="50" relative="1" as="geometry">
            <mxPoint x="330" y="810" as="sourcePoint" />
            <mxPoint x="360" y="810" as="targetPoint" />
          </mxGeometry>
        </mxCell>
        <mxCell id="R5z1-6jqIsE6iVicjENk-215" value="" style="endArrow=none;html=1;rounded=0;" parent="1" edge="1">
          <mxGeometry width="50" height="50" relative="1" as="geometry">
            <mxPoint x="330" y="710" as="sourcePoint" />
            <mxPoint x="350.65" y="710" as="targetPoint" />
          </mxGeometry>
        </mxCell>
        <mxCell id="R5z1-6jqIsE6iVicjENk-216" value="" style="endArrow=classic;html=1;rounded=0;exitX=1.013;exitY=-0.013;exitDx=0;exitDy=0;exitPerimeter=0;entryX=1.066;entryY=1;entryDx=0;entryDy=0;entryPerimeter=0;" parent="1" source="R5z1-6jqIsE6iVicjENk-165" target="R5z1-6jqIsE6iVicjENk-193" edge="1">
          <mxGeometry width="50" height="50" relative="1" as="geometry">
            <mxPoint x="450" y="759.8927613941019" as="sourcePoint" />
            <mxPoint x="450.65" y="700" as="targetPoint" />
          </mxGeometry>
        </mxCell>
        <mxCell id="R5z1-6jqIsE6iVicjENk-217" value="" style="endArrow=classic;html=1;rounded=0;entryX=0.501;entryY=0.877;entryDx=0;entryDy=0;entryPerimeter=0;" parent="1" target="R5z1-6jqIsE6iVicjENk-164" edge="1">
          <mxGeometry width="50" height="50" relative="1" as="geometry">
            <mxPoint x="450" y="860" as="sourcePoint" />
            <mxPoint x="480" y="810" as="targetPoint" />
          </mxGeometry>
        </mxCell>
        <mxCell id="R5z1-6jqIsE6iVicjENk-219" value="" style="endArrow=classic;html=1;rounded=0;startArrow=oval;startFill=1;" parent="1" edge="1">
          <mxGeometry width="50" height="50" relative="1" as="geometry">
            <mxPoint x="300" y="770" as="sourcePoint" />
            <mxPoint x="299.8" y="860" as="targetPoint" />
          </mxGeometry>
        </mxCell>
        <mxCell id="R5z1-6jqIsE6iVicjENk-220" value="" style="endArrow=none;html=1;rounded=0;" parent="1" target="R5z1-6jqIsE6iVicjENk-133" edge="1">
          <mxGeometry width="50" height="50" relative="1" as="geometry">
            <mxPoint x="200" y="770" as="sourcePoint" />
            <mxPoint x="420" y="770" as="targetPoint" />
          </mxGeometry>
        </mxCell>
        <mxCell id="R5z1-6jqIsE6iVicjENk-133" value="In_Valid" style="text;html=1;align=right;verticalAlign=middle;whiteSpace=wrap;rounded=0;" parent="1" vertex="1">
          <mxGeometry x="140" y="760" width="60" height="20" as="geometry" />
        </mxCell>
      </root>
    </mxGraphModel>
  </diagram>
  <diagram id="ohUDpEAhXnJUWiT2Vc1L" name="olo_base_delay">
    <mxGraphModel dx="1378" dy="843" grid="1" gridSize="10" guides="1" tooltips="1" connect="1" arrows="1" fold="1" page="1" pageScale="1" pageWidth="10000" pageHeight="10000" math="0" shadow="0">
      <root>
        <mxCell id="0" />
        <mxCell id="1" parent="0" />
        <mxCell id="CsmfyTOUY5dM9iub64k_-1" value="AXI4-Stream&lt;div&gt;Master&lt;/div&gt;" style="rounded=1;whiteSpace=wrap;html=1;fillColor=#f8cecc;strokeColor=#b85450;" parent="1" vertex="1">
          <mxGeometry x="320" y="160" width="120" height="80" as="geometry" />
        </mxCell>
        <mxCell id="CsmfyTOUY5dM9iub64k_-2" value="AXI4-Stream&lt;div&gt;Slave&lt;/div&gt;" style="rounded=1;whiteSpace=wrap;html=1;fillColor=#f8cecc;strokeColor=#b85450;" parent="1" vertex="1">
          <mxGeometry x="760" y="160" width="120" height="100" as="geometry" />
        </mxCell>
        <mxCell id="CsmfyTOUY5dM9iub64k_-3" value="Data" style="endArrow=classic;html=1;rounded=0;" parent="1" edge="1">
          <mxGeometry width="50" height="50" relative="1" as="geometry">
            <mxPoint x="440" y="180" as="sourcePoint" />
            <mxPoint x="760" y="180" as="targetPoint" />
          </mxGeometry>
        </mxCell>
        <mxCell id="CsmfyTOUY5dM9iub64k_-4" value="Valid" style="endArrow=classic;html=1;rounded=0;" parent="1" edge="1">
          <mxGeometry width="50" height="50" relative="1" as="geometry">
            <mxPoint x="440" y="199.71" as="sourcePoint" />
            <mxPoint x="760" y="200" as="targetPoint" />
          </mxGeometry>
        </mxCell>
        <mxCell id="CsmfyTOUY5dM9iub64k_-5" value="Ready" style="endArrow=none;html=1;rounded=0;startArrow=classic;startFill=1;endFill=0;" parent="1" edge="1">
          <mxGeometry width="50" height="50" relative="1" as="geometry">
            <mxPoint x="440" y="220" as="sourcePoint" />
            <mxPoint x="760" y="220" as="targetPoint" />
          </mxGeometry>
        </mxCell>
        <mxCell id="CsmfyTOUY5dM9iub64k_-6" value="&lt;i&gt;olo_base_delay&lt;/i&gt;" style="rounded=1;whiteSpace=wrap;html=1;fillColor=#dae8fc;strokeColor=#6c8ebf;" parent="1" vertex="1">
          <mxGeometry x="560" y="280" width="120" height="80" as="geometry" />
        </mxCell>
        <mxCell id="CsmfyTOUY5dM9iub64k_-7" value="In_Data" style="text;html=1;align=left;verticalAlign=middle;whiteSpace=wrap;rounded=0;fontSize=8;" parent="1" vertex="1">
          <mxGeometry x="560" y="290" width="60" height="20" as="geometry" />
        </mxCell>
        <mxCell id="CsmfyTOUY5dM9iub64k_-8" value="In_Valid" style="text;html=1;align=left;verticalAlign=middle;whiteSpace=wrap;rounded=0;fontSize=8;" parent="1" vertex="1">
          <mxGeometry x="560" y="330" width="60" height="20" as="geometry" />
        </mxCell>
        <mxCell id="CsmfyTOUY5dM9iub64k_-9" value="Out_Data" style="text;html=1;align=right;verticalAlign=middle;whiteSpace=wrap;rounded=0;fontSize=8;" parent="1" vertex="1">
          <mxGeometry x="620" y="290" width="60" height="20" as="geometry" />
        </mxCell>
        <mxCell id="CsmfyTOUY5dM9iub64k_-10" value="" style="endArrow=classic;html=1;rounded=0;startArrow=oval;startFill=1;" parent="1" edge="1">
          <mxGeometry width="50" height="50" relative="1" as="geometry">
            <mxPoint x="520" y="180" as="sourcePoint" />
            <mxPoint x="560" y="300" as="targetPoint" />
            <Array as="points">
              <mxPoint x="520" y="300" />
            </Array>
          </mxGeometry>
        </mxCell>
        <mxCell id="CsmfyTOUY5dM9iub64k_-11" style="vsdxID=5;fillColor=none;gradientColor=none;strokeColor=none;labelBackgroundColor=none;rounded=0;html=1;whiteSpace=wrap;" parent="1" vertex="1">
          <mxGeometry x="490" y="320" width="40" height="40" as="geometry" />
        </mxCell>
        <mxCell id="CsmfyTOUY5dM9iub64k_-12" style="vsdxID=6;fillColor=#FFFFFF;gradientColor=none;shape=stencil(nZBLDoAgDERP0z3SIyjew0SURgSD+Lu9kMZoXLhwN9O+tukAlrNpJg1SzDH4QW/URgNYgZTkjA4UkwJUgGXng+6DX1zLfmoymdXo17xh5zmRJ6Q42BWCfc2oJfdAr+Yv+AP9Cb7OJ3H/2JG1HNGz/84klThPVCc=);strokeColor=#000000;labelBackgroundColor=none;rounded=0;html=1;whiteSpace=wrap;" parent="CsmfyTOUY5dM9iub64k_-11" vertex="1">
          <mxGeometry x="20" width="20" height="40" as="geometry" />
        </mxCell>
        <mxCell id="CsmfyTOUY5dM9iub64k_-13" value="&lt;font style=&quot;font-size:11px;font-family:Calibri;color:#000000;direction:ltr;letter-spacing:0px;line-height:120%;opacity:1&quot;&gt;&amp;amp;&lt;br/&gt;&lt;/font&gt;" style="verticalAlign=middle;align=center;vsdxID=7;fillColor=none;gradientColor=none;shape=stencil(nZBLDoAgDERP0z3SIyjew0SURgSD+Lu9kMZoXLhwN9O+tukAlrNpJg1SzDH4QW/URgNYgZTkjA4UkwJUgGXng+6DX1zLfmoymdXo17xh5zmRJ6Q42BWCfc2oJfdAr+Yv+AP9Cb7OJ3H/2JG1HNGz/84klThPVCc=);strokeColor=none;spacingTop=-3;spacingBottom=-3;spacingLeft=-3;spacingRight=-3;labelBackgroundColor=none;rounded=0;html=1;whiteSpace=wrap;" parent="CsmfyTOUY5dM9iub64k_-11" vertex="1">
          <mxGeometry x="20" y="10" width="20" height="20" as="geometry" />
        </mxCell>
        <mxCell id="CsmfyTOUY5dM9iub64k_-14" style="vsdxID=8;edgeStyle=none;startArrow=none;endArrow=classic;startSize=5;endSize=5;strokeColor=#000000;spacingTop=0;spacingBottom=0;spacingLeft=0;spacingRight=0;verticalAlign=middle;html=1;labelBackgroundColor=#ffffff;rounded=0;" parent="CsmfyTOUY5dM9iub64k_-11" edge="1">
          <mxGeometry relative="1" as="geometry">
            <mxPoint as="offset" />
            <Array as="points" />
            <mxPoint y="10" as="sourcePoint" />
            <mxPoint x="20" y="10" as="targetPoint" />
          </mxGeometry>
        </mxCell>
        <mxCell id="CsmfyTOUY5dM9iub64k_-15" style="vsdxID=9;edgeStyle=none;startArrow=none;endArrow=classic;startSize=5;endSize=5;strokeColor=#000000;spacingTop=0;spacingBottom=0;spacingLeft=0;spacingRight=0;verticalAlign=middle;html=1;labelBackgroundColor=#ffffff;rounded=0;" parent="CsmfyTOUY5dM9iub64k_-11" edge="1">
          <mxGeometry relative="1" as="geometry">
            <mxPoint as="offset" />
            <Array as="points" />
            <mxPoint y="30" as="sourcePoint" />
            <mxPoint x="20" y="30" as="targetPoint" />
          </mxGeometry>
        </mxCell>
        <mxCell id="CsmfyTOUY5dM9iub64k_-16" value="" style="endArrow=classic;html=1;rounded=0;entryX=0;entryY=0.5;entryDx=0;entryDy=0;" parent="1" target="CsmfyTOUY5dM9iub64k_-8" edge="1">
          <mxGeometry width="50" height="50" relative="1" as="geometry">
            <mxPoint x="530" y="340" as="sourcePoint" />
            <mxPoint x="580" y="300" as="targetPoint" />
          </mxGeometry>
        </mxCell>
        <mxCell id="CsmfyTOUY5dM9iub64k_-17" value="" style="endArrow=none;html=1;rounded=0;startArrow=oval;startFill=1;entryX=0;entryY=0.25;entryDx=0;entryDy=0;" parent="1" target="CsmfyTOUY5dM9iub64k_-11" edge="1">
          <mxGeometry width="50" height="50" relative="1" as="geometry">
            <mxPoint x="490" y="220" as="sourcePoint" />
            <mxPoint x="480" y="240" as="targetPoint" />
          </mxGeometry>
        </mxCell>
        <mxCell id="CsmfyTOUY5dM9iub64k_-18" value="" style="endArrow=none;html=1;rounded=0;startArrow=oval;startFill=1;entryX=0;entryY=0.75;entryDx=0;entryDy=0;" parent="1" target="CsmfyTOUY5dM9iub64k_-11" edge="1">
          <mxGeometry width="50" height="50" relative="1" as="geometry">
            <mxPoint x="470" y="200" as="sourcePoint" />
            <mxPoint x="470" y="310" as="targetPoint" />
            <Array as="points">
              <mxPoint x="470" y="350" />
            </Array>
          </mxGeometry>
        </mxCell>
        <mxCell id="CsmfyTOUY5dM9iub64k_-19" value="Data_Delayed" style="endArrow=classic;html=1;rounded=0;" parent="1" edge="1">
          <mxGeometry width="50" height="50" relative="1" as="geometry">
            <mxPoint x="680" y="299.71" as="sourcePoint" />
            <mxPoint x="760" y="240" as="targetPoint" />
            <Array as="points">
              <mxPoint x="720" y="300" />
              <mxPoint x="720" y="240" />
            </Array>
          </mxGeometry>
        </mxCell>
      </root>
    </mxGraphModel>
  </diagram>
  <diagram id="Z5Mei6flEjtJMVJMaJmj" name="olo_base_dyn_sft">
    <mxGraphModel dx="1378" dy="843" grid="1" gridSize="10" guides="1" tooltips="1" connect="1" arrows="1" fold="1" page="1" pageScale="1" pageWidth="10000" pageHeight="10000" math="0" shadow="0">
      <root>
        <mxCell id="0" />
        <mxCell id="1" parent="0" />
        <mxCell id="suDaNLD7dhtGw--u4KXs-1" value="&amp;lt;&amp;lt; 1" style="rounded=1;whiteSpace=wrap;html=1;fillColor=#dae8fc;strokeColor=#6c8ebf;" parent="1" vertex="1">
          <mxGeometry x="400" y="280" width="80" height="40" as="geometry" />
        </mxCell>
        <mxCell id="suDaNLD7dhtGw--u4KXs-2" value="&amp;lt;&amp;lt; 2" style="rounded=1;whiteSpace=wrap;html=1;fillColor=#dae8fc;strokeColor=#6c8ebf;" parent="1" vertex="1">
          <mxGeometry x="400" y="330" width="80" height="40" as="geometry" />
        </mxCell>
        <mxCell id="suDaNLD7dhtGw--u4KXs-3" value="&amp;lt;&amp;lt; 3" style="rounded=1;whiteSpace=wrap;html=1;fillColor=#dae8fc;strokeColor=#6c8ebf;" parent="1" vertex="1">
          <mxGeometry x="400" y="380" width="80" height="40" as="geometry" />
        </mxCell>
        <mxCell id="suDaNLD7dhtGw--u4KXs-4" style="vsdxID=5;fillColor=none;gradientColor=none;strokeColor=none;labelBackgroundColor=none;rounded=0;html=1;whiteSpace=wrap;" parent="1" vertex="1">
          <mxGeometry x="520" y="300" width="40" height="80" as="geometry" />
        </mxCell>
        <mxCell id="suDaNLD7dhtGw--u4KXs-5" style="vsdxID=10;fillColor=#dae8fc;shape=stencil(UzV2Ls5ILEhVNTIoLinKz04tz0wpyVA1dlE1MsrMy0gtyiwBslSNXVWNndPyi1LTi/JL81Ig/IJEkEoQKze/DGRCBUSfoYEBSI+RQSWEb2GuZwoWcIOozsnMQ1KNqhamlwileBSiu8DQCJ8LCLkXyEB4NS0zJwcSUsjy6EEDFIIEq7ErAA==);strokeColor=#6c8ebf;labelBackgroundColor=#ffffff;rounded=0;html=1;whiteSpace=wrap;" parent="suDaNLD7dhtGw--u4KXs-4" vertex="1">
          <mxGeometry x="20" width="20" height="80" as="geometry" />
        </mxCell>
        <mxCell id="suDaNLD7dhtGw--u4KXs-6" value="&lt;font style=&quot;font-size:11px;font-family:Calibri;color:#000000;direction:ltr;letter-spacing:0px;line-height:120%;opacity:1&quot;&gt;0&lt;br/&gt;&lt;/font&gt;" style="verticalAlign=middle;align=center;vsdxID=11;fillColor=none;gradientColor=none;shape=stencil(nZBLDoAgDERP0z3SIyjew0SURgSD+Lu9kMZoXLhwN9O+tukAlrNpJg1SzDH4QW/URgNYgZTkjA4UkwJUgGXng+6DX1zLfmoymdXo17xh5zmRJ6Q42BWCfc2oJfdAr+Yv+AP9Cb7OJ3H/2JG1HNGz/84klThPVCc=);strokeColor=none;spacingTop=-3;spacingBottom=-3;spacingLeft=-3;spacingRight=-3;labelBackgroundColor=none;rounded=0;html=1;whiteSpace=wrap;" parent="suDaNLD7dhtGw--u4KXs-4" vertex="1">
          <mxGeometry x="20" y="5" width="10" height="10" as="geometry" />
        </mxCell>
        <mxCell id="suDaNLD7dhtGw--u4KXs-7" value="&lt;font style=&quot;font-size:11px;font-family:Calibri;color:#000000;direction:ltr;letter-spacing:0px;line-height:120%;opacity:1&quot;&gt;1&lt;br/&gt;&lt;/font&gt;" style="verticalAlign=middle;align=center;vsdxID=12;fillColor=none;gradientColor=none;shape=stencil(nZBLDoAgDERP0z3SIyjew0SURgSD+Lu9kMZoXLhwN9O+tukAlrNpJg1SzDH4QW/URgNYgZTkjA4UkwJUgGXng+6DX1zLfmoymdXo17xh5zmRJ6Q42BWCfc2oJfdAr+Yv+AP9Cb7OJ3H/2JG1HNGz/84klThPVCc=);strokeColor=none;spacingTop=-3;spacingBottom=-3;spacingLeft=-3;spacingRight=-3;labelBackgroundColor=none;rounded=0;html=1;whiteSpace=wrap;" parent="suDaNLD7dhtGw--u4KXs-4" vertex="1">
          <mxGeometry x="20" y="25" width="10" height="10" as="geometry" />
        </mxCell>
        <mxCell id="suDaNLD7dhtGw--u4KXs-8" value="&lt;font style=&quot;font-size:11px;font-family:Calibri;color:#000000;direction:ltr;letter-spacing:0px;line-height:120%;opacity:1&quot;&gt;2&lt;br/&gt;&lt;/font&gt;" style="verticalAlign=middle;align=center;vsdxID=13;fillColor=none;gradientColor=none;shape=stencil(nZBLDoAgDERP0z3SIyjew0SURgSD+Lu9kMZoXLhwN9O+tukAlrNpJg1SzDH4QW/URgNYgZTkjA4UkwJUgGXng+6DX1zLfmoymdXo17xh5zmRJ6Q42BWCfc2oJfdAr+Yv+AP9Cb7OJ3H/2JG1HNGz/84klThPVCc=);strokeColor=none;spacingTop=-3;spacingBottom=-3;spacingLeft=-3;spacingRight=-3;labelBackgroundColor=none;rounded=0;html=1;whiteSpace=wrap;" parent="suDaNLD7dhtGw--u4KXs-4" vertex="1">
          <mxGeometry x="20" y="45" width="10" height="10" as="geometry" />
        </mxCell>
        <mxCell id="suDaNLD7dhtGw--u4KXs-9" value="&lt;font style=&quot;font-size:11px;font-family:Calibri;color:#000000;direction:ltr;letter-spacing:0px;line-height:120%;opacity:1&quot;&gt;3&lt;br/&gt;&lt;/font&gt;" style="verticalAlign=middle;align=center;vsdxID=14;fillColor=none;gradientColor=none;shape=stencil(nZBLDoAgDERP0z3SIyjew0SURgSD+Lu9kMZoXLhwN9O+tukAlrNpJg1SzDH4QW/URgNYgZTkjA4UkwJUgGXng+6DX1zLfmoymdXo17xh5zmRJ6Q42BWCfc2oJfdAr+Yv+AP9Cb7OJ3H/2JG1HNGz/84klThPVCc=);strokeColor=none;spacingTop=-3;spacingBottom=-3;spacingLeft=-3;spacingRight=-3;labelBackgroundColor=none;rounded=0;html=1;whiteSpace=wrap;" parent="suDaNLD7dhtGw--u4KXs-4" vertex="1">
          <mxGeometry x="20" y="65" width="10" height="10" as="geometry" />
        </mxCell>
        <mxCell id="suDaNLD7dhtGw--u4KXs-10" style="vsdxID=6;edgeStyle=none;startArrow=none;endArrow=classic;startSize=5;endSize=5;strokeColor=#000000;spacingTop=0;spacingBottom=0;spacingLeft=0;spacingRight=0;verticalAlign=middle;html=1;labelBackgroundColor=#ffffff;rounded=0;" parent="suDaNLD7dhtGw--u4KXs-4" edge="1">
          <mxGeometry relative="1" as="geometry">
            <mxPoint as="offset" />
            <Array as="points" />
            <mxPoint y="10" as="sourcePoint" />
            <mxPoint x="20" y="10" as="targetPoint" />
          </mxGeometry>
        </mxCell>
        <mxCell id="suDaNLD7dhtGw--u4KXs-11" style="vsdxID=7;edgeStyle=none;startArrow=none;endArrow=classic;startSize=5;endSize=5;strokeColor=#000000;spacingTop=0;spacingBottom=0;spacingLeft=0;spacingRight=0;verticalAlign=middle;html=1;labelBackgroundColor=#ffffff;rounded=0;" parent="suDaNLD7dhtGw--u4KXs-4" edge="1">
          <mxGeometry relative="1" as="geometry">
            <mxPoint as="offset" />
            <Array as="points" />
            <mxPoint y="50" as="sourcePoint" />
            <mxPoint x="20" y="50" as="targetPoint" />
          </mxGeometry>
        </mxCell>
        <mxCell id="suDaNLD7dhtGw--u4KXs-12" style="vsdxID=8;edgeStyle=none;startArrow=none;endArrow=classic;startSize=5;endSize=5;strokeColor=#000000;spacingTop=0;spacingBottom=0;spacingLeft=0;spacingRight=0;verticalAlign=middle;html=1;labelBackgroundColor=#ffffff;rounded=0;" parent="suDaNLD7dhtGw--u4KXs-4" edge="1">
          <mxGeometry relative="1" as="geometry">
            <mxPoint as="offset" />
            <Array as="points" />
            <mxPoint y="30" as="sourcePoint" />
            <mxPoint x="20" y="30" as="targetPoint" />
          </mxGeometry>
        </mxCell>
        <mxCell id="suDaNLD7dhtGw--u4KXs-13" style="vsdxID=9;edgeStyle=none;startArrow=none;endArrow=classic;startSize=5;endSize=5;strokeColor=#000000;spacingTop=0;spacingBottom=0;spacingLeft=0;spacingRight=0;verticalAlign=middle;html=1;labelBackgroundColor=#ffffff;rounded=0;" parent="suDaNLD7dhtGw--u4KXs-4" edge="1">
          <mxGeometry relative="1" as="geometry">
            <mxPoint as="offset" />
            <Array as="points" />
            <mxPoint y="70" as="sourcePoint" />
            <mxPoint x="20" y="70" as="targetPoint" />
          </mxGeometry>
        </mxCell>
        <mxCell id="suDaNLD7dhtGw--u4KXs-14" value="" style="endArrow=none;html=1;rounded=0;exitX=1;exitY=0.5;exitDx=0;exitDy=0;" parent="1" source="suDaNLD7dhtGw--u4KXs-1" edge="1">
          <mxGeometry width="50" height="50" relative="1" as="geometry">
            <mxPoint x="490" y="300" as="sourcePoint" />
            <mxPoint x="520" y="330" as="targetPoint" />
            <Array as="points">
              <mxPoint x="510" y="300" />
              <mxPoint x="510" y="330" />
            </Array>
          </mxGeometry>
        </mxCell>
        <mxCell id="suDaNLD7dhtGw--u4KXs-15" value="" style="endArrow=none;html=1;rounded=0;" parent="1" edge="1">
          <mxGeometry width="50" height="50" relative="1" as="geometry">
            <mxPoint x="480" y="350" as="sourcePoint" />
            <mxPoint x="520" y="350" as="targetPoint" />
          </mxGeometry>
        </mxCell>
        <mxCell id="suDaNLD7dhtGw--u4KXs-16" value="" style="endArrow=none;html=1;rounded=0;exitX=1;exitY=0.5;exitDx=0;exitDy=0;" parent="1" source="suDaNLD7dhtGw--u4KXs-3" edge="1">
          <mxGeometry width="50" height="50" relative="1" as="geometry">
            <mxPoint x="480" y="370" as="sourcePoint" />
            <mxPoint x="520" y="370" as="targetPoint" />
            <Array as="points">
              <mxPoint x="520" y="400" />
            </Array>
          </mxGeometry>
        </mxCell>
        <mxCell id="suDaNLD7dhtGw--u4KXs-17" value="" style="endArrow=none;html=1;rounded=0;" parent="1" edge="1">
          <mxGeometry width="50" height="50" relative="1" as="geometry">
            <mxPoint x="380" y="300" as="sourcePoint" />
            <mxPoint x="520" y="310" as="targetPoint" />
            <Array as="points">
              <mxPoint x="380" y="270" />
              <mxPoint x="520" y="270" />
            </Array>
          </mxGeometry>
        </mxCell>
        <mxCell id="suDaNLD7dhtGw--u4KXs-19" value="" style="endArrow=none;html=1;rounded=0;startArrow=oval;startFill=1;" parent="1" edge="1">
          <mxGeometry width="50" height="50" relative="1" as="geometry">
            <mxPoint x="380" y="300" as="sourcePoint" />
            <mxPoint x="380" y="350" as="targetPoint" />
          </mxGeometry>
        </mxCell>
        <mxCell id="suDaNLD7dhtGw--u4KXs-20" value="" style="endArrow=none;html=1;rounded=0;startArrow=oval;startFill=1;" parent="1" edge="1">
          <mxGeometry width="50" height="50" relative="1" as="geometry">
            <mxPoint x="380" y="350" as="sourcePoint" />
            <mxPoint x="380" y="400" as="targetPoint" />
            <Array as="points">
              <mxPoint x="380" y="400" />
            </Array>
          </mxGeometry>
        </mxCell>
        <mxCell id="suDaNLD7dhtGw--u4KXs-23" value="" style="endArrow=classic;html=1;rounded=0;" parent="1" edge="1">
          <mxGeometry width="50" height="50" relative="1" as="geometry">
            <mxPoint x="380" y="300" as="sourcePoint" />
            <mxPoint x="400" y="300" as="targetPoint" />
          </mxGeometry>
        </mxCell>
        <mxCell id="suDaNLD7dhtGw--u4KXs-24" value="" style="endArrow=classic;html=1;rounded=0;" parent="1" edge="1">
          <mxGeometry width="50" height="50" relative="1" as="geometry">
            <mxPoint x="380" y="349.88" as="sourcePoint" />
            <mxPoint x="400" y="349.88" as="targetPoint" />
          </mxGeometry>
        </mxCell>
        <mxCell id="suDaNLD7dhtGw--u4KXs-25" value="" style="endArrow=classic;html=1;rounded=0;" parent="1" edge="1">
          <mxGeometry width="50" height="50" relative="1" as="geometry">
            <mxPoint x="380" y="399.88" as="sourcePoint" />
            <mxPoint x="400" y="399.88" as="targetPoint" />
          </mxGeometry>
        </mxCell>
        <mxCell id="suDaNLD7dhtGw--u4KXs-27" value="" style="endArrow=none;html=1;rounded=0;" parent="1" edge="1">
          <mxGeometry width="50" height="50" relative="1" as="geometry">
            <mxPoint x="360" y="340" as="sourcePoint" />
            <mxPoint x="380" y="340" as="targetPoint" />
          </mxGeometry>
        </mxCell>
        <mxCell id="suDaNLD7dhtGw--u4KXs-28" value="&amp;lt;&amp;lt; 4" style="rounded=1;whiteSpace=wrap;html=1;fillColor=#dae8fc;strokeColor=#6c8ebf;" parent="1" vertex="1">
          <mxGeometry x="650" y="280" width="80" height="40" as="geometry" />
        </mxCell>
        <mxCell id="suDaNLD7dhtGw--u4KXs-29" value="&amp;lt;&amp;lt; 8" style="rounded=1;whiteSpace=wrap;html=1;fillColor=#dae8fc;strokeColor=#6c8ebf;" parent="1" vertex="1">
          <mxGeometry x="650" y="330" width="80" height="40" as="geometry" />
        </mxCell>
        <mxCell id="suDaNLD7dhtGw--u4KXs-30" value="&amp;lt;&amp;lt; 12" style="rounded=1;whiteSpace=wrap;html=1;fillColor=#dae8fc;strokeColor=#6c8ebf;" parent="1" vertex="1">
          <mxGeometry x="650" y="380" width="80" height="40" as="geometry" />
        </mxCell>
        <mxCell id="suDaNLD7dhtGw--u4KXs-31" style="vsdxID=5;fillColor=none;gradientColor=none;strokeColor=none;labelBackgroundColor=none;rounded=0;html=1;whiteSpace=wrap;" parent="1" vertex="1">
          <mxGeometry x="770" y="300" width="40" height="80" as="geometry" />
        </mxCell>
        <mxCell id="suDaNLD7dhtGw--u4KXs-32" style="vsdxID=10;fillColor=#dae8fc;shape=stencil(UzV2Ls5ILEhVNTIoLinKz04tz0wpyVA1dlE1MsrMy0gtyiwBslSNXVWNndPyi1LTi/JL81Ig/IJEkEoQKze/DGRCBUSfoYEBSI+RQSWEb2GuZwoWcIOozsnMQ1KNqhamlwileBSiu8DQCJ8LCLkXyEB4NS0zJwcSUsjy6EEDFIIEq7ErAA==);strokeColor=#6c8ebf;labelBackgroundColor=#ffffff;rounded=0;html=1;whiteSpace=wrap;" parent="suDaNLD7dhtGw--u4KXs-31" vertex="1">
          <mxGeometry x="20" width="20" height="80" as="geometry" />
        </mxCell>
        <mxCell id="suDaNLD7dhtGw--u4KXs-33" value="&lt;font style=&quot;font-size:11px;font-family:Calibri;color:#000000;direction:ltr;letter-spacing:0px;line-height:120%;opacity:1&quot;&gt;0&lt;br/&gt;&lt;/font&gt;" style="verticalAlign=middle;align=center;vsdxID=11;fillColor=none;gradientColor=none;shape=stencil(nZBLDoAgDERP0z3SIyjew0SURgSD+Lu9kMZoXLhwN9O+tukAlrNpJg1SzDH4QW/URgNYgZTkjA4UkwJUgGXng+6DX1zLfmoymdXo17xh5zmRJ6Q42BWCfc2oJfdAr+Yv+AP9Cb7OJ3H/2JG1HNGz/84klThPVCc=);strokeColor=none;spacingTop=-3;spacingBottom=-3;spacingLeft=-3;spacingRight=-3;labelBackgroundColor=none;rounded=0;html=1;whiteSpace=wrap;" parent="suDaNLD7dhtGw--u4KXs-31" vertex="1">
          <mxGeometry x="20" y="5" width="10" height="10" as="geometry" />
        </mxCell>
        <mxCell id="suDaNLD7dhtGw--u4KXs-34" value="&lt;font style=&quot;font-size:11px;font-family:Calibri;color:#000000;direction:ltr;letter-spacing:0px;line-height:120%;opacity:1&quot;&gt;1&lt;br/&gt;&lt;/font&gt;" style="verticalAlign=middle;align=center;vsdxID=12;fillColor=none;gradientColor=none;shape=stencil(nZBLDoAgDERP0z3SIyjew0SURgSD+Lu9kMZoXLhwN9O+tukAlrNpJg1SzDH4QW/URgNYgZTkjA4UkwJUgGXng+6DX1zLfmoymdXo17xh5zmRJ6Q42BWCfc2oJfdAr+Yv+AP9Cb7OJ3H/2JG1HNGz/84klThPVCc=);strokeColor=none;spacingTop=-3;spacingBottom=-3;spacingLeft=-3;spacingRight=-3;labelBackgroundColor=none;rounded=0;html=1;whiteSpace=wrap;" parent="suDaNLD7dhtGw--u4KXs-31" vertex="1">
          <mxGeometry x="20" y="25" width="10" height="10" as="geometry" />
        </mxCell>
        <mxCell id="suDaNLD7dhtGw--u4KXs-35" value="&lt;font style=&quot;font-size:11px;font-family:Calibri;color:#000000;direction:ltr;letter-spacing:0px;line-height:120%;opacity:1&quot;&gt;2&lt;br/&gt;&lt;/font&gt;" style="verticalAlign=middle;align=center;vsdxID=13;fillColor=none;gradientColor=none;shape=stencil(nZBLDoAgDERP0z3SIyjew0SURgSD+Lu9kMZoXLhwN9O+tukAlrNpJg1SzDH4QW/URgNYgZTkjA4UkwJUgGXng+6DX1zLfmoymdXo17xh5zmRJ6Q42BWCfc2oJfdAr+Yv+AP9Cb7OJ3H/2JG1HNGz/84klThPVCc=);strokeColor=none;spacingTop=-3;spacingBottom=-3;spacingLeft=-3;spacingRight=-3;labelBackgroundColor=none;rounded=0;html=1;whiteSpace=wrap;" parent="suDaNLD7dhtGw--u4KXs-31" vertex="1">
          <mxGeometry x="20" y="45" width="10" height="10" as="geometry" />
        </mxCell>
        <mxCell id="suDaNLD7dhtGw--u4KXs-36" value="&lt;font style=&quot;font-size:11px;font-family:Calibri;color:#000000;direction:ltr;letter-spacing:0px;line-height:120%;opacity:1&quot;&gt;3&lt;br/&gt;&lt;/font&gt;" style="verticalAlign=middle;align=center;vsdxID=14;fillColor=none;gradientColor=none;shape=stencil(nZBLDoAgDERP0z3SIyjew0SURgSD+Lu9kMZoXLhwN9O+tukAlrNpJg1SzDH4QW/URgNYgZTkjA4UkwJUgGXng+6DX1zLfmoymdXo17xh5zmRJ6Q42BWCfc2oJfdAr+Yv+AP9Cb7OJ3H/2JG1HNGz/84klThPVCc=);strokeColor=none;spacingTop=-3;spacingBottom=-3;spacingLeft=-3;spacingRight=-3;labelBackgroundColor=none;rounded=0;html=1;whiteSpace=wrap;" parent="suDaNLD7dhtGw--u4KXs-31" vertex="1">
          <mxGeometry x="20" y="65" width="10" height="10" as="geometry" />
        </mxCell>
        <mxCell id="suDaNLD7dhtGw--u4KXs-37" style="vsdxID=6;edgeStyle=none;startArrow=none;endArrow=classic;startSize=5;endSize=5;strokeColor=#000000;spacingTop=0;spacingBottom=0;spacingLeft=0;spacingRight=0;verticalAlign=middle;html=1;labelBackgroundColor=#ffffff;rounded=0;" parent="suDaNLD7dhtGw--u4KXs-31" edge="1">
          <mxGeometry relative="1" as="geometry">
            <mxPoint as="offset" />
            <Array as="points" />
            <mxPoint y="10" as="sourcePoint" />
            <mxPoint x="20" y="10" as="targetPoint" />
          </mxGeometry>
        </mxCell>
        <mxCell id="suDaNLD7dhtGw--u4KXs-38" style="vsdxID=7;edgeStyle=none;startArrow=none;endArrow=classic;startSize=5;endSize=5;strokeColor=#000000;spacingTop=0;spacingBottom=0;spacingLeft=0;spacingRight=0;verticalAlign=middle;html=1;labelBackgroundColor=#ffffff;rounded=0;" parent="suDaNLD7dhtGw--u4KXs-31" edge="1">
          <mxGeometry relative="1" as="geometry">
            <mxPoint as="offset" />
            <Array as="points" />
            <mxPoint y="50" as="sourcePoint" />
            <mxPoint x="20" y="50" as="targetPoint" />
          </mxGeometry>
        </mxCell>
        <mxCell id="suDaNLD7dhtGw--u4KXs-39" style="vsdxID=8;edgeStyle=none;startArrow=none;endArrow=classic;startSize=5;endSize=5;strokeColor=#000000;spacingTop=0;spacingBottom=0;spacingLeft=0;spacingRight=0;verticalAlign=middle;html=1;labelBackgroundColor=#ffffff;rounded=0;" parent="suDaNLD7dhtGw--u4KXs-31" edge="1">
          <mxGeometry relative="1" as="geometry">
            <mxPoint as="offset" />
            <Array as="points" />
            <mxPoint y="30" as="sourcePoint" />
            <mxPoint x="20" y="30" as="targetPoint" />
          </mxGeometry>
        </mxCell>
        <mxCell id="suDaNLD7dhtGw--u4KXs-40" style="vsdxID=9;edgeStyle=none;startArrow=none;endArrow=classic;startSize=5;endSize=5;strokeColor=#000000;spacingTop=0;spacingBottom=0;spacingLeft=0;spacingRight=0;verticalAlign=middle;html=1;labelBackgroundColor=#ffffff;rounded=0;" parent="suDaNLD7dhtGw--u4KXs-31" edge="1">
          <mxGeometry relative="1" as="geometry">
            <mxPoint as="offset" />
            <Array as="points" />
            <mxPoint y="70" as="sourcePoint" />
            <mxPoint x="20" y="70" as="targetPoint" />
          </mxGeometry>
        </mxCell>
        <mxCell id="suDaNLD7dhtGw--u4KXs-41" value="" style="endArrow=none;html=1;rounded=0;exitX=1;exitY=0.5;exitDx=0;exitDy=0;" parent="1" source="suDaNLD7dhtGw--u4KXs-28" edge="1">
          <mxGeometry width="50" height="50" relative="1" as="geometry">
            <mxPoint x="740" y="300" as="sourcePoint" />
            <mxPoint x="770" y="330" as="targetPoint" />
            <Array as="points">
              <mxPoint x="760" y="300" />
              <mxPoint x="760" y="330" />
            </Array>
          </mxGeometry>
        </mxCell>
        <mxCell id="suDaNLD7dhtGw--u4KXs-42" value="" style="endArrow=none;html=1;rounded=0;" parent="1" edge="1">
          <mxGeometry width="50" height="50" relative="1" as="geometry">
            <mxPoint x="730" y="350" as="sourcePoint" />
            <mxPoint x="770" y="350" as="targetPoint" />
          </mxGeometry>
        </mxCell>
        <mxCell id="suDaNLD7dhtGw--u4KXs-43" value="" style="endArrow=none;html=1;rounded=0;exitX=1;exitY=0.5;exitDx=0;exitDy=0;" parent="1" source="suDaNLD7dhtGw--u4KXs-30" edge="1">
          <mxGeometry width="50" height="50" relative="1" as="geometry">
            <mxPoint x="730" y="370" as="sourcePoint" />
            <mxPoint x="770" y="370" as="targetPoint" />
            <Array as="points">
              <mxPoint x="770" y="400" />
            </Array>
          </mxGeometry>
        </mxCell>
        <mxCell id="suDaNLD7dhtGw--u4KXs-44" value="" style="endArrow=none;html=1;rounded=0;" parent="1" edge="1">
          <mxGeometry width="50" height="50" relative="1" as="geometry">
            <mxPoint x="630" y="300" as="sourcePoint" />
            <mxPoint x="770" y="310" as="targetPoint" />
            <Array as="points">
              <mxPoint x="630" y="270" />
              <mxPoint x="770" y="270" />
            </Array>
          </mxGeometry>
        </mxCell>
        <mxCell id="suDaNLD7dhtGw--u4KXs-45" value="" style="endArrow=none;html=1;rounded=0;startArrow=oval;startFill=1;" parent="1" edge="1">
          <mxGeometry width="50" height="50" relative="1" as="geometry">
            <mxPoint x="630" y="300" as="sourcePoint" />
            <mxPoint x="630" y="350" as="targetPoint" />
          </mxGeometry>
        </mxCell>
        <mxCell id="suDaNLD7dhtGw--u4KXs-46" value="" style="endArrow=none;html=1;rounded=0;startArrow=oval;startFill=1;" parent="1" edge="1">
          <mxGeometry width="50" height="50" relative="1" as="geometry">
            <mxPoint x="630" y="350" as="sourcePoint" />
            <mxPoint x="630" y="400" as="targetPoint" />
            <Array as="points">
              <mxPoint x="630" y="400" />
            </Array>
          </mxGeometry>
        </mxCell>
        <mxCell id="suDaNLD7dhtGw--u4KXs-47" value="" style="endArrow=classic;html=1;rounded=0;" parent="1" edge="1">
          <mxGeometry width="50" height="50" relative="1" as="geometry">
            <mxPoint x="630" y="300" as="sourcePoint" />
            <mxPoint x="650" y="300" as="targetPoint" />
          </mxGeometry>
        </mxCell>
        <mxCell id="suDaNLD7dhtGw--u4KXs-48" value="" style="endArrow=classic;html=1;rounded=0;" parent="1" edge="1">
          <mxGeometry width="50" height="50" relative="1" as="geometry">
            <mxPoint x="630" y="349.88" as="sourcePoint" />
            <mxPoint x="650" y="349.88" as="targetPoint" />
          </mxGeometry>
        </mxCell>
        <mxCell id="suDaNLD7dhtGw--u4KXs-49" value="" style="endArrow=classic;html=1;rounded=0;" parent="1" edge="1">
          <mxGeometry width="50" height="50" relative="1" as="geometry">
            <mxPoint x="630" y="399.88" as="sourcePoint" />
            <mxPoint x="650" y="399.88" as="targetPoint" />
          </mxGeometry>
        </mxCell>
        <mxCell id="suDaNLD7dhtGw--u4KXs-50" value="" style="endArrow=none;html=1;rounded=0;" parent="1" edge="1">
          <mxGeometry width="50" height="50" relative="1" as="geometry">
            <mxPoint x="610" y="340" as="sourcePoint" />
            <mxPoint x="630" y="340" as="targetPoint" />
          </mxGeometry>
        </mxCell>
        <mxCell id="suDaNLD7dhtGw--u4KXs-51" style="vsdxID=5;fillColor=none;gradientColor=none;strokeColor=none;labelBackgroundColor=none;rounded=0;html=1;whiteSpace=wrap;" parent="1" vertex="1">
          <mxGeometry x="560" y="330" width="50" height="40" as="geometry" />
        </mxCell>
        <mxCell id="suDaNLD7dhtGw--u4KXs-52" style="vsdxID=6;fillColor=#dae8fc;shape=stencil(nZBLDoAgDERP0z3SIyjew0SURgSD+Lu9kMZoXLhwN9O+tukAlrNpJg1SzDH4QW/URgNYgZTkjA4UkwJUgGXng+6DX1zLfmoymdXo17xh5zmRJ6Q42BWCfc2oJfdAr+Yv+AP9Cb7OJ3H/2JG1HNGz/84klThPVCc=);strokeColor=#6c8ebf;labelBackgroundColor=none;rounded=0;html=1;whiteSpace=wrap;" parent="suDaNLD7dhtGw--u4KXs-51" vertex="1">
          <mxGeometry x="20" width="30" height="40" as="geometry" />
        </mxCell>
        <mxCell id="suDaNLD7dhtGw--u4KXs-53" value="&lt;font style=&quot;font-size:14px;font-family:Calibri;color:#000000;direction:ltr;letter-spacing:0px;line-height:120%;opacity:1&quot;&gt;D&lt;br/&gt;&lt;/font&gt;" style="verticalAlign=middle;align=center;vsdxID=10;fillColor=none;gradientColor=none;shape=stencil(nZBLDoAgDERP0z3SIyjew0SURgSD+Lu9kMZoXLhwN9O+tukAlrNpJg1SzDH4QW/URgNYgZTkjA4UkwJUgGXng+6DX1zLfmoymdXo17xh5zmRJ6Q42BWCfc2oJfdAr+Yv+AP9Cb7OJ3H/2JG1HNGz/84klThPVCc=);strokeColor=none;spacingTop=-3;spacingBottom=-3;spacingLeft=-3;spacingRight=-3;labelBackgroundColor=none;rounded=0;html=1;whiteSpace=wrap;" parent="suDaNLD7dhtGw--u4KXs-51" vertex="1">
          <mxGeometry x="22" y="5" width="10" height="10" as="geometry" />
        </mxCell>
        <mxCell id="suDaNLD7dhtGw--u4KXs-54" value="&lt;font style=&quot;font-size:14px;font-family:Calibri;color:#000000;direction:ltr;letter-spacing:0px;line-height:120%;opacity:1&quot;&gt;Q&lt;br/&gt;&lt;/font&gt;" style="verticalAlign=middle;align=center;vsdxID=11;fillColor=none;gradientColor=none;shape=stencil(nZBLDoAgDERP0z3SIyjew0SURgSD+Lu9kMZoXLhwN9O+tukAlrNpJg1SzDH4QW/URgNYgZTkjA4UkwJUgGXng+6DX1zLfmoymdXo17xh5zmRJ6Q42BWCfc2oJfdAr+Yv+AP9Cb7OJ3H/2JG1HNGz/84klThPVCc=);strokeColor=none;spacingTop=-3;spacingBottom=-3;spacingLeft=-3;spacingRight=-3;labelBackgroundColor=none;rounded=0;html=1;whiteSpace=wrap;" parent="suDaNLD7dhtGw--u4KXs-51" vertex="1">
          <mxGeometry x="38" y="5" width="10" height="10" as="geometry" />
        </mxCell>
        <mxCell id="suDaNLD7dhtGw--u4KXs-55" style="vsdxID=7;edgeStyle=none;startArrow=none;endArrow=none;startSize=5;endSize=5;strokeColor=#000000;spacingTop=0;spacingBottom=0;spacingLeft=0;spacingRight=0;verticalAlign=middle;html=1;labelBackgroundColor=#ffffff;rounded=0;" parent="suDaNLD7dhtGw--u4KXs-51" edge="1">
          <mxGeometry relative="1" as="geometry">
            <Array as="points" />
            <mxPoint x="32" y="40" as="sourcePoint" />
            <mxPoint x="36" y="32" as="targetPoint" />
          </mxGeometry>
        </mxCell>
        <mxCell id="suDaNLD7dhtGw--u4KXs-56" style="vsdxID=8;edgeStyle=none;startArrow=none;endArrow=none;startSize=5;endSize=5;strokeColor=#000000;spacingTop=0;spacingBottom=0;spacingLeft=0;spacingRight=0;verticalAlign=middle;html=1;labelBackgroundColor=#ffffff;rounded=0;" parent="suDaNLD7dhtGw--u4KXs-51" edge="1">
          <mxGeometry relative="1" as="geometry">
            <Array as="points" />
            <mxPoint x="36" y="32" as="sourcePoint" />
            <mxPoint x="40" y="40" as="targetPoint" />
          </mxGeometry>
        </mxCell>
        <mxCell id="suDaNLD7dhtGw--u4KXs-57" style="vsdxID=9;edgeStyle=none;startArrow=none;endArrow=classic;startSize=5;endSize=5;strokeColor=#000000;spacingTop=0;spacingBottom=0;spacingLeft=0;spacingRight=0;verticalAlign=middle;html=1;labelBackgroundColor=#ffffff;rounded=0;" parent="suDaNLD7dhtGw--u4KXs-51" edge="1">
          <mxGeometry relative="1" as="geometry">
            <mxPoint as="offset" />
            <Array as="points" />
            <mxPoint y="10" as="sourcePoint" />
            <mxPoint x="20" y="10" as="targetPoint" />
          </mxGeometry>
        </mxCell>
        <mxCell id="suDaNLD7dhtGw--u4KXs-67" style="vsdxID=5;fillColor=none;gradientColor=none;strokeColor=none;labelBackgroundColor=none;rounded=0;html=1;whiteSpace=wrap;" parent="1" vertex="1">
          <mxGeometry x="810" y="330" width="50" height="40" as="geometry" />
        </mxCell>
        <mxCell id="suDaNLD7dhtGw--u4KXs-68" style="vsdxID=6;fillColor=#dae8fc;shape=stencil(nZBLDoAgDERP0z3SIyjew0SURgSD+Lu9kMZoXLhwN9O+tukAlrNpJg1SzDH4QW/URgNYgZTkjA4UkwJUgGXng+6DX1zLfmoymdXo17xh5zmRJ6Q42BWCfc2oJfdAr+Yv+AP9Cb7OJ3H/2JG1HNGz/84klThPVCc=);strokeColor=#6c8ebf;labelBackgroundColor=none;rounded=0;html=1;whiteSpace=wrap;" parent="suDaNLD7dhtGw--u4KXs-67" vertex="1">
          <mxGeometry x="20" width="30" height="40" as="geometry" />
        </mxCell>
        <mxCell id="suDaNLD7dhtGw--u4KXs-69" value="&lt;font style=&quot;font-size:14px;font-family:Calibri;color:#000000;direction:ltr;letter-spacing:0px;line-height:120%;opacity:1&quot;&gt;D&lt;br/&gt;&lt;/font&gt;" style="verticalAlign=middle;align=center;vsdxID=10;fillColor=none;gradientColor=none;shape=stencil(nZBLDoAgDERP0z3SIyjew0SURgSD+Lu9kMZoXLhwN9O+tukAlrNpJg1SzDH4QW/URgNYgZTkjA4UkwJUgGXng+6DX1zLfmoymdXo17xh5zmRJ6Q42BWCfc2oJfdAr+Yv+AP9Cb7OJ3H/2JG1HNGz/84klThPVCc=);strokeColor=none;spacingTop=-3;spacingBottom=-3;spacingLeft=-3;spacingRight=-3;labelBackgroundColor=none;rounded=0;html=1;whiteSpace=wrap;" parent="suDaNLD7dhtGw--u4KXs-67" vertex="1">
          <mxGeometry x="22" y="5" width="10" height="10" as="geometry" />
        </mxCell>
        <mxCell id="suDaNLD7dhtGw--u4KXs-70" value="&lt;font style=&quot;font-size:14px;font-family:Calibri;color:#000000;direction:ltr;letter-spacing:0px;line-height:120%;opacity:1&quot;&gt;Q&lt;br/&gt;&lt;/font&gt;" style="verticalAlign=middle;align=center;vsdxID=11;fillColor=none;gradientColor=none;shape=stencil(nZBLDoAgDERP0z3SIyjew0SURgSD+Lu9kMZoXLhwN9O+tukAlrNpJg1SzDH4QW/URgNYgZTkjA4UkwJUgGXng+6DX1zLfmoymdXo17xh5zmRJ6Q42BWCfc2oJfdAr+Yv+AP9Cb7OJ3H/2JG1HNGz/84klThPVCc=);strokeColor=none;spacingTop=-3;spacingBottom=-3;spacingLeft=-3;spacingRight=-3;labelBackgroundColor=none;rounded=0;html=1;whiteSpace=wrap;" parent="suDaNLD7dhtGw--u4KXs-67" vertex="1">
          <mxGeometry x="38" y="5" width="10" height="10" as="geometry" />
        </mxCell>
        <mxCell id="suDaNLD7dhtGw--u4KXs-71" style="vsdxID=7;edgeStyle=none;startArrow=none;endArrow=none;startSize=5;endSize=5;strokeColor=#000000;spacingTop=0;spacingBottom=0;spacingLeft=0;spacingRight=0;verticalAlign=middle;html=1;labelBackgroundColor=#ffffff;rounded=0;" parent="suDaNLD7dhtGw--u4KXs-67" edge="1">
          <mxGeometry relative="1" as="geometry">
            <Array as="points" />
            <mxPoint x="32" y="40" as="sourcePoint" />
            <mxPoint x="36" y="32" as="targetPoint" />
          </mxGeometry>
        </mxCell>
        <mxCell id="suDaNLD7dhtGw--u4KXs-72" style="vsdxID=8;edgeStyle=none;startArrow=none;endArrow=none;startSize=5;endSize=5;strokeColor=#000000;spacingTop=0;spacingBottom=0;spacingLeft=0;spacingRight=0;verticalAlign=middle;html=1;labelBackgroundColor=#ffffff;rounded=0;" parent="suDaNLD7dhtGw--u4KXs-67" edge="1">
          <mxGeometry relative="1" as="geometry">
            <Array as="points" />
            <mxPoint x="36" y="32" as="sourcePoint" />
            <mxPoint x="40" y="40" as="targetPoint" />
          </mxGeometry>
        </mxCell>
        <mxCell id="suDaNLD7dhtGw--u4KXs-73" style="vsdxID=9;edgeStyle=none;startArrow=none;endArrow=classic;startSize=5;endSize=5;strokeColor=#000000;spacingTop=0;spacingBottom=0;spacingLeft=0;spacingRight=0;verticalAlign=middle;html=1;labelBackgroundColor=#ffffff;rounded=0;" parent="suDaNLD7dhtGw--u4KXs-67" edge="1">
          <mxGeometry relative="1" as="geometry">
            <mxPoint as="offset" />
            <Array as="points" />
            <mxPoint y="10" as="sourcePoint" />
            <mxPoint x="20" y="10" as="targetPoint" />
          </mxGeometry>
        </mxCell>
        <mxCell id="suDaNLD7dhtGw--u4KXs-74" style="vsdxID=5;fillColor=none;gradientColor=none;strokeColor=none;labelBackgroundColor=none;rounded=0;html=1;whiteSpace=wrap;" parent="1" vertex="1">
          <mxGeometry x="560" y="440" width="50" height="40" as="geometry" />
        </mxCell>
        <mxCell id="suDaNLD7dhtGw--u4KXs-75" style="vsdxID=6;fillColor=#dae8fc;shape=stencil(nZBLDoAgDERP0z3SIyjew0SURgSD+Lu9kMZoXLhwN9O+tukAlrNpJg1SzDH4QW/URgNYgZTkjA4UkwJUgGXng+6DX1zLfmoymdXo17xh5zmRJ6Q42BWCfc2oJfdAr+Yv+AP9Cb7OJ3H/2JG1HNGz/84klThPVCc=);strokeColor=#6c8ebf;labelBackgroundColor=none;rounded=0;html=1;whiteSpace=wrap;" parent="suDaNLD7dhtGw--u4KXs-74" vertex="1">
          <mxGeometry x="20" width="30" height="40" as="geometry" />
        </mxCell>
        <mxCell id="suDaNLD7dhtGw--u4KXs-76" value="&lt;font style=&quot;font-size:14px;font-family:Calibri;color:#000000;direction:ltr;letter-spacing:0px;line-height:120%;opacity:1&quot;&gt;D&lt;br/&gt;&lt;/font&gt;" style="verticalAlign=middle;align=center;vsdxID=10;fillColor=none;gradientColor=none;shape=stencil(nZBLDoAgDERP0z3SIyjew0SURgSD+Lu9kMZoXLhwN9O+tukAlrNpJg1SzDH4QW/URgNYgZTkjA4UkwJUgGXng+6DX1zLfmoymdXo17xh5zmRJ6Q42BWCfc2oJfdAr+Yv+AP9Cb7OJ3H/2JG1HNGz/84klThPVCc=);strokeColor=none;spacingTop=-3;spacingBottom=-3;spacingLeft=-3;spacingRight=-3;labelBackgroundColor=none;rounded=0;html=1;whiteSpace=wrap;" parent="suDaNLD7dhtGw--u4KXs-74" vertex="1">
          <mxGeometry x="22" y="5" width="10" height="10" as="geometry" />
        </mxCell>
        <mxCell id="suDaNLD7dhtGw--u4KXs-77" value="&lt;font style=&quot;font-size:14px;font-family:Calibri;color:#000000;direction:ltr;letter-spacing:0px;line-height:120%;opacity:1&quot;&gt;Q&lt;br/&gt;&lt;/font&gt;" style="verticalAlign=middle;align=center;vsdxID=11;fillColor=none;gradientColor=none;shape=stencil(nZBLDoAgDERP0z3SIyjew0SURgSD+Lu9kMZoXLhwN9O+tukAlrNpJg1SzDH4QW/URgNYgZTkjA4UkwJUgGXng+6DX1zLfmoymdXo17xh5zmRJ6Q42BWCfc2oJfdAr+Yv+AP9Cb7OJ3H/2JG1HNGz/84klThPVCc=);strokeColor=none;spacingTop=-3;spacingBottom=-3;spacingLeft=-3;spacingRight=-3;labelBackgroundColor=none;rounded=0;html=1;whiteSpace=wrap;" parent="suDaNLD7dhtGw--u4KXs-74" vertex="1">
          <mxGeometry x="38" y="5" width="10" height="10" as="geometry" />
        </mxCell>
        <mxCell id="suDaNLD7dhtGw--u4KXs-78" style="vsdxID=7;edgeStyle=none;startArrow=none;endArrow=none;startSize=5;endSize=5;strokeColor=#000000;spacingTop=0;spacingBottom=0;spacingLeft=0;spacingRight=0;verticalAlign=middle;html=1;labelBackgroundColor=#ffffff;rounded=0;" parent="suDaNLD7dhtGw--u4KXs-74" edge="1">
          <mxGeometry relative="1" as="geometry">
            <Array as="points" />
            <mxPoint x="32" y="40" as="sourcePoint" />
            <mxPoint x="36" y="32" as="targetPoint" />
          </mxGeometry>
        </mxCell>
        <mxCell id="suDaNLD7dhtGw--u4KXs-79" style="vsdxID=8;edgeStyle=none;startArrow=none;endArrow=none;startSize=5;endSize=5;strokeColor=#000000;spacingTop=0;spacingBottom=0;spacingLeft=0;spacingRight=0;verticalAlign=middle;html=1;labelBackgroundColor=#ffffff;rounded=0;" parent="suDaNLD7dhtGw--u4KXs-74" edge="1">
          <mxGeometry relative="1" as="geometry">
            <Array as="points" />
            <mxPoint x="36" y="32" as="sourcePoint" />
            <mxPoint x="40" y="40" as="targetPoint" />
          </mxGeometry>
        </mxCell>
        <mxCell id="suDaNLD7dhtGw--u4KXs-80" style="vsdxID=9;edgeStyle=none;startArrow=none;endArrow=classic;startSize=5;endSize=5;strokeColor=#000000;spacingTop=0;spacingBottom=0;spacingLeft=0;spacingRight=0;verticalAlign=middle;html=1;labelBackgroundColor=#ffffff;rounded=0;" parent="suDaNLD7dhtGw--u4KXs-74" edge="1">
          <mxGeometry relative="1" as="geometry">
            <mxPoint as="offset" />
            <Array as="points" />
            <mxPoint y="10" as="sourcePoint" />
            <mxPoint x="20" y="10" as="targetPoint" />
          </mxGeometry>
        </mxCell>
        <mxCell id="suDaNLD7dhtGw--u4KXs-81" value="" style="endArrow=none;html=1;rounded=0;" parent="1" edge="1">
          <mxGeometry width="50" height="50" relative="1" as="geometry">
            <mxPoint x="360" y="450" as="sourcePoint" />
            <mxPoint x="560" y="450" as="targetPoint" />
          </mxGeometry>
        </mxCell>
        <mxCell id="suDaNLD7dhtGw--u4KXs-82" value="[1..0]" style="endArrow=classic;html=1;rounded=0;startArrow=oval;startFill=1;fontSize=8;" parent="1" edge="1">
          <mxGeometry width="50" height="50" relative="1" as="geometry">
            <mxPoint x="550" y="450" as="sourcePoint" />
            <mxPoint x="550" y="375" as="targetPoint" />
          </mxGeometry>
        </mxCell>
        <mxCell id="suDaNLD7dhtGw--u4KXs-83" value="[3..2]" style="endArrow=classic;html=1;rounded=0;exitX=1.009;exitY=0.249;exitDx=0;exitDy=0;exitPerimeter=0;fontSize=8;" parent="1" source="suDaNLD7dhtGw--u4KXs-75" edge="1">
          <mxGeometry width="50" height="50" relative="1" as="geometry">
            <mxPoint x="620" y="450" as="sourcePoint" />
            <mxPoint x="800" y="375" as="targetPoint" />
            <Array as="points">
              <mxPoint x="800" y="450" />
            </Array>
          </mxGeometry>
        </mxCell>
        <mxCell id="suDaNLD7dhtGw--u4KXs-84" value="" style="endArrow=classic;html=1;rounded=0;" parent="1" edge="1">
          <mxGeometry width="50" height="50" relative="1" as="geometry">
            <mxPoint x="860" y="340" as="sourcePoint" />
            <mxPoint x="880" y="340" as="targetPoint" />
          </mxGeometry>
        </mxCell>
        <mxCell id="lJlyH1-nlFingaWcFAkT-1" value="In_Data" style="text;html=1;align=right;verticalAlign=middle;whiteSpace=wrap;rounded=0;" parent="1" vertex="1">
          <mxGeometry x="300" y="330" width="60" height="20" as="geometry" />
        </mxCell>
        <mxCell id="lJlyH1-nlFingaWcFAkT-2" value="In_Shift" style="text;html=1;align=right;verticalAlign=middle;whiteSpace=wrap;rounded=0;" parent="1" vertex="1">
          <mxGeometry x="300" y="440" width="60" height="20" as="geometry" />
        </mxCell>
        <mxCell id="87KkDVRo9M-gw6q3Ae4b-1" value="Out_Data" style="text;html=1;align=left;verticalAlign=middle;whiteSpace=wrap;rounded=0;" parent="1" vertex="1">
          <mxGeometry x="880" y="330" width="60" height="20" as="geometry" />
        </mxCell>
        <mxCell id="87KkDVRo9M-gw6q3Ae4b-2" style="vsdxID=5;fillColor=none;gradientColor=none;strokeColor=none;labelBackgroundColor=none;rounded=0;html=1;whiteSpace=wrap;" parent="1" vertex="1">
          <mxGeometry x="560" y="490" width="50" height="40" as="geometry" />
        </mxCell>
        <mxCell id="87KkDVRo9M-gw6q3Ae4b-3" style="vsdxID=6;fillColor=#dae8fc;shape=stencil(nZBLDoAgDERP0z3SIyjew0SURgSD+Lu9kMZoXLhwN9O+tukAlrNpJg1SzDH4QW/URgNYgZTkjA4UkwJUgGXng+6DX1zLfmoymdXo17xh5zmRJ6Q42BWCfc2oJfdAr+Yv+AP9Cb7OJ3H/2JG1HNGz/84klThPVCc=);strokeColor=#6c8ebf;labelBackgroundColor=none;rounded=0;html=1;whiteSpace=wrap;" parent="87KkDVRo9M-gw6q3Ae4b-2" vertex="1">
          <mxGeometry x="20" width="30" height="40" as="geometry" />
        </mxCell>
        <mxCell id="87KkDVRo9M-gw6q3Ae4b-4" value="&lt;font style=&quot;font-size:14px;font-family:Calibri;color:#000000;direction:ltr;letter-spacing:0px;line-height:120%;opacity:1&quot;&gt;D&lt;br/&gt;&lt;/font&gt;" style="verticalAlign=middle;align=center;vsdxID=10;fillColor=none;gradientColor=none;shape=stencil(nZBLDoAgDERP0z3SIyjew0SURgSD+Lu9kMZoXLhwN9O+tukAlrNpJg1SzDH4QW/URgNYgZTkjA4UkwJUgGXng+6DX1zLfmoymdXo17xh5zmRJ6Q42BWCfc2oJfdAr+Yv+AP9Cb7OJ3H/2JG1HNGz/84klThPVCc=);strokeColor=none;spacingTop=-3;spacingBottom=-3;spacingLeft=-3;spacingRight=-3;labelBackgroundColor=none;rounded=0;html=1;whiteSpace=wrap;" parent="87KkDVRo9M-gw6q3Ae4b-2" vertex="1">
          <mxGeometry x="22" y="5" width="10" height="10" as="geometry" />
        </mxCell>
        <mxCell id="87KkDVRo9M-gw6q3Ae4b-5" value="&lt;font style=&quot;font-size:14px;font-family:Calibri;color:#000000;direction:ltr;letter-spacing:0px;line-height:120%;opacity:1&quot;&gt;Q&lt;br/&gt;&lt;/font&gt;" style="verticalAlign=middle;align=center;vsdxID=11;fillColor=none;gradientColor=none;shape=stencil(nZBLDoAgDERP0z3SIyjew0SURgSD+Lu9kMZoXLhwN9O+tukAlrNpJg1SzDH4QW/URgNYgZTkjA4UkwJUgGXng+6DX1zLfmoymdXo17xh5zmRJ6Q42BWCfc2oJfdAr+Yv+AP9Cb7OJ3H/2JG1HNGz/84klThPVCc=);strokeColor=none;spacingTop=-3;spacingBottom=-3;spacingLeft=-3;spacingRight=-3;labelBackgroundColor=none;rounded=0;html=1;whiteSpace=wrap;" parent="87KkDVRo9M-gw6q3Ae4b-2" vertex="1">
          <mxGeometry x="38" y="5" width="10" height="10" as="geometry" />
        </mxCell>
        <mxCell id="87KkDVRo9M-gw6q3Ae4b-6" style="vsdxID=7;edgeStyle=none;startArrow=none;endArrow=none;startSize=5;endSize=5;strokeColor=#000000;spacingTop=0;spacingBottom=0;spacingLeft=0;spacingRight=0;verticalAlign=middle;html=1;labelBackgroundColor=#ffffff;rounded=0;" parent="87KkDVRo9M-gw6q3Ae4b-2" edge="1">
          <mxGeometry relative="1" as="geometry">
            <Array as="points" />
            <mxPoint x="32" y="40" as="sourcePoint" />
            <mxPoint x="36" y="32" as="targetPoint" />
          </mxGeometry>
        </mxCell>
        <mxCell id="87KkDVRo9M-gw6q3Ae4b-7" style="vsdxID=8;edgeStyle=none;startArrow=none;endArrow=none;startSize=5;endSize=5;strokeColor=#000000;spacingTop=0;spacingBottom=0;spacingLeft=0;spacingRight=0;verticalAlign=middle;html=1;labelBackgroundColor=#ffffff;rounded=0;" parent="87KkDVRo9M-gw6q3Ae4b-2" edge="1">
          <mxGeometry relative="1" as="geometry">
            <Array as="points" />
            <mxPoint x="36" y="32" as="sourcePoint" />
            <mxPoint x="40" y="40" as="targetPoint" />
          </mxGeometry>
        </mxCell>
        <mxCell id="87KkDVRo9M-gw6q3Ae4b-8" style="vsdxID=9;edgeStyle=none;startArrow=none;endArrow=classic;startSize=5;endSize=5;strokeColor=#000000;spacingTop=0;spacingBottom=0;spacingLeft=0;spacingRight=0;verticalAlign=middle;html=1;labelBackgroundColor=#ffffff;rounded=0;" parent="87KkDVRo9M-gw6q3Ae4b-2" edge="1">
          <mxGeometry relative="1" as="geometry">
            <mxPoint as="offset" />
            <Array as="points" />
            <mxPoint y="10" as="sourcePoint" />
            <mxPoint x="20" y="10" as="targetPoint" />
          </mxGeometry>
        </mxCell>
        <mxCell id="87KkDVRo9M-gw6q3Ae4b-9" style="vsdxID=5;fillColor=none;gradientColor=none;strokeColor=none;labelBackgroundColor=none;rounded=0;html=1;whiteSpace=wrap;" parent="1" vertex="1">
          <mxGeometry x="810" y="490" width="50" height="40" as="geometry" />
        </mxCell>
        <mxCell id="87KkDVRo9M-gw6q3Ae4b-10" style="vsdxID=6;fillColor=#dae8fc;shape=stencil(nZBLDoAgDERP0z3SIyjew0SURgSD+Lu9kMZoXLhwN9O+tukAlrNpJg1SzDH4QW/URgNYgZTkjA4UkwJUgGXng+6DX1zLfmoymdXo17xh5zmRJ6Q42BWCfc2oJfdAr+Yv+AP9Cb7OJ3H/2JG1HNGz/84klThPVCc=);strokeColor=#6c8ebf;labelBackgroundColor=none;rounded=0;html=1;whiteSpace=wrap;" parent="87KkDVRo9M-gw6q3Ae4b-9" vertex="1">
          <mxGeometry x="20" width="30" height="40" as="geometry" />
        </mxCell>
        <mxCell id="87KkDVRo9M-gw6q3Ae4b-11" value="&lt;font style=&quot;font-size:14px;font-family:Calibri;color:#000000;direction:ltr;letter-spacing:0px;line-height:120%;opacity:1&quot;&gt;D&lt;br/&gt;&lt;/font&gt;" style="verticalAlign=middle;align=center;vsdxID=10;fillColor=none;gradientColor=none;shape=stencil(nZBLDoAgDERP0z3SIyjew0SURgSD+Lu9kMZoXLhwN9O+tukAlrNpJg1SzDH4QW/URgNYgZTkjA4UkwJUgGXng+6DX1zLfmoymdXo17xh5zmRJ6Q42BWCfc2oJfdAr+Yv+AP9Cb7OJ3H/2JG1HNGz/84klThPVCc=);strokeColor=none;spacingTop=-3;spacingBottom=-3;spacingLeft=-3;spacingRight=-3;labelBackgroundColor=none;rounded=0;html=1;whiteSpace=wrap;" parent="87KkDVRo9M-gw6q3Ae4b-9" vertex="1">
          <mxGeometry x="22" y="5" width="10" height="10" as="geometry" />
        </mxCell>
        <mxCell id="87KkDVRo9M-gw6q3Ae4b-12" value="&lt;font style=&quot;font-size:14px;font-family:Calibri;color:#000000;direction:ltr;letter-spacing:0px;line-height:120%;opacity:1&quot;&gt;Q&lt;br/&gt;&lt;/font&gt;" style="verticalAlign=middle;align=center;vsdxID=11;fillColor=none;gradientColor=none;shape=stencil(nZBLDoAgDERP0z3SIyjew0SURgSD+Lu9kMZoXLhwN9O+tukAlrNpJg1SzDH4QW/URgNYgZTkjA4UkwJUgGXng+6DX1zLfmoymdXo17xh5zmRJ6Q42BWCfc2oJfdAr+Yv+AP9Cb7OJ3H/2JG1HNGz/84klThPVCc=);strokeColor=none;spacingTop=-3;spacingBottom=-3;spacingLeft=-3;spacingRight=-3;labelBackgroundColor=none;rounded=0;html=1;whiteSpace=wrap;" parent="87KkDVRo9M-gw6q3Ae4b-9" vertex="1">
          <mxGeometry x="38" y="5" width="10" height="10" as="geometry" />
        </mxCell>
        <mxCell id="87KkDVRo9M-gw6q3Ae4b-13" style="vsdxID=7;edgeStyle=none;startArrow=none;endArrow=none;startSize=5;endSize=5;strokeColor=#000000;spacingTop=0;spacingBottom=0;spacingLeft=0;spacingRight=0;verticalAlign=middle;html=1;labelBackgroundColor=#ffffff;rounded=0;" parent="87KkDVRo9M-gw6q3Ae4b-9" edge="1">
          <mxGeometry relative="1" as="geometry">
            <Array as="points" />
            <mxPoint x="32" y="40" as="sourcePoint" />
            <mxPoint x="36" y="32" as="targetPoint" />
          </mxGeometry>
        </mxCell>
        <mxCell id="87KkDVRo9M-gw6q3Ae4b-14" style="vsdxID=8;edgeStyle=none;startArrow=none;endArrow=none;startSize=5;endSize=5;strokeColor=#000000;spacingTop=0;spacingBottom=0;spacingLeft=0;spacingRight=0;verticalAlign=middle;html=1;labelBackgroundColor=#ffffff;rounded=0;" parent="87KkDVRo9M-gw6q3Ae4b-9" edge="1">
          <mxGeometry relative="1" as="geometry">
            <Array as="points" />
            <mxPoint x="36" y="32" as="sourcePoint" />
            <mxPoint x="40" y="40" as="targetPoint" />
          </mxGeometry>
        </mxCell>
        <mxCell id="87KkDVRo9M-gw6q3Ae4b-15" style="vsdxID=9;edgeStyle=none;startArrow=none;endArrow=classic;startSize=5;endSize=5;strokeColor=#000000;spacingTop=0;spacingBottom=0;spacingLeft=0;spacingRight=0;verticalAlign=middle;html=1;labelBackgroundColor=#ffffff;rounded=0;" parent="87KkDVRo9M-gw6q3Ae4b-9" edge="1">
          <mxGeometry relative="1" as="geometry">
            <mxPoint as="offset" />
            <Array as="points" />
            <mxPoint y="10" as="sourcePoint" />
            <mxPoint x="20" y="10" as="targetPoint" />
          </mxGeometry>
        </mxCell>
        <mxCell id="87KkDVRo9M-gw6q3Ae4b-16" value="" style="endArrow=none;html=1;rounded=0;" parent="1" edge="1">
          <mxGeometry width="50" height="50" relative="1" as="geometry">
            <mxPoint x="610" y="500" as="sourcePoint" />
            <mxPoint x="810" y="500" as="targetPoint" />
          </mxGeometry>
        </mxCell>
        <mxCell id="87KkDVRo9M-gw6q3Ae4b-17" value="" style="endArrow=none;html=1;rounded=0;" parent="1" edge="1">
          <mxGeometry width="50" height="50" relative="1" as="geometry">
            <mxPoint x="360" y="500" as="sourcePoint" />
            <mxPoint x="560" y="500" as="targetPoint" />
          </mxGeometry>
        </mxCell>
        <mxCell id="87KkDVRo9M-gw6q3Ae4b-18" value="In_Valid" style="text;html=1;align=right;verticalAlign=middle;whiteSpace=wrap;rounded=0;" parent="1" vertex="1">
          <mxGeometry x="300" y="490" width="60" height="20" as="geometry" />
        </mxCell>
        <mxCell id="87KkDVRo9M-gw6q3Ae4b-19" value="" style="endArrow=classic;html=1;rounded=0;" parent="1" edge="1">
          <mxGeometry width="50" height="50" relative="1" as="geometry">
            <mxPoint x="860" y="500" as="sourcePoint" />
            <mxPoint x="880" y="500" as="targetPoint" />
          </mxGeometry>
        </mxCell>
        <mxCell id="87KkDVRo9M-gw6q3Ae4b-20" value="Out_Valid" style="text;html=1;align=left;verticalAlign=middle;whiteSpace=wrap;rounded=0;" parent="1" vertex="1">
          <mxGeometry x="880" y="490" width="60" height="20" as="geometry" />
        </mxCell>
      </root>
    </mxGraphModel>
  </diagram>
  <diagram id="WdDl-mImmQ0Ri9ZAZXT5" name="olo_base_reset_gen">
    <mxGraphModel dx="1378" dy="843" grid="1" gridSize="10" guides="1" tooltips="1" connect="1" arrows="1" fold="1" page="1" pageScale="1" pageWidth="10000" pageHeight="10000" math="0" shadow="0">
      <root>
        <mxCell id="0" />
        <mxCell id="1" parent="0" />
        <mxCell id="0hWpV5KJAdwgkbHep6AK-10" style="vsdxID=5;fillColor=none;gradientColor=none;strokeColor=none;labelBackgroundColor=none;rounded=0;html=1;whiteSpace=wrap;" parent="1" vertex="1">
          <mxGeometry x="310" y="240" width="50" height="40" as="geometry" />
        </mxCell>
        <mxCell id="0hWpV5KJAdwgkbHep6AK-11" style="vsdxID=6;fillColor=#FFFFFF;gradientColor=none;shape=stencil(nZBLDoAgDERP0z3SIyjew0SURgSD+Lu9kMZoXLhwN9O+tukAlrNpJg1SzDH4QW/URgNYgZTkjA4UkwJUgGXng+6DX1zLfmoymdXo17xh5zmRJ6Q42BWCfc2oJfdAr+Yv+AP9Cb7OJ3H/2JG1HNGz/84klThPVCc=);strokeColor=#000000;labelBackgroundColor=none;rounded=0;html=1;whiteSpace=wrap;" parent="0hWpV5KJAdwgkbHep6AK-10" vertex="1">
          <mxGeometry x="20" width="30" height="40" as="geometry" />
        </mxCell>
        <mxCell id="0hWpV5KJAdwgkbHep6AK-12" value="&lt;font style=&quot;font-size:14px;font-family:Calibri;color:#000000;direction:ltr;letter-spacing:0px;line-height:120%;opacity:1&quot;&gt;D&lt;br/&gt;&lt;/font&gt;" style="verticalAlign=middle;align=center;vsdxID=10;fillColor=none;gradientColor=none;shape=stencil(nZBLDoAgDERP0z3SIyjew0SURgSD+Lu9kMZoXLhwN9O+tukAlrNpJg1SzDH4QW/URgNYgZTkjA4UkwJUgGXng+6DX1zLfmoymdXo17xh5zmRJ6Q42BWCfc2oJfdAr+Yv+AP9Cb7OJ3H/2JG1HNGz/84klThPVCc=);strokeColor=none;spacingTop=-3;spacingBottom=-3;spacingLeft=-3;spacingRight=-3;labelBackgroundColor=none;rounded=0;html=1;whiteSpace=wrap;" parent="0hWpV5KJAdwgkbHep6AK-10" vertex="1">
          <mxGeometry x="22" y="5" width="10" height="10" as="geometry" />
        </mxCell>
        <mxCell id="0hWpV5KJAdwgkbHep6AK-13" value="&lt;font style=&quot;font-size:14px;font-family:Calibri;color:#000000;direction:ltr;letter-spacing:0px;line-height:120%;opacity:1&quot;&gt;Q&lt;br/&gt;&lt;/font&gt;" style="verticalAlign=middle;align=center;vsdxID=11;fillColor=none;gradientColor=none;shape=stencil(nZBLDoAgDERP0z3SIyjew0SURgSD+Lu9kMZoXLhwN9O+tukAlrNpJg1SzDH4QW/URgNYgZTkjA4UkwJUgGXng+6DX1zLfmoymdXo17xh5zmRJ6Q42BWCfc2oJfdAr+Yv+AP9Cb7OJ3H/2JG1HNGz/84klThPVCc=);strokeColor=none;spacingTop=-3;spacingBottom=-3;spacingLeft=-3;spacingRight=-3;labelBackgroundColor=none;rounded=0;html=1;whiteSpace=wrap;" parent="0hWpV5KJAdwgkbHep6AK-10" vertex="1">
          <mxGeometry x="38" y="5" width="10" height="10" as="geometry" />
        </mxCell>
        <mxCell id="0hWpV5KJAdwgkbHep6AK-14" style="vsdxID=7;edgeStyle=none;startArrow=none;endArrow=none;startSize=5;endSize=5;strokeColor=#000000;spacingTop=0;spacingBottom=0;spacingLeft=0;spacingRight=0;verticalAlign=middle;html=1;labelBackgroundColor=#ffffff;rounded=0;" parent="0hWpV5KJAdwgkbHep6AK-10" edge="1">
          <mxGeometry relative="1" as="geometry">
            <Array as="points" />
            <mxPoint x="32" y="40" as="sourcePoint" />
            <mxPoint x="36" y="32" as="targetPoint" />
          </mxGeometry>
        </mxCell>
        <mxCell id="0hWpV5KJAdwgkbHep6AK-15" style="vsdxID=8;edgeStyle=none;startArrow=none;endArrow=none;startSize=5;endSize=5;strokeColor=#000000;spacingTop=0;spacingBottom=0;spacingLeft=0;spacingRight=0;verticalAlign=middle;html=1;labelBackgroundColor=#ffffff;rounded=0;" parent="0hWpV5KJAdwgkbHep6AK-10" edge="1">
          <mxGeometry relative="1" as="geometry">
            <Array as="points" />
            <mxPoint x="36" y="32" as="sourcePoint" />
            <mxPoint x="40" y="40" as="targetPoint" />
          </mxGeometry>
        </mxCell>
        <mxCell id="0hWpV5KJAdwgkbHep6AK-16" style="vsdxID=9;edgeStyle=none;startArrow=none;endArrow=classic;startSize=5;endSize=5;strokeColor=#000000;spacingTop=0;spacingBottom=0;spacingLeft=0;spacingRight=0;verticalAlign=middle;html=1;labelBackgroundColor=#ffffff;rounded=0;" parent="0hWpV5KJAdwgkbHep6AK-10" edge="1">
          <mxGeometry relative="1" as="geometry">
            <mxPoint as="offset" />
            <Array as="points" />
            <mxPoint y="10" as="sourcePoint" />
            <mxPoint x="20" y="10" as="targetPoint" />
          </mxGeometry>
        </mxCell>
        <mxCell id="0hWpV5KJAdwgkbHep6AK-17" style="vsdxID=5;fillColor=none;gradientColor=none;strokeColor=none;labelBackgroundColor=none;rounded=0;html=1;whiteSpace=wrap;" parent="1" vertex="1">
          <mxGeometry x="360" y="240" width="50" height="40" as="geometry" />
        </mxCell>
        <mxCell id="0hWpV5KJAdwgkbHep6AK-18" style="vsdxID=6;fillColor=#FFFFFF;gradientColor=none;shape=stencil(nZBLDoAgDERP0z3SIyjew0SURgSD+Lu9kMZoXLhwN9O+tukAlrNpJg1SzDH4QW/URgNYgZTkjA4UkwJUgGXng+6DX1zLfmoymdXo17xh5zmRJ6Q42BWCfc2oJfdAr+Yv+AP9Cb7OJ3H/2JG1HNGz/84klThPVCc=);strokeColor=#000000;labelBackgroundColor=none;rounded=0;html=1;whiteSpace=wrap;" parent="0hWpV5KJAdwgkbHep6AK-17" vertex="1">
          <mxGeometry x="20" width="30" height="40" as="geometry" />
        </mxCell>
        <mxCell id="0hWpV5KJAdwgkbHep6AK-19" value="&lt;font style=&quot;font-size:14px;font-family:Calibri;color:#000000;direction:ltr;letter-spacing:0px;line-height:120%;opacity:1&quot;&gt;D&lt;br/&gt;&lt;/font&gt;" style="verticalAlign=middle;align=center;vsdxID=10;fillColor=none;gradientColor=none;shape=stencil(nZBLDoAgDERP0z3SIyjew0SURgSD+Lu9kMZoXLhwN9O+tukAlrNpJg1SzDH4QW/URgNYgZTkjA4UkwJUgGXng+6DX1zLfmoymdXo17xh5zmRJ6Q42BWCfc2oJfdAr+Yv+AP9Cb7OJ3H/2JG1HNGz/84klThPVCc=);strokeColor=none;spacingTop=-3;spacingBottom=-3;spacingLeft=-3;spacingRight=-3;labelBackgroundColor=none;rounded=0;html=1;whiteSpace=wrap;" parent="0hWpV5KJAdwgkbHep6AK-17" vertex="1">
          <mxGeometry x="22" y="5" width="10" height="10" as="geometry" />
        </mxCell>
        <mxCell id="0hWpV5KJAdwgkbHep6AK-20" value="&lt;font style=&quot;font-size:14px;font-family:Calibri;color:#000000;direction:ltr;letter-spacing:0px;line-height:120%;opacity:1&quot;&gt;Q&lt;br/&gt;&lt;/font&gt;" style="verticalAlign=middle;align=center;vsdxID=11;fillColor=none;gradientColor=none;shape=stencil(nZBLDoAgDERP0z3SIyjew0SURgSD+Lu9kMZoXLhwN9O+tukAlrNpJg1SzDH4QW/URgNYgZTkjA4UkwJUgGXng+6DX1zLfmoymdXo17xh5zmRJ6Q42BWCfc2oJfdAr+Yv+AP9Cb7OJ3H/2JG1HNGz/84klThPVCc=);strokeColor=none;spacingTop=-3;spacingBottom=-3;spacingLeft=-3;spacingRight=-3;labelBackgroundColor=none;rounded=0;html=1;whiteSpace=wrap;" parent="0hWpV5KJAdwgkbHep6AK-17" vertex="1">
          <mxGeometry x="38" y="5" width="10" height="10" as="geometry" />
        </mxCell>
        <mxCell id="0hWpV5KJAdwgkbHep6AK-21" style="vsdxID=7;edgeStyle=none;startArrow=none;endArrow=none;startSize=5;endSize=5;strokeColor=#000000;spacingTop=0;spacingBottom=0;spacingLeft=0;spacingRight=0;verticalAlign=middle;html=1;labelBackgroundColor=#ffffff;rounded=0;" parent="0hWpV5KJAdwgkbHep6AK-17" edge="1">
          <mxGeometry relative="1" as="geometry">
            <Array as="points" />
            <mxPoint x="32" y="40" as="sourcePoint" />
            <mxPoint x="36" y="32" as="targetPoint" />
          </mxGeometry>
        </mxCell>
        <mxCell id="0hWpV5KJAdwgkbHep6AK-22" style="vsdxID=8;edgeStyle=none;startArrow=none;endArrow=none;startSize=5;endSize=5;strokeColor=#000000;spacingTop=0;spacingBottom=0;spacingLeft=0;spacingRight=0;verticalAlign=middle;html=1;labelBackgroundColor=#ffffff;rounded=0;" parent="0hWpV5KJAdwgkbHep6AK-17" edge="1">
          <mxGeometry relative="1" as="geometry">
            <Array as="points" />
            <mxPoint x="36" y="32" as="sourcePoint" />
            <mxPoint x="40" y="40" as="targetPoint" />
          </mxGeometry>
        </mxCell>
        <mxCell id="0hWpV5KJAdwgkbHep6AK-23" style="vsdxID=9;edgeStyle=none;startArrow=none;endArrow=classic;startSize=5;endSize=5;strokeColor=#000000;spacingTop=0;spacingBottom=0;spacingLeft=0;spacingRight=0;verticalAlign=middle;html=1;labelBackgroundColor=#ffffff;rounded=0;" parent="0hWpV5KJAdwgkbHep6AK-17" edge="1">
          <mxGeometry relative="1" as="geometry">
            <mxPoint as="offset" />
            <Array as="points" />
            <mxPoint y="10" as="sourcePoint" />
            <mxPoint x="20" y="10" as="targetPoint" />
          </mxGeometry>
        </mxCell>
        <mxCell id="0hWpV5KJAdwgkbHep6AK-24" style="vsdxID=5;fillColor=none;gradientColor=none;strokeColor=none;labelBackgroundColor=none;rounded=0;html=1;whiteSpace=wrap;" parent="1" vertex="1">
          <mxGeometry x="410" y="240" width="50" height="40" as="geometry" />
        </mxCell>
        <mxCell id="0hWpV5KJAdwgkbHep6AK-25" style="vsdxID=6;fillColor=#FFFFFF;gradientColor=none;shape=stencil(nZBLDoAgDERP0z3SIyjew0SURgSD+Lu9kMZoXLhwN9O+tukAlrNpJg1SzDH4QW/URgNYgZTkjA4UkwJUgGXng+6DX1zLfmoymdXo17xh5zmRJ6Q42BWCfc2oJfdAr+Yv+AP9Cb7OJ3H/2JG1HNGz/84klThPVCc=);strokeColor=#000000;labelBackgroundColor=none;rounded=0;html=1;whiteSpace=wrap;" parent="0hWpV5KJAdwgkbHep6AK-24" vertex="1">
          <mxGeometry x="20" width="30" height="40" as="geometry" />
        </mxCell>
        <mxCell id="0hWpV5KJAdwgkbHep6AK-26" value="&lt;font style=&quot;font-size:14px;font-family:Calibri;color:#000000;direction:ltr;letter-spacing:0px;line-height:120%;opacity:1&quot;&gt;D&lt;br/&gt;&lt;/font&gt;" style="verticalAlign=middle;align=center;vsdxID=10;fillColor=none;gradientColor=none;shape=stencil(nZBLDoAgDERP0z3SIyjew0SURgSD+Lu9kMZoXLhwN9O+tukAlrNpJg1SzDH4QW/URgNYgZTkjA4UkwJUgGXng+6DX1zLfmoymdXo17xh5zmRJ6Q42BWCfc2oJfdAr+Yv+AP9Cb7OJ3H/2JG1HNGz/84klThPVCc=);strokeColor=none;spacingTop=-3;spacingBottom=-3;spacingLeft=-3;spacingRight=-3;labelBackgroundColor=none;rounded=0;html=1;whiteSpace=wrap;" parent="0hWpV5KJAdwgkbHep6AK-24" vertex="1">
          <mxGeometry x="22" y="5" width="10" height="10" as="geometry" />
        </mxCell>
        <mxCell id="0hWpV5KJAdwgkbHep6AK-27" value="&lt;font style=&quot;font-size:14px;font-family:Calibri;color:#000000;direction:ltr;letter-spacing:0px;line-height:120%;opacity:1&quot;&gt;Q&lt;br/&gt;&lt;/font&gt;" style="verticalAlign=middle;align=center;vsdxID=11;fillColor=none;gradientColor=none;shape=stencil(nZBLDoAgDERP0z3SIyjew0SURgSD+Lu9kMZoXLhwN9O+tukAlrNpJg1SzDH4QW/URgNYgZTkjA4UkwJUgGXng+6DX1zLfmoymdXo17xh5zmRJ6Q42BWCfc2oJfdAr+Yv+AP9Cb7OJ3H/2JG1HNGz/84klThPVCc=);strokeColor=none;spacingTop=-3;spacingBottom=-3;spacingLeft=-3;spacingRight=-3;labelBackgroundColor=none;rounded=0;html=1;whiteSpace=wrap;" parent="0hWpV5KJAdwgkbHep6AK-24" vertex="1">
          <mxGeometry x="38" y="5" width="10" height="10" as="geometry" />
        </mxCell>
        <mxCell id="0hWpV5KJAdwgkbHep6AK-28" style="vsdxID=7;edgeStyle=none;startArrow=none;endArrow=none;startSize=5;endSize=5;strokeColor=#000000;spacingTop=0;spacingBottom=0;spacingLeft=0;spacingRight=0;verticalAlign=middle;html=1;labelBackgroundColor=#ffffff;rounded=0;" parent="0hWpV5KJAdwgkbHep6AK-24" edge="1">
          <mxGeometry relative="1" as="geometry">
            <Array as="points" />
            <mxPoint x="32" y="40" as="sourcePoint" />
            <mxPoint x="36" y="32" as="targetPoint" />
          </mxGeometry>
        </mxCell>
        <mxCell id="0hWpV5KJAdwgkbHep6AK-29" style="vsdxID=8;edgeStyle=none;startArrow=none;endArrow=none;startSize=5;endSize=5;strokeColor=#000000;spacingTop=0;spacingBottom=0;spacingLeft=0;spacingRight=0;verticalAlign=middle;html=1;labelBackgroundColor=#ffffff;rounded=0;" parent="0hWpV5KJAdwgkbHep6AK-24" edge="1">
          <mxGeometry relative="1" as="geometry">
            <Array as="points" />
            <mxPoint x="36" y="32" as="sourcePoint" />
            <mxPoint x="40" y="40" as="targetPoint" />
          </mxGeometry>
        </mxCell>
        <mxCell id="0hWpV5KJAdwgkbHep6AK-30" style="vsdxID=9;edgeStyle=none;startArrow=none;endArrow=classic;startSize=5;endSize=5;strokeColor=#000000;spacingTop=0;spacingBottom=0;spacingLeft=0;spacingRight=0;verticalAlign=middle;html=1;labelBackgroundColor=#ffffff;rounded=0;" parent="0hWpV5KJAdwgkbHep6AK-24" edge="1">
          <mxGeometry relative="1" as="geometry">
            <mxPoint as="offset" />
            <Array as="points" />
            <mxPoint y="10" as="sourcePoint" />
            <mxPoint x="20" y="10" as="targetPoint" />
          </mxGeometry>
        </mxCell>
        <mxCell id="0hWpV5KJAdwgkbHep6AK-31" value="" style="endArrow=classic;html=1;rounded=0;entryX=0.331;entryY=-0.024;entryDx=0;entryDy=0;entryPerimeter=0;exitX=1;exitY=0.5;exitDx=0;exitDy=0;" parent="1" source="ooMDWhop2EVzHbXgvjHq-13" target="0hWpV5KJAdwgkbHep6AK-25" edge="1">
          <mxGeometry width="50" height="50" relative="1" as="geometry">
            <mxPoint x="210" y="220" as="sourcePoint" />
            <mxPoint x="446" y="240" as="targetPoint" />
            <Array as="points">
              <mxPoint x="440" y="220" />
            </Array>
          </mxGeometry>
        </mxCell>
        <mxCell id="0hWpV5KJAdwgkbHep6AK-32" value="" style="endArrow=classic;html=1;rounded=0;startArrow=oval;startFill=1;" parent="1" edge="1">
          <mxGeometry width="50" height="50" relative="1" as="geometry">
            <mxPoint x="390" y="220" as="sourcePoint" />
            <mxPoint x="390" y="240" as="targetPoint" />
          </mxGeometry>
        </mxCell>
        <mxCell id="0hWpV5KJAdwgkbHep6AK-33" value="" style="endArrow=classic;html=1;rounded=0;startArrow=oval;startFill=1;" parent="1" edge="1">
          <mxGeometry width="50" height="50" relative="1" as="geometry">
            <mxPoint x="340" y="220" as="sourcePoint" />
            <mxPoint x="340" y="240" as="targetPoint" />
          </mxGeometry>
        </mxCell>
        <mxCell id="ooMDWhop2EVzHbXgvjHq-1" value="&#39;0&#39;" style="text;html=1;align=right;verticalAlign=middle;whiteSpace=wrap;rounded=0;" parent="1" vertex="1">
          <mxGeometry x="250" y="240" width="60" height="20" as="geometry" />
        </mxCell>
        <mxCell id="ooMDWhop2EVzHbXgvjHq-13" style="vsdxID=5;fillColor=none;gradientColor=none;strokeColor=none;labelBackgroundColor=none;rounded=0;html=1;whiteSpace=wrap;" parent="1" vertex="1">
          <mxGeometry x="240" y="200" width="44" height="40" as="geometry" />
        </mxCell>
        <mxCell id="ooMDWhop2EVzHbXgvjHq-14" style="vsdxID=6;fillColor=#FFFFFF;gradientColor=none;shape=stencil(nZBLDoAgDERP0z3SIyjew0SURgSD+Lu9kMZoXLhwN9O+tukAlrNpJg1SzDH4QW/URgNYgZTkjA4UkwJUgGXng+6DX1zLfmoymdXo17xh5zmRJ6Q42BWCfc2oJfdAr+Yv+AP9Cb7OJ3H/2JG1HNGz/84klThPVCc=);strokeColor=#000000;labelBackgroundColor=none;rounded=0;html=1;whiteSpace=wrap;" parent="ooMDWhop2EVzHbXgvjHq-13" vertex="1">
          <mxGeometry x="20" width="20" height="40" as="geometry" />
        </mxCell>
        <mxCell id="ooMDWhop2EVzHbXgvjHq-15" value="&lt;p style=&quot;align:center;margin-left:0;margin-right:0;margin-top:0px;margin-bottom:0px;text-indent:0;valign:middle;direction:ltr;&quot;&gt;&lt;font style=&quot;font-size:11px;font-family:Calibri;color:#000000;direction:ltr;letter-spacing:0px;line-height:120%;opacity:1&quot;&gt;=1&lt;/font&gt;&lt;font style=&quot;font-size:11px;font-family:Calibri;color:#000000;direction:ltr;letter-spacing:0px;line-height:120%;opacity:1&quot;&gt;&lt;br/&gt;&lt;/font&gt;&lt;/p&gt;" style="verticalAlign=middle;align=center;vsdxID=7;fillColor=none;gradientColor=none;shape=stencil(nZBLDoAgDERP0z3SIyjew0SURgSD+Lu9kMZoXLhwN9O+tukAlrNpJg1SzDH4QW/URgNYgZTkjA4UkwJUgGXng+6DX1zLfmoymdXo17xh5zmRJ6Q42BWCfc2oJfdAr+Yv+AP9Cb7OJ3H/2JG1HNGz/84klThPVCc=);strokeColor=none;spacingTop=-3;spacingBottom=-3;spacingLeft=-3;spacingRight=-3;labelBackgroundColor=none;rounded=0;html=1;whiteSpace=wrap;" parent="ooMDWhop2EVzHbXgvjHq-13" vertex="1">
          <mxGeometry x="20" y="10" width="20" height="20" as="geometry" />
        </mxCell>
        <mxCell id="ooMDWhop2EVzHbXgvjHq-16" style="vsdxID=10;fillColor=#FFFFFF;gradientColor=none;shape=stencil(vVHLDsIgEPwajiQI6RfU+h8bu22JCGRB2/69kG1iazx58DazM/vIjjBtmiCi0CplCjecbZ8nYc5Ca+snJJsLEqYTph0C4Ujh4XvmEaqzont41gkL96naodXKrGF6YSfQtUi0OXXDVlqPfJNP6usotUhYbJIUMmQb/GGrAxpRljVycDBuc1hKM2LclX8/7H9nFfB+82Cd45T2+mcspcSRmu4F);strokeColor=#000000;labelBackgroundColor=none;rounded=0;html=1;whiteSpace=wrap;" parent="ooMDWhop2EVzHbXgvjHq-13" vertex="1">
          <mxGeometry x="40" y="17" width="4" height="4" as="geometry" />
        </mxCell>
        <mxCell id="ooMDWhop2EVzHbXgvjHq-17" style="vsdxID=8;edgeStyle=none;startArrow=none;endArrow=classic;startSize=5;endSize=5;strokeColor=#000000;spacingTop=0;spacingBottom=0;spacingLeft=0;spacingRight=0;verticalAlign=middle;html=1;labelBackgroundColor=#ffffff;rounded=0;" parent="ooMDWhop2EVzHbXgvjHq-13" edge="1">
          <mxGeometry relative="1" as="geometry">
            <mxPoint as="offset" />
            <Array as="points" />
            <mxPoint y="10" as="sourcePoint" />
            <mxPoint x="20" y="10" as="targetPoint" />
          </mxGeometry>
        </mxCell>
        <mxCell id="ooMDWhop2EVzHbXgvjHq-18" style="vsdxID=9;edgeStyle=none;startArrow=none;endArrow=classic;startSize=5;endSize=5;strokeColor=#000000;spacingTop=0;spacingBottom=0;spacingLeft=0;spacingRight=0;verticalAlign=middle;html=1;labelBackgroundColor=#ffffff;rounded=0;" parent="ooMDWhop2EVzHbXgvjHq-13" edge="1">
          <mxGeometry relative="1" as="geometry">
            <mxPoint as="offset" />
            <Array as="points" />
            <mxPoint y="30" as="sourcePoint" />
            <mxPoint x="20" y="30" as="targetPoint" />
          </mxGeometry>
        </mxCell>
        <mxCell id="ooMDWhop2EVzHbXgvjHq-19" value="&lt;div style=&quot;background-color: rgb(255, 255, 255); font-size: 12px; line-height: 19px; white-space: pre;&quot;&gt;RstInPolarity_g&lt;/div&gt;" style="text;html=1;align=right;verticalAlign=middle;whiteSpace=wrap;rounded=0;fontFamily=Helvetica;fontSize=12;" parent="1" vertex="1">
          <mxGeometry x="180" y="220" width="60" height="20" as="geometry" />
        </mxCell>
        <mxCell id="ooMDWhop2EVzHbXgvjHq-20" value="&lt;div style=&quot;background-color: rgb(255, 255, 255); font-size: 12px; line-height: 19px; white-space: pre;&quot;&gt;RstIn&lt;/div&gt;" style="text;html=1;align=right;verticalAlign=middle;whiteSpace=wrap;rounded=0;fontFamily=Helvetica;fontSize=12;" parent="1" vertex="1">
          <mxGeometry x="180" y="200" width="60" height="20" as="geometry" />
        </mxCell>
        <mxCell id="WPARG3KpNgIiVXDBCxhU-1" value="Reset Pulse&lt;div&gt;Counter&lt;/div&gt;" style="rounded=1;whiteSpace=wrap;html=1;fillColor=#dae8fc;strokeColor=#6c8ebf;" parent="1" vertex="1">
          <mxGeometry x="500" y="240" width="80" height="40" as="geometry" />
        </mxCell>
        <mxCell id="WPARG3KpNgIiVXDBCxhU-2" value="" style="endArrow=classic;html=1;rounded=0;" parent="1" edge="1">
          <mxGeometry width="50" height="50" relative="1" as="geometry">
            <mxPoint x="460" y="249.82999999999998" as="sourcePoint" />
            <mxPoint x="500" y="249.82999999999998" as="targetPoint" />
          </mxGeometry>
        </mxCell>
        <mxCell id="WPARG3KpNgIiVXDBCxhU-3" value="" style="endArrow=classic;html=1;rounded=0;" parent="1" edge="1">
          <mxGeometry width="50" height="50" relative="1" as="geometry">
            <mxPoint x="580" y="249.82999999999998" as="sourcePoint" />
            <mxPoint x="660" y="250" as="targetPoint" />
          </mxGeometry>
        </mxCell>
        <mxCell id="WPARG3KpNgIiVXDBCxhU-4" style="vsdxID=5;fillColor=none;gradientColor=none;strokeColor=none;labelBackgroundColor=none;rounded=0;html=1;whiteSpace=wrap;" parent="1" vertex="1">
          <mxGeometry x="590" y="240" width="40" height="40" as="geometry" />
        </mxCell>
        <mxCell id="WPARG3KpNgIiVXDBCxhU-5" style="vsdxID=6;fillColor=#FFFFFF;gradientColor=none;shape=stencil(nZBLDoAgDERP0z3SIyjew0SURgSD+Lu9kMZoXLhwN9O+tukAlrNpJg1SzDH4QW/URgNYgZTkjA4UkwJUgGXng+6DX1zLfmoymdXo17xh5zmRJ6Q42BWCfc2oJfdAr+Yv+AP9Cb7OJ3H/2JG1HNGz/84klThPVCc=);strokeColor=#ff0000;labelBackgroundColor=none;rounded=0;html=1;whiteSpace=wrap;" parent="WPARG3KpNgIiVXDBCxhU-4" vertex="1">
          <mxGeometry x="20" width="20" height="40" as="geometry" />
        </mxCell>
        <mxCell id="WPARG3KpNgIiVXDBCxhU-6" value="&lt;p style=&quot;align:center;margin-left:0;margin-right:0;margin-top:0px;margin-bottom:0px;text-indent:0;valign:middle;direction:ltr;&quot;&gt;&lt;font style=&quot;font-size:11px;font-family:Calibri;color:#000000;direction:ltr;letter-spacing:0px;line-height:120%;opacity:1&quot;&gt;≥&lt;/font&gt;&lt;font style=&quot;font-size:11px;font-family:Calibri;color:#000000;direction:ltr;letter-spacing:0px;line-height:120%;opacity:1&quot;&gt;1&lt;br/&gt;&lt;/font&gt;&lt;/p&gt;" style="verticalAlign=middle;align=center;vsdxID=7;fillColor=none;gradientColor=none;shape=stencil(nZBLDoAgDERP0z3SIyjew0SURgSD+Lu9kMZoXLhwN9O+tukAlrNpJg1SzDH4QW/URgNYgZTkjA4UkwJUgGXng+6DX1zLfmoymdXo17xh5zmRJ6Q42BWCfc2oJfdAr+Yv+AP9Cb7OJ3H/2JG1HNGz/84klThPVCc=);strokeColor=none;spacingTop=-3;spacingBottom=-3;spacingLeft=-3;spacingRight=-3;labelBackgroundColor=none;rounded=0;html=1;whiteSpace=wrap;" parent="WPARG3KpNgIiVXDBCxhU-4" vertex="1">
          <mxGeometry x="20" y="10" width="20" height="20" as="geometry" />
        </mxCell>
        <mxCell id="WPARG3KpNgIiVXDBCxhU-7" style="vsdxID=8;edgeStyle=none;startArrow=none;endArrow=classic;startSize=5;endSize=5;strokeColor=#000000;spacingTop=0;spacingBottom=0;spacingLeft=0;spacingRight=0;verticalAlign=middle;html=1;labelBackgroundColor=#ffffff;rounded=0;" parent="WPARG3KpNgIiVXDBCxhU-4" edge="1">
          <mxGeometry relative="1" as="geometry">
            <mxPoint as="offset" />
            <Array as="points" />
            <mxPoint y="10" as="sourcePoint" />
            <mxPoint x="20" y="10" as="targetPoint" />
          </mxGeometry>
        </mxCell>
        <mxCell id="WPARG3KpNgIiVXDBCxhU-8" style="vsdxID=9;edgeStyle=none;startArrow=none;endArrow=classic;startSize=5;endSize=5;strokeColor=#ff0000;spacingTop=0;spacingBottom=0;spacingLeft=0;spacingRight=0;verticalAlign=middle;html=1;labelBackgroundColor=#ffffff;rounded=0;" parent="WPARG3KpNgIiVXDBCxhU-4" edge="1">
          <mxGeometry relative="1" as="geometry">
            <mxPoint as="offset" />
            <Array as="points" />
            <mxPoint y="30" as="sourcePoint" />
            <mxPoint x="20" y="30" as="targetPoint" />
          </mxGeometry>
        </mxCell>
        <mxCell id="WPARG3KpNgIiVXDBCxhU-9" value="" style="endArrow=none;html=1;rounded=0;startArrow=oval;startFill=1;strokeColor=#ff0000;entryX=0;entryY=0.75;entryDx=0;entryDy=0;endFill=0;" parent="1" target="WPARG3KpNgIiVXDBCxhU-4" edge="1">
          <mxGeometry width="50" height="50" relative="1" as="geometry">
            <mxPoint x="480" y="250" as="sourcePoint" />
            <mxPoint x="480" y="270" as="targetPoint" />
            <Array as="points">
              <mxPoint x="480" y="290" />
              <mxPoint x="590" y="290" />
            </Array>
          </mxGeometry>
        </mxCell>
        <mxCell id="WPARG3KpNgIiVXDBCxhU-10" value="RstOut" style="text;html=1;align=left;verticalAlign=middle;whiteSpace=wrap;rounded=0;fontFamily=Helvetica;fontSize=12;" parent="1" vertex="1">
          <mxGeometry x="660" y="240" width="60" height="20" as="geometry" />
        </mxCell>
      </root>
    </mxGraphModel>
  </diagram>
  <diagram id="NS6pHZLnMg9CSLAGjJoI" name="olo_base_flowctrl_handler">
    <mxGraphModel dx="656" dy="401" grid="1" gridSize="10" guides="1" tooltips="1" connect="1" arrows="1" fold="1" page="1" pageScale="1" pageWidth="10000" pageHeight="10000" math="0" shadow="0">
      <root>
        <mxCell id="0" />
        <mxCell id="1" parent="0" />
        <mxCell id="qK7k_QjEXLFmSZod9N9d-54" value="" style="rounded=1;whiteSpace=wrap;html=1;fillColor=#dae8fc;strokeColor=#6c8ebf;" vertex="1" parent="1">
          <mxGeometry x="520" y="940" width="300" height="90" as="geometry" />
        </mxCell>
        <mxCell id="jl0rWfN7LNZibrmEoSb9-1" value="Processing&amp;nbsp;&lt;div&gt;without Flow-Control&lt;/div&gt;" style="rounded=1;whiteSpace=wrap;html=1;fillColor=#f5f5f5;fontColor=#333333;strokeColor=#666666;" vertex="1" parent="1">
          <mxGeometry x="560" y="360" width="160" height="40" as="geometry" />
        </mxCell>
        <mxCell id="jl0rWfN7LNZibrmEoSb9-2" value="olo_base_flowctrl_handler" style="rounded=1;whiteSpace=wrap;html=1;fillColor=#dae8fc;strokeColor=#6c8ebf;" vertex="1" parent="1">
          <mxGeometry x="480" y="420" width="320" height="60" as="geometry" />
        </mxCell>
        <mxCell id="jl0rWfN7LNZibrmEoSb9-3" value="" style="endArrow=classic;html=1;rounded=0;" edge="1" parent="1">
          <mxGeometry width="50" height="50" relative="1" as="geometry">
            <mxPoint x="440" y="430" as="sourcePoint" />
            <mxPoint x="480" y="430" as="targetPoint" />
          </mxGeometry>
        </mxCell>
        <mxCell id="jl0rWfN7LNZibrmEoSb9-4" value="" style="endArrow=classic;html=1;rounded=0;" edge="1" parent="1">
          <mxGeometry width="50" height="50" relative="1" as="geometry">
            <mxPoint x="440" y="449.83" as="sourcePoint" />
            <mxPoint x="480" y="449.83" as="targetPoint" />
          </mxGeometry>
        </mxCell>
        <mxCell id="jl0rWfN7LNZibrmEoSb9-5" value="" style="endArrow=none;html=1;rounded=0;startArrow=classic;startFill=1;endFill=0;" edge="1" parent="1">
          <mxGeometry width="50" height="50" relative="1" as="geometry">
            <mxPoint x="440" y="470" as="sourcePoint" />
            <mxPoint x="480" y="470" as="targetPoint" />
          </mxGeometry>
        </mxCell>
        <mxCell id="jl0rWfN7LNZibrmEoSb9-6" value="" style="endArrow=classic;html=1;rounded=0;exitX=0;exitY=0;exitDx=0;exitDy=0;" edge="1" parent="1">
          <mxGeometry width="50" height="50" relative="1" as="geometry">
            <mxPoint x="500.0000000000001" y="420" as="sourcePoint" />
            <mxPoint x="560" y="370" as="targetPoint" />
            <Array as="points">
              <mxPoint x="500" y="370" />
            </Array>
          </mxGeometry>
        </mxCell>
        <mxCell id="jl0rWfN7LNZibrmEoSb9-7" value="" style="endArrow=classic;html=1;rounded=0;" edge="1" parent="1">
          <mxGeometry width="50" height="50" relative="1" as="geometry">
            <mxPoint x="520" y="420" as="sourcePoint" />
            <mxPoint x="560" y="390" as="targetPoint" />
            <Array as="points">
              <mxPoint x="520" y="390" />
            </Array>
          </mxGeometry>
        </mxCell>
        <mxCell id="jl0rWfN7LNZibrmEoSb9-8" value="" style="endArrow=classic;html=1;rounded=0;" edge="1" parent="1">
          <mxGeometry width="50" height="50" relative="1" as="geometry">
            <mxPoint x="720" y="390" as="sourcePoint" />
            <mxPoint x="760" y="420" as="targetPoint" />
            <Array as="points">
              <mxPoint x="760" y="390" />
            </Array>
          </mxGeometry>
        </mxCell>
        <mxCell id="jl0rWfN7LNZibrmEoSb9-9" value="" style="endArrow=classic;html=1;rounded=0;" edge="1" parent="1">
          <mxGeometry width="50" height="50" relative="1" as="geometry">
            <mxPoint x="720" y="370" as="sourcePoint" />
            <mxPoint x="780" y="420" as="targetPoint" />
            <Array as="points">
              <mxPoint x="780" y="370" />
            </Array>
          </mxGeometry>
        </mxCell>
        <mxCell id="jl0rWfN7LNZibrmEoSb9-10" value="" style="endArrow=classic;html=1;rounded=0;" edge="1" parent="1">
          <mxGeometry width="50" height="50" relative="1" as="geometry">
            <mxPoint x="800" y="429.76" as="sourcePoint" />
            <mxPoint x="840" y="429.76" as="targetPoint" />
          </mxGeometry>
        </mxCell>
        <mxCell id="jl0rWfN7LNZibrmEoSb9-11" value="" style="endArrow=classic;html=1;rounded=0;" edge="1" parent="1">
          <mxGeometry width="50" height="50" relative="1" as="geometry">
            <mxPoint x="800" y="449.59" as="sourcePoint" />
            <mxPoint x="840" y="449.59" as="targetPoint" />
          </mxGeometry>
        </mxCell>
        <mxCell id="jl0rWfN7LNZibrmEoSb9-12" value="" style="endArrow=none;html=1;rounded=0;startArrow=classic;startFill=1;endFill=0;" edge="1" parent="1">
          <mxGeometry width="50" height="50" relative="1" as="geometry">
            <mxPoint x="800" y="469.76" as="sourcePoint" />
            <mxPoint x="840" y="469.76" as="targetPoint" />
          </mxGeometry>
        </mxCell>
        <mxCell id="eecIk6lGfjhcysPjGBMf-1" value="In_Data" style="text;html=1;align=right;verticalAlign=middle;whiteSpace=wrap;rounded=0;fontFamily=Helvetica;fontSize=12;" vertex="1" parent="1">
          <mxGeometry x="380" y="420" width="60" height="20" as="geometry" />
        </mxCell>
        <mxCell id="eecIk6lGfjhcysPjGBMf-2" value="In_Valid" style="text;html=1;align=right;verticalAlign=middle;whiteSpace=wrap;rounded=0;fontFamily=Helvetica;fontSize=12;" vertex="1" parent="1">
          <mxGeometry x="380" y="440" width="60" height="20" as="geometry" />
        </mxCell>
        <mxCell id="eecIk6lGfjhcysPjGBMf-3" value="In_Ready" style="text;html=1;align=right;verticalAlign=middle;whiteSpace=wrap;rounded=0;fontFamily=Helvetica;fontSize=12;" vertex="1" parent="1">
          <mxGeometry x="380" y="460" width="60" height="20" as="geometry" />
        </mxCell>
        <mxCell id="G-WVTd4kFDV-B4l01dd6-1" value="Out_Data" style="text;html=1;align=left;verticalAlign=middle;whiteSpace=wrap;rounded=0;fontFamily=Helvetica;fontSize=12;" vertex="1" parent="1">
          <mxGeometry x="840" y="420" width="60" height="20" as="geometry" />
        </mxCell>
        <mxCell id="G-WVTd4kFDV-B4l01dd6-2" value="Out_Valid" style="text;html=1;align=left;verticalAlign=middle;whiteSpace=wrap;rounded=0;fontFamily=Helvetica;fontSize=12;" vertex="1" parent="1">
          <mxGeometry x="840" y="440" width="60" height="20" as="geometry" />
        </mxCell>
        <mxCell id="G-WVTd4kFDV-B4l01dd6-3" value="Out_Ready" style="text;html=1;align=left;verticalAlign=middle;whiteSpace=wrap;rounded=0;fontFamily=Helvetica;fontSize=12;" vertex="1" parent="1">
          <mxGeometry x="840" y="460" width="60" height="20" as="geometry" />
        </mxCell>
        <mxCell id="MxkmVZKLrqtd9-mmax9k-1" value="ToProc_Data" style="text;html=1;align=left;verticalAlign=middle;whiteSpace=wrap;rounded=0;fontSize=8;" vertex="1" parent="1">
          <mxGeometry x="500" y="360" width="60" height="10" as="geometry" />
        </mxCell>
        <mxCell id="MxkmVZKLrqtd9-mmax9k-2" value="ToProc_Valid" style="text;html=1;align=left;verticalAlign=middle;whiteSpace=wrap;rounded=0;fontSize=8;" vertex="1" parent="1">
          <mxGeometry x="500" y="380" width="60" height="10" as="geometry" />
        </mxCell>
        <mxCell id="MxkmVZKLrqtd9-mmax9k-3" value="FromProc_Data" style="text;html=1;align=left;verticalAlign=middle;whiteSpace=wrap;rounded=0;fontSize=8;" vertex="1" parent="1">
          <mxGeometry x="720" y="360" width="60" height="10" as="geometry" />
        </mxCell>
        <mxCell id="MxkmVZKLrqtd9-mmax9k-4" value="FromProc_Valid" style="text;html=1;align=left;verticalAlign=middle;whiteSpace=wrap;rounded=0;fontSize=8;" vertex="1" parent="1">
          <mxGeometry x="720" y="380" width="60" height="10" as="geometry" />
        </mxCell>
        <mxCell id="MxkmVZKLrqtd9-mmax9k-5" value="Processing&amp;nbsp;&lt;div&gt;without Flow-Control&lt;/div&gt;&lt;div&gt;N Pipeline Stages&lt;/div&gt;" style="rounded=1;whiteSpace=wrap;html=1;fillColor=#f5f5f5;fontColor=#333333;strokeColor=#666666;" vertex="1" parent="1">
          <mxGeometry x="560" y="590" width="160" height="50" as="geometry" />
        </mxCell>
        <mxCell id="MxkmVZKLrqtd9-mmax9k-6" value="olo_base_flowctrl_handler" style="rounded=1;whiteSpace=wrap;html=1;fillColor=#dae8fc;strokeColor=#6c8ebf;" vertex="1" parent="1">
          <mxGeometry x="480" y="700" width="320" height="60" as="geometry" />
        </mxCell>
        <mxCell id="MxkmVZKLrqtd9-mmax9k-7" value="" style="endArrow=classic;html=1;rounded=0;" edge="1" parent="1">
          <mxGeometry width="50" height="50" relative="1" as="geometry">
            <mxPoint x="440" y="710" as="sourcePoint" />
            <mxPoint x="480" y="710" as="targetPoint" />
          </mxGeometry>
        </mxCell>
        <mxCell id="MxkmVZKLrqtd9-mmax9k-8" value="" style="endArrow=classic;html=1;rounded=0;" edge="1" parent="1">
          <mxGeometry width="50" height="50" relative="1" as="geometry">
            <mxPoint x="440" y="729.8299999999999" as="sourcePoint" />
            <mxPoint x="480" y="729.8299999999999" as="targetPoint" />
          </mxGeometry>
        </mxCell>
        <mxCell id="MxkmVZKLrqtd9-mmax9k-9" value="" style="endArrow=none;html=1;rounded=0;startArrow=classic;startFill=1;endFill=0;" edge="1" parent="1">
          <mxGeometry width="50" height="50" relative="1" as="geometry">
            <mxPoint x="440" y="750" as="sourcePoint" />
            <mxPoint x="480" y="750" as="targetPoint" />
          </mxGeometry>
        </mxCell>
        <mxCell id="MxkmVZKLrqtd9-mmax9k-10" value="" style="endArrow=classic;html=1;rounded=0;exitX=0;exitY=0;exitDx=0;exitDy=0;entryX=0;entryY=0.5;entryDx=0;entryDy=0;" edge="1" parent="1" target="MxkmVZKLrqtd9-mmax9k-5">
          <mxGeometry width="50" height="50" relative="1" as="geometry">
            <mxPoint x="500.0000000000001" y="700" as="sourcePoint" />
            <mxPoint x="560" y="650" as="targetPoint" />
            <Array as="points">
              <mxPoint x="500" y="615" />
            </Array>
          </mxGeometry>
        </mxCell>
        <mxCell id="MxkmVZKLrqtd9-mmax9k-11" value="" style="endArrow=classic;html=1;rounded=0;" edge="1" parent="1">
          <mxGeometry width="50" height="50" relative="1" as="geometry">
            <mxPoint x="520" y="700" as="sourcePoint" />
            <mxPoint x="560" y="670" as="targetPoint" />
            <Array as="points">
              <mxPoint x="520" y="670" />
            </Array>
          </mxGeometry>
        </mxCell>
        <mxCell id="MxkmVZKLrqtd9-mmax9k-12" value="" style="endArrow=classic;html=1;rounded=0;" edge="1" parent="1">
          <mxGeometry width="50" height="50" relative="1" as="geometry">
            <mxPoint x="720" y="670" as="sourcePoint" />
            <mxPoint x="760" y="700" as="targetPoint" />
            <Array as="points">
              <mxPoint x="760" y="670" />
            </Array>
          </mxGeometry>
        </mxCell>
        <mxCell id="MxkmVZKLrqtd9-mmax9k-13" value="" style="endArrow=classic;html=1;rounded=0;exitX=1;exitY=0.5;exitDx=0;exitDy=0;" edge="1" parent="1" source="MxkmVZKLrqtd9-mmax9k-5">
          <mxGeometry width="50" height="50" relative="1" as="geometry">
            <mxPoint x="720" y="650" as="sourcePoint" />
            <mxPoint x="780" y="700" as="targetPoint" />
            <Array as="points">
              <mxPoint x="780" y="615" />
            </Array>
          </mxGeometry>
        </mxCell>
        <mxCell id="MxkmVZKLrqtd9-mmax9k-14" value="" style="endArrow=classic;html=1;rounded=0;" edge="1" parent="1">
          <mxGeometry width="50" height="50" relative="1" as="geometry">
            <mxPoint x="800" y="709.76" as="sourcePoint" />
            <mxPoint x="840" y="709.76" as="targetPoint" />
          </mxGeometry>
        </mxCell>
        <mxCell id="MxkmVZKLrqtd9-mmax9k-15" value="" style="endArrow=classic;html=1;rounded=0;" edge="1" parent="1">
          <mxGeometry width="50" height="50" relative="1" as="geometry">
            <mxPoint x="800" y="729.5899999999999" as="sourcePoint" />
            <mxPoint x="840" y="729.5899999999999" as="targetPoint" />
          </mxGeometry>
        </mxCell>
        <mxCell id="MxkmVZKLrqtd9-mmax9k-16" value="" style="endArrow=none;html=1;rounded=0;startArrow=classic;startFill=1;endFill=0;" edge="1" parent="1">
          <mxGeometry width="50" height="50" relative="1" as="geometry">
            <mxPoint x="800" y="749.76" as="sourcePoint" />
            <mxPoint x="840" y="749.76" as="targetPoint" />
          </mxGeometry>
        </mxCell>
        <mxCell id="MxkmVZKLrqtd9-mmax9k-17" value="In_Data" style="text;html=1;align=right;verticalAlign=middle;whiteSpace=wrap;rounded=0;fontFamily=Helvetica;fontSize=12;" vertex="1" parent="1">
          <mxGeometry x="380" y="700" width="60" height="20" as="geometry" />
        </mxCell>
        <mxCell id="MxkmVZKLrqtd9-mmax9k-18" value="In_Valid" style="text;html=1;align=right;verticalAlign=middle;whiteSpace=wrap;rounded=0;fontFamily=Helvetica;fontSize=12;" vertex="1" parent="1">
          <mxGeometry x="380" y="720" width="60" height="20" as="geometry" />
        </mxCell>
        <mxCell id="MxkmVZKLrqtd9-mmax9k-19" value="In_Ready" style="text;html=1;align=right;verticalAlign=middle;whiteSpace=wrap;rounded=0;fontFamily=Helvetica;fontSize=12;" vertex="1" parent="1">
          <mxGeometry x="380" y="740" width="60" height="20" as="geometry" />
        </mxCell>
        <mxCell id="MxkmVZKLrqtd9-mmax9k-20" value="Out_Data" style="text;html=1;align=left;verticalAlign=middle;whiteSpace=wrap;rounded=0;fontFamily=Helvetica;fontSize=12;" vertex="1" parent="1">
          <mxGeometry x="840" y="700" width="60" height="20" as="geometry" />
        </mxCell>
        <mxCell id="MxkmVZKLrqtd9-mmax9k-21" value="Out_Valid" style="text;html=1;align=left;verticalAlign=middle;whiteSpace=wrap;rounded=0;fontFamily=Helvetica;fontSize=12;" vertex="1" parent="1">
          <mxGeometry x="840" y="720" width="60" height="20" as="geometry" />
        </mxCell>
        <mxCell id="MxkmVZKLrqtd9-mmax9k-22" value="Out_Ready" style="text;html=1;align=left;verticalAlign=middle;whiteSpace=wrap;rounded=0;fontFamily=Helvetica;fontSize=12;" vertex="1" parent="1">
          <mxGeometry x="840" y="740" width="60" height="20" as="geometry" />
        </mxCell>
        <mxCell id="MxkmVZKLrqtd9-mmax9k-23" value="ToProc_Data" style="text;html=1;align=left;verticalAlign=middle;whiteSpace=wrap;rounded=0;fontSize=8;" vertex="1" parent="1">
          <mxGeometry x="500" y="605" width="60" height="10" as="geometry" />
        </mxCell>
        <mxCell id="MxkmVZKLrqtd9-mmax9k-24" value="ToProc_Valid" style="text;html=1;align=left;verticalAlign=middle;whiteSpace=wrap;rounded=0;fontSize=8;" vertex="1" parent="1">
          <mxGeometry x="500" y="660" width="60" height="10" as="geometry" />
        </mxCell>
        <mxCell id="MxkmVZKLrqtd9-mmax9k-25" value="FromProc_Data" style="text;html=1;align=left;verticalAlign=middle;whiteSpace=wrap;rounded=0;fontSize=8;" vertex="1" parent="1">
          <mxGeometry x="720" y="605" width="60" height="10" as="geometry" />
        </mxCell>
        <mxCell id="MxkmVZKLrqtd9-mmax9k-26" value="FromProc_Valid" style="text;html=1;align=left;verticalAlign=middle;whiteSpace=wrap;rounded=0;fontSize=8;" vertex="1" parent="1">
          <mxGeometry x="720" y="660" width="60" height="10" as="geometry" />
        </mxCell>
        <mxCell id="MxkmVZKLrqtd9-mmax9k-27" value="olo_base_delay&lt;div&gt;Delay_g=N&lt;/div&gt;" style="rounded=1;whiteSpace=wrap;html=1;fillColor=#f5f5f5;fontColor=#333333;strokeColor=#666666;" vertex="1" parent="1">
          <mxGeometry x="560" y="650" width="160" height="40" as="geometry" />
        </mxCell>
        <mxCell id="qK7k_QjEXLFmSZod9N9d-7" style="vsdxID=5;fillColor=none;gradientColor=none;strokeColor=none;labelBackgroundColor=none;rounded=0;html=1;whiteSpace=wrap;" vertex="1" parent="1">
          <mxGeometry x="720" y="960" width="80" height="60" as="geometry" />
        </mxCell>
        <mxCell id="qK7k_QjEXLFmSZod9N9d-8" value="" style="verticalAlign=middle;align=center;vsdxID=6;fillColor=#f5f5f5;shape=stencil(nZBLDoAgDERP0z3SIyjew0SURgSD+Lu9kMZoXLhwN9O+tukAlrNpJg1SzDH4QW/URgNYgZTkjA4UkwJUgGXng+6DX1zLfmoymdXo17xh5zmRJ6Q42BWCfc2oJfdAr+Yv+AP9Cb7OJ3H/2JG1HNGz/84klThPVCc=);strokeColor=#666666;spacingTop=-3;spacingBottom=-3;spacingLeft=-3;spacingRight=-3;labelBackgroundColor=none;rounded=0;html=1;whiteSpace=wrap;fontColor=#333333;" vertex="1" parent="qK7k_QjEXLFmSZod9N9d-7">
          <mxGeometry x="20" width="60" height="60" as="geometry" />
        </mxCell>
        <mxCell id="qK7k_QjEXLFmSZod9N9d-9" style="vsdxID=8;fillColor=#FFFFFF;gradientColor=none;shape=stencil(UzV2Ls5ILEhVNTIoLinKz04tz0wpyVA1dlE1MsrMy0gtyiwBslSNXVWNndPyi1LTi/JL81Ig/IJEkEoQKze/DGRCBUSfAUiHkUElMs8NojAnMw9JoaEB2UphfKyK8SoFMhAOh/gZWQ7dk0AhSAAZuwIA);strokeColor=#000000;labelBackgroundColor=#ffffff;rounded=0;html=1;whiteSpace=wrap;" vertex="1" parent="qK7k_QjEXLFmSZod9N9d-7">
          <mxGeometry x="36" y="15" width="24" height="30" as="geometry" />
        </mxCell>
        <mxCell id="qK7k_QjEXLFmSZod9N9d-10" style="vsdxID=7;edgeStyle=none;startArrow=none;endArrow=classic;startSize=5;endSize=5;strokeColor=#000000;spacingTop=0;spacingBottom=0;spacingLeft=0;spacingRight=0;verticalAlign=middle;html=1;labelBackgroundColor=#ffffff;rounded=0;" edge="1" parent="qK7k_QjEXLFmSZod9N9d-7">
          <mxGeometry relative="1" as="geometry">
            <mxPoint as="offset" />
            <Array as="points" />
            <mxPoint x="24" y="30" as="sourcePoint" />
            <mxPoint x="40" y="30" as="targetPoint" />
          </mxGeometry>
        </mxCell>
        <mxCell id="qK7k_QjEXLFmSZod9N9d-11" style="vsdxID=9;edgeStyle=none;startArrow=none;endArrow=none;startSize=5;endSize=5;strokeColor=#000000;spacingTop=0;spacingBottom=0;spacingLeft=0;spacingRight=0;verticalAlign=middle;html=1;labelBackgroundColor=#ffffff;rounded=0;" edge="1" parent="qK7k_QjEXLFmSZod9N9d-7">
          <mxGeometry relative="1" as="geometry">
            <Array as="points" />
            <mxPoint x="52" y="15" as="sourcePoint" />
            <mxPoint x="52" y="45" as="targetPoint" />
          </mxGeometry>
        </mxCell>
        <mxCell id="qK7k_QjEXLFmSZod9N9d-12" style="vsdxID=10;edgeStyle=none;startArrow=none;endArrow=none;startSize=5;endSize=5;strokeColor=#000000;spacingTop=0;spacingBottom=0;spacingLeft=0;spacingRight=0;verticalAlign=middle;html=1;labelBackgroundColor=#ffffff;rounded=0;" edge="1" parent="qK7k_QjEXLFmSZod9N9d-7">
          <mxGeometry relative="1" as="geometry">
            <Array as="points" />
            <mxPoint x="44" y="15" as="sourcePoint" />
            <mxPoint x="44" y="45" as="targetPoint" />
          </mxGeometry>
        </mxCell>
        <mxCell id="qK7k_QjEXLFmSZod9N9d-13" style="vsdxID=11;edgeStyle=none;startArrow=none;endArrow=classic;startSize=5;endSize=5;strokeColor=#000000;spacingTop=0;spacingBottom=0;spacingLeft=0;spacingRight=0;verticalAlign=middle;html=1;labelBackgroundColor=#ffffff;rounded=0;" edge="1" parent="qK7k_QjEXLFmSZod9N9d-7">
          <mxGeometry relative="1" as="geometry">
            <mxPoint as="offset" />
            <Array as="points" />
            <mxPoint x="60" y="30" as="sourcePoint" />
            <mxPoint x="76" y="30" as="targetPoint" />
          </mxGeometry>
        </mxCell>
        <mxCell id="qK7k_QjEXLFmSZod9N9d-14" style="vsdxID=12;edgeStyle=none;startArrow=none;endArrow=none;startSize=5;endSize=5;strokeColor=#000000;spacingTop=0;spacingBottom=0;spacingLeft=0;spacingRight=0;verticalAlign=middle;html=1;labelBackgroundColor=#ffffff;rounded=0;" edge="1" parent="qK7k_QjEXLFmSZod9N9d-7">
          <mxGeometry relative="1" as="geometry">
            <Array as="points" />
            <mxPoint x="56" y="15" as="sourcePoint" />
            <mxPoint x="56" y="45" as="targetPoint" />
          </mxGeometry>
        </mxCell>
        <mxCell id="qK7k_QjEXLFmSZod9N9d-15" style="vsdxID=13;edgeStyle=none;startArrow=none;endArrow=none;startSize=5;endSize=5;strokeColor=#000000;spacingTop=0;spacingBottom=0;spacingLeft=0;spacingRight=0;verticalAlign=middle;html=1;labelBackgroundColor=#ffffff;rounded=0;" edge="1" parent="qK7k_QjEXLFmSZod9N9d-7">
          <mxGeometry relative="1" as="geometry">
            <Array as="points" />
            <mxPoint x="48" y="15" as="sourcePoint" />
            <mxPoint x="48" y="45" as="targetPoint" />
          </mxGeometry>
        </mxCell>
        <mxCell id="qK7k_QjEXLFmSZod9N9d-17" value="half-empty" style="endArrow=classic;html=1;rounded=0;entryX=1;entryY=0.5;entryDx=0;entryDy=0;" edge="1" parent="1" target="qK7k_QjEXLFmSZod9N9d-24">
          <mxGeometry width="50" height="50" relative="1" as="geometry">
            <mxPoint x="740" y="1010" as="sourcePoint" />
            <mxPoint x="360" y="1010" as="targetPoint" />
          </mxGeometry>
        </mxCell>
        <mxCell id="qK7k_QjEXLFmSZod9N9d-24" value="In_Ready" style="text;html=1;align=right;verticalAlign=middle;whiteSpace=wrap;rounded=0;fontFamily=Helvetica;fontSize=12;" vertex="1" parent="1">
          <mxGeometry x="440" y="1000" width="60" height="20" as="geometry" />
        </mxCell>
        <mxCell id="qK7k_QjEXLFmSZod9N9d-25" value="In_Valid" style="text;html=1;align=right;verticalAlign=middle;whiteSpace=wrap;rounded=0;fontFamily=Helvetica;fontSize=12;" vertex="1" parent="1">
          <mxGeometry x="440" y="960" width="60" height="20" as="geometry" />
        </mxCell>
        <mxCell id="qK7k_QjEXLFmSZod9N9d-32" style="vsdxID=5;fillColor=none;gradientColor=none;strokeColor=none;labelBackgroundColor=none;rounded=0;html=1;whiteSpace=wrap;" vertex="1" parent="1">
          <mxGeometry x="540" y="960" width="40" height="40" as="geometry" />
        </mxCell>
        <mxCell id="qK7k_QjEXLFmSZod9N9d-33" style="vsdxID=6;fillColor=#f5f5f5;shape=stencil(nZBLDoAgDERP0z3SIyjew0SURgSD+Lu9kMZoXLhwN9O+tukAlrNpJg1SzDH4QW/URgNYgZTkjA4UkwJUgGXng+6DX1zLfmoymdXo17xh5zmRJ6Q42BWCfc2oJfdAr+Yv+AP9Cb7OJ3H/2JG1HNGz/84klThPVCc=);strokeColor=#666666;labelBackgroundColor=none;rounded=0;html=1;whiteSpace=wrap;fontColor=#333333;" vertex="1" parent="qK7k_QjEXLFmSZod9N9d-32">
          <mxGeometry x="20" width="20" height="40" as="geometry" />
        </mxCell>
        <mxCell id="qK7k_QjEXLFmSZod9N9d-34" value="&lt;font style=&quot;font-size:11px;font-family:Calibri;color:#000000;direction:ltr;letter-spacing:0px;line-height:120%;opacity:1&quot;&gt;&amp;amp;&lt;br/&gt;&lt;/font&gt;" style="verticalAlign=middle;align=center;vsdxID=7;fillColor=none;gradientColor=none;shape=stencil(nZBLDoAgDERP0z3SIyjew0SURgSD+Lu9kMZoXLhwN9O+tukAlrNpJg1SzDH4QW/URgNYgZTkjA4UkwJUgGXng+6DX1zLfmoymdXo17xh5zmRJ6Q42BWCfc2oJfdAr+Yv+AP9Cb7OJ3H/2JG1HNGz/84klThPVCc=);strokeColor=none;spacingTop=-3;spacingBottom=-3;spacingLeft=-3;spacingRight=-3;labelBackgroundColor=none;rounded=0;html=1;whiteSpace=wrap;" vertex="1" parent="qK7k_QjEXLFmSZod9N9d-32">
          <mxGeometry x="20" y="10" width="20" height="20" as="geometry" />
        </mxCell>
        <mxCell id="qK7k_QjEXLFmSZod9N9d-35" style="vsdxID=8;edgeStyle=none;startArrow=none;endArrow=classic;startSize=5;endSize=5;strokeColor=#000000;spacingTop=0;spacingBottom=0;spacingLeft=0;spacingRight=0;verticalAlign=middle;html=1;labelBackgroundColor=#ffffff;rounded=0;" edge="1" parent="qK7k_QjEXLFmSZod9N9d-32">
          <mxGeometry relative="1" as="geometry">
            <mxPoint as="offset" />
            <Array as="points" />
            <mxPoint y="10" as="sourcePoint" />
            <mxPoint x="20" y="10" as="targetPoint" />
          </mxGeometry>
        </mxCell>
        <mxCell id="qK7k_QjEXLFmSZod9N9d-36" style="vsdxID=9;edgeStyle=none;startArrow=none;endArrow=classic;startSize=5;endSize=5;strokeColor=#000000;spacingTop=0;spacingBottom=0;spacingLeft=0;spacingRight=0;verticalAlign=middle;html=1;labelBackgroundColor=#ffffff;rounded=0;" edge="1" parent="qK7k_QjEXLFmSZod9N9d-32">
          <mxGeometry relative="1" as="geometry">
            <mxPoint as="offset" />
            <Array as="points" />
            <mxPoint y="30" as="sourcePoint" />
            <mxPoint x="20" y="30" as="targetPoint" />
          </mxGeometry>
        </mxCell>
        <mxCell id="qK7k_QjEXLFmSZod9N9d-37" value="" style="endArrow=none;html=1;rounded=0;startArrow=oval;startFill=1;entryX=0;entryY=0.75;entryDx=0;entryDy=0;" edge="1" parent="qK7k_QjEXLFmSZod9N9d-32" target="qK7k_QjEXLFmSZod9N9d-32">
          <mxGeometry width="50" height="50" relative="1" as="geometry">
            <mxPoint y="50" as="sourcePoint" />
            <mxPoint x="50" as="targetPoint" />
          </mxGeometry>
        </mxCell>
        <mxCell id="qK7k_QjEXLFmSZod9N9d-38" value="" style="endArrow=none;html=1;rounded=0;" edge="1" parent="1">
          <mxGeometry width="50" height="50" relative="1" as="geometry">
            <mxPoint x="500" y="970" as="sourcePoint" />
            <mxPoint x="540" y="970" as="targetPoint" />
          </mxGeometry>
        </mxCell>
        <mxCell id="qK7k_QjEXLFmSZod9N9d-39" value="" style="endArrow=classic;html=1;rounded=0;" edge="1" parent="1">
          <mxGeometry width="50" height="50" relative="1" as="geometry">
            <mxPoint x="580" y="980" as="sourcePoint" />
            <mxPoint x="620" y="920" as="targetPoint" />
            <Array as="points">
              <mxPoint x="620" y="980" />
            </Array>
          </mxGeometry>
        </mxCell>
        <mxCell id="qK7k_QjEXLFmSZod9N9d-40" value="ToProc_Valid" style="text;html=1;align=left;verticalAlign=middle;whiteSpace=wrap;rounded=0;fontFamily=Helvetica;fontSize=12;rotation=-90;" vertex="1" parent="1">
          <mxGeometry x="590" y="880" width="60" height="20" as="geometry" />
        </mxCell>
        <mxCell id="qK7k_QjEXLFmSZod9N9d-41" value="" style="endArrow=classic;html=1;rounded=0;" edge="1" parent="1">
          <mxGeometry width="50" height="50" relative="1" as="geometry">
            <mxPoint x="500" y="950" as="sourcePoint" />
            <mxPoint x="600" y="920" as="targetPoint" />
            <Array as="points">
              <mxPoint x="600" y="950" />
            </Array>
          </mxGeometry>
        </mxCell>
        <mxCell id="qK7k_QjEXLFmSZod9N9d-42" value="ToProc_Data" style="text;html=1;align=left;verticalAlign=middle;whiteSpace=wrap;rounded=0;fontFamily=Helvetica;fontSize=12;rotation=-90;" vertex="1" parent="1">
          <mxGeometry x="570" y="880" width="60" height="20" as="geometry" />
        </mxCell>
        <mxCell id="qK7k_QjEXLFmSZod9N9d-43" value="" style="endArrow=classic;html=1;rounded=0;" edge="1" parent="1">
          <mxGeometry width="50" height="50" relative="1" as="geometry">
            <mxPoint x="700" y="920" as="sourcePoint" />
            <mxPoint x="740" y="970" as="targetPoint" />
            <Array as="points">
              <mxPoint x="700" y="970" />
            </Array>
          </mxGeometry>
        </mxCell>
        <mxCell id="qK7k_QjEXLFmSZod9N9d-44" value="FromProc_Data" style="text;html=1;align=left;verticalAlign=middle;whiteSpace=wrap;rounded=0;fontFamily=Helvetica;fontSize=12;rotation=-90;" vertex="1" parent="1">
          <mxGeometry x="655" y="865" width="90" height="20" as="geometry" />
        </mxCell>
        <mxCell id="qK7k_QjEXLFmSZod9N9d-45" value="" style="endArrow=classic;html=1;rounded=0;" edge="1" parent="1">
          <mxGeometry width="50" height="50" relative="1" as="geometry">
            <mxPoint x="680" y="920" as="sourcePoint" />
            <mxPoint x="740" y="990" as="targetPoint" />
            <Array as="points">
              <mxPoint x="680" y="990" />
            </Array>
          </mxGeometry>
        </mxCell>
        <mxCell id="qK7k_QjEXLFmSZod9N9d-46" value="FromProc_Valid" style="text;html=1;align=left;verticalAlign=middle;whiteSpace=wrap;rounded=0;fontFamily=Helvetica;fontSize=12;rotation=-90;" vertex="1" parent="1">
          <mxGeometry x="633" y="865" width="90" height="20" as="geometry" />
        </mxCell>
        <mxCell id="qK7k_QjEXLFmSZod9N9d-47" value="In_Data" style="text;html=1;align=right;verticalAlign=middle;whiteSpace=wrap;rounded=0;fontFamily=Helvetica;fontSize=12;" vertex="1" parent="1">
          <mxGeometry x="440" y="940" width="60" height="20" as="geometry" />
        </mxCell>
        <mxCell id="qK7k_QjEXLFmSZod9N9d-48" value="" style="endArrow=classic;html=1;rounded=0;" edge="1" parent="1">
          <mxGeometry width="50" height="50" relative="1" as="geometry">
            <mxPoint x="800" y="969.76" as="sourcePoint" />
            <mxPoint x="840" y="969.76" as="targetPoint" />
          </mxGeometry>
        </mxCell>
        <mxCell id="qK7k_QjEXLFmSZod9N9d-49" value="" style="endArrow=classic;html=1;rounded=0;" edge="1" parent="1">
          <mxGeometry width="50" height="50" relative="1" as="geometry">
            <mxPoint x="800" y="989.5899999999999" as="sourcePoint" />
            <mxPoint x="840" y="989.5899999999999" as="targetPoint" />
          </mxGeometry>
        </mxCell>
        <mxCell id="qK7k_QjEXLFmSZod9N9d-50" value="" style="endArrow=none;html=1;rounded=0;startArrow=classic;startFill=1;endFill=0;" edge="1" parent="1">
          <mxGeometry width="50" height="50" relative="1" as="geometry">
            <mxPoint x="800" y="1009.76" as="sourcePoint" />
            <mxPoint x="840" y="1009.76" as="targetPoint" />
          </mxGeometry>
        </mxCell>
        <mxCell id="qK7k_QjEXLFmSZod9N9d-51" value="Out_Data" style="text;html=1;align=left;verticalAlign=middle;whiteSpace=wrap;rounded=0;fontFamily=Helvetica;fontSize=12;" vertex="1" parent="1">
          <mxGeometry x="840" y="960" width="60" height="20" as="geometry" />
        </mxCell>
        <mxCell id="qK7k_QjEXLFmSZod9N9d-52" value="Out_Valid" style="text;html=1;align=left;verticalAlign=middle;whiteSpace=wrap;rounded=0;fontFamily=Helvetica;fontSize=12;" vertex="1" parent="1">
          <mxGeometry x="840" y="980" width="60" height="20" as="geometry" />
        </mxCell>
        <mxCell id="qK7k_QjEXLFmSZod9N9d-53" value="Out_Ready" style="text;html=1;align=left;verticalAlign=middle;whiteSpace=wrap;rounded=0;fontFamily=Helvetica;fontSize=12;" vertex="1" parent="1">
          <mxGeometry x="840" y="1000" width="60" height="20" as="geometry" />
        </mxCell>
      </root>
    </mxGraphModel>
  </diagram>
</mxfile>
